<mxfile host="app.diagrams.net" modified="2022-06-16T13:53:00.474Z" agent="5.0 (Windows NT 10.0; Win64; x64) AppleWebKit/537.36 (KHTML, like Gecko) Chrome/102.0.5005.124 Safari/537.36 Edg/102.0.1245.41" etag="Iq2a0EnIQEKOffgw_T94" version="20.0.1" type="github">
  <diagram id="lMzmnlRP97QqUHaDVQdH" name="第 1 页">
    <mxGraphModel dx="834" dy="511" grid="0" gridSize="10" guides="1" tooltips="1" connect="1" arrows="1" fold="1" page="1" pageScale="1" pageWidth="2000" pageHeight="3000" math="0" shadow="0">
      <root>
        <mxCell id="0" />
        <mxCell id="1" parent="0" />
        <mxCell id="ULyl4YnrpsMmXoueRFgM-106" value="" style="group;movable=0;resizable=0;rotatable=0;deletable=0;editable=0;connectable=0;" vertex="1" connectable="0" parent="1">
          <mxGeometry x="78" y="178" width="675" height="50" as="geometry" />
        </mxCell>
        <mxCell id="ULyl4YnrpsMmXoueRFgM-1" value="" style="shape=table;startSize=0;container=1;collapsible=0;childLayout=tableLayout;fontSize=16;fontFamily=Verdana;movable=1;resizable=1;rotatable=1;deletable=1;editable=1;connectable=1;" vertex="1" parent="ULyl4YnrpsMmXoueRFgM-106">
          <mxGeometry width="675" height="40.94254276670259" as="geometry" />
        </mxCell>
        <mxCell id="ULyl4YnrpsMmXoueRFgM-2" value="" style="shape=tableRow;horizontal=0;startSize=0;swimlaneHead=0;swimlaneBody=0;top=0;left=0;bottom=0;right=0;collapsible=0;dropTarget=0;fillColor=none;points=[[0,0.5],[1,0.5]];portConstraint=eastwest;fontSize=16;fontFamily=Verdana;" vertex="1" parent="ULyl4YnrpsMmXoueRFgM-1">
          <mxGeometry width="675" height="41" as="geometry" />
        </mxCell>
        <mxCell id="ULyl4YnrpsMmXoueRFgM-3" value="" style="shape=partialRectangle;html=1;whiteSpace=wrap;connectable=0;overflow=hidden;fillColor=none;top=0;left=0;bottom=0;right=0;pointerEvents=1;fontSize=16;fontFamily=Verdana;" vertex="1" parent="ULyl4YnrpsMmXoueRFgM-2">
          <mxGeometry width="112" height="41" as="geometry">
            <mxRectangle width="112" height="41" as="alternateBounds" />
          </mxGeometry>
        </mxCell>
        <mxCell id="ULyl4YnrpsMmXoueRFgM-4" value="" style="shape=partialRectangle;html=1;whiteSpace=wrap;connectable=0;overflow=hidden;fillColor=none;top=0;left=0;bottom=0;right=0;pointerEvents=1;fontSize=16;fontFamily=Verdana;" vertex="1" parent="ULyl4YnrpsMmXoueRFgM-2">
          <mxGeometry x="112" width="114" height="41" as="geometry">
            <mxRectangle width="114" height="41" as="alternateBounds" />
          </mxGeometry>
        </mxCell>
        <mxCell id="ULyl4YnrpsMmXoueRFgM-5" value="" style="shape=partialRectangle;html=1;whiteSpace=wrap;connectable=0;overflow=hidden;fillColor=none;top=0;left=0;bottom=0;right=0;pointerEvents=1;fontSize=16;fontFamily=Verdana;" vertex="1" parent="ULyl4YnrpsMmXoueRFgM-2">
          <mxGeometry x="226" width="112" height="41" as="geometry">
            <mxRectangle width="112" height="41" as="alternateBounds" />
          </mxGeometry>
        </mxCell>
        <mxCell id="ULyl4YnrpsMmXoueRFgM-6" value="" style="shape=partialRectangle;html=1;whiteSpace=wrap;connectable=0;overflow=hidden;fillColor=none;top=0;left=0;bottom=0;right=0;pointerEvents=1;fontSize=16;fontFamily=Verdana;" vertex="1" parent="ULyl4YnrpsMmXoueRFgM-2">
          <mxGeometry x="338" width="111" height="41" as="geometry">
            <mxRectangle width="111" height="41" as="alternateBounds" />
          </mxGeometry>
        </mxCell>
        <mxCell id="ULyl4YnrpsMmXoueRFgM-7" value="" style="shape=partialRectangle;html=1;whiteSpace=wrap;connectable=0;overflow=hidden;fillColor=none;top=0;left=0;bottom=0;right=0;pointerEvents=1;fontSize=16;fontFamily=Verdana;" vertex="1" parent="ULyl4YnrpsMmXoueRFgM-2">
          <mxGeometry x="449" width="114" height="41" as="geometry">
            <mxRectangle width="114" height="41" as="alternateBounds" />
          </mxGeometry>
        </mxCell>
        <mxCell id="ULyl4YnrpsMmXoueRFgM-8" value="" style="shape=partialRectangle;html=1;whiteSpace=wrap;connectable=0;overflow=hidden;fillColor=none;top=0;left=0;bottom=0;right=0;pointerEvents=1;fontSize=16;fontFamily=Verdana;" vertex="1" parent="ULyl4YnrpsMmXoueRFgM-2">
          <mxGeometry x="563" width="112" height="41" as="geometry">
            <mxRectangle width="112" height="41" as="alternateBounds" />
          </mxGeometry>
        </mxCell>
        <mxCell id="ULyl4YnrpsMmXoueRFgM-105" value="" style="group" vertex="1" connectable="0" parent="ULyl4YnrpsMmXoueRFgM-106">
          <mxGeometry x="8" y="5" width="659" height="45" as="geometry" />
        </mxCell>
        <mxCell id="ULyl4YnrpsMmXoueRFgM-69" value="0" style="rounded=0;whiteSpace=wrap;html=1;fontSize=16;fontFamily=Verdana;" vertex="1" parent="ULyl4YnrpsMmXoueRFgM-105">
          <mxGeometry width="48" height="30" as="geometry" />
        </mxCell>
        <mxCell id="ULyl4YnrpsMmXoueRFgM-78" value="9" style="rounded=0;whiteSpace=wrap;html=1;fontSize=16;fontFamily=Verdana;" vertex="1" parent="ULyl4YnrpsMmXoueRFgM-105">
          <mxGeometry x="48" width="48" height="30" as="geometry" />
        </mxCell>
        <mxCell id="ULyl4YnrpsMmXoueRFgM-91" value="7" style="rounded=0;whiteSpace=wrap;html=1;fontSize=16;fontFamily=Verdana;" vertex="1" parent="ULyl4YnrpsMmXoueRFgM-105">
          <mxGeometry x="449" width="48" height="30" as="geometry" />
        </mxCell>
        <mxCell id="ULyl4YnrpsMmXoueRFgM-92" value="4" style="rounded=0;whiteSpace=wrap;html=1;fontSize=16;fontFamily=Verdana;" vertex="1" parent="ULyl4YnrpsMmXoueRFgM-105">
          <mxGeometry x="497" width="48" height="30" as="geometry" />
        </mxCell>
        <mxCell id="ULyl4YnrpsMmXoueRFgM-88" value="6" style="rounded=0;whiteSpace=wrap;html=1;fontSize=16;fontFamily=Verdana;" vertex="1" parent="ULyl4YnrpsMmXoueRFgM-105">
          <mxGeometry x="338" width="48" height="30" as="geometry" />
        </mxCell>
        <mxCell id="ULyl4YnrpsMmXoueRFgM-89" value="2" style="rounded=0;whiteSpace=wrap;html=1;fontSize=16;fontFamily=Verdana;" vertex="1" parent="ULyl4YnrpsMmXoueRFgM-105">
          <mxGeometry x="386" width="48" height="30" as="geometry" />
        </mxCell>
        <mxCell id="ULyl4YnrpsMmXoueRFgM-85" value="5" style="rounded=0;whiteSpace=wrap;html=1;fontSize=16;fontFamily=Verdana;" vertex="1" parent="ULyl4YnrpsMmXoueRFgM-105">
          <mxGeometry x="226" width="48" height="30" as="geometry" />
        </mxCell>
        <mxCell id="ULyl4YnrpsMmXoueRFgM-86" value="7" style="rounded=0;whiteSpace=wrap;html=1;fontSize=16;fontFamily=Verdana;" vertex="1" parent="ULyl4YnrpsMmXoueRFgM-105">
          <mxGeometry x="274" width="48" height="30" as="geometry" />
        </mxCell>
        <mxCell id="ULyl4YnrpsMmXoueRFgM-82" value="4" style="rounded=0;whiteSpace=wrap;html=1;fontSize=16;fontFamily=Verdana;" vertex="1" parent="ULyl4YnrpsMmXoueRFgM-105">
          <mxGeometry x="111" width="48" height="30" as="geometry" />
        </mxCell>
        <mxCell id="ULyl4YnrpsMmXoueRFgM-83" value="1" style="rounded=0;whiteSpace=wrap;html=1;fontSize=16;fontFamily=Verdana;" vertex="1" parent="ULyl4YnrpsMmXoueRFgM-105">
          <mxGeometry x="159" width="48" height="30" as="geometry" />
        </mxCell>
        <mxCell id="ULyl4YnrpsMmXoueRFgM-103" value="" style="group" vertex="1" connectable="0" parent="ULyl4YnrpsMmXoueRFgM-105">
          <mxGeometry x="563" width="96" height="30" as="geometry" />
        </mxCell>
        <mxCell id="ULyl4YnrpsMmXoueRFgM-94" value="10" style="rounded=0;whiteSpace=wrap;html=1;fontSize=16;fontFamily=Verdana;" vertex="1" parent="ULyl4YnrpsMmXoueRFgM-103">
          <mxGeometry width="48" height="30" as="geometry" />
        </mxCell>
        <mxCell id="ULyl4YnrpsMmXoueRFgM-95" value="9" style="rounded=0;whiteSpace=wrap;html=1;fontSize=16;fontFamily=Verdana;" vertex="1" parent="ULyl4YnrpsMmXoueRFgM-103">
          <mxGeometry x="48" width="48" height="30" as="geometry" />
        </mxCell>
        <mxCell id="ULyl4YnrpsMmXoueRFgM-102" value="" style="rounded=0;whiteSpace=wrap;html=1;fontFamily=Lucida Console;fontSize=15;labelBackgroundColor=none;fillColor=#FF99FF;strokeColor=#b85450;opacity=35;" vertex="1" parent="ULyl4YnrpsMmXoueRFgM-105">
          <mxGeometry x="-8" y="-13" width="112" height="56" as="geometry" />
        </mxCell>
        <mxCell id="ULyl4YnrpsMmXoueRFgM-100" value="" style="group" vertex="1" connectable="0" parent="1">
          <mxGeometry x="128" y="228" width="60" height="64" as="geometry" />
        </mxCell>
        <mxCell id="ULyl4YnrpsMmXoueRFgM-97" value="" style="endArrow=classic;html=1;rounded=0;fontFamily=Verdana;fontSize=16;strokeWidth=3;strokeColor=#006EAF;" edge="1" parent="ULyl4YnrpsMmXoueRFgM-100">
          <mxGeometry width="50" height="50" relative="1" as="geometry">
            <mxPoint x="30.340000000000003" y="35" as="sourcePoint" />
            <mxPoint x="29.99999999999997" as="targetPoint" />
          </mxGeometry>
        </mxCell>
        <mxCell id="ULyl4YnrpsMmXoueRFgM-99" value="right" style="text;html=1;strokeColor=none;fillColor=none;align=center;verticalAlign=middle;whiteSpace=wrap;rounded=0;fontFamily=Lucida Console;fontSize=15;fontColor=#006EAF;fontStyle=1" vertex="1" parent="ULyl4YnrpsMmXoueRFgM-100">
          <mxGeometry y="34" width="59" height="30" as="geometry" />
        </mxCell>
        <mxCell id="ULyl4YnrpsMmXoueRFgM-101" value="" style="group" vertex="1" connectable="0" parent="1">
          <mxGeometry x="78" y="228" width="60" height="65" as="geometry" />
        </mxCell>
        <mxCell id="ULyl4YnrpsMmXoueRFgM-96" value="" style="endArrow=classic;html=1;rounded=0;fontFamily=Verdana;fontSize=16;strokeWidth=3;strokeColor=#2D7600;" edge="1" parent="ULyl4YnrpsMmXoueRFgM-101">
          <mxGeometry width="50" height="50" relative="1" as="geometry">
            <mxPoint x="30" y="35" as="sourcePoint" />
            <mxPoint x="29.659999999999997" as="targetPoint" />
          </mxGeometry>
        </mxCell>
        <mxCell id="ULyl4YnrpsMmXoueRFgM-98" value="left" style="text;html=1;strokeColor=none;fillColor=none;align=center;verticalAlign=middle;whiteSpace=wrap;rounded=0;fontFamily=Lucida Console;fontSize=15;fontColor=#2D7600;fontStyle=1" vertex="1" parent="ULyl4YnrpsMmXoueRFgM-101">
          <mxGeometry y="35" width="60" height="30" as="geometry" />
        </mxCell>
        <mxCell id="ULyl4YnrpsMmXoueRFgM-288" value="" style="group" vertex="1" connectable="0" parent="1">
          <mxGeometry x="78" y="132" width="667" height="20" as="geometry" />
        </mxCell>
        <mxCell id="ULyl4YnrpsMmXoueRFgM-209" value="" style="group" vertex="1" connectable="0" parent="ULyl4YnrpsMmXoueRFgM-288">
          <mxGeometry width="196" height="20" as="geometry" />
        </mxCell>
        <mxCell id="ULyl4YnrpsMmXoueRFgM-205" value="&lt;span style=&quot;font-size: 10px;&quot;&gt;当前窗口区间所需&lt;b style=&quot;font-size: 10px;&quot;&gt;最小步数：&lt;/b&gt;&lt;/span&gt;" style="text;html=1;strokeColor=none;fillColor=none;align=center;verticalAlign=middle;whiteSpace=wrap;rounded=0;pointerEvents=0;fontFamily=Verdana;fontSize=10;fontColor=#006EAF;" vertex="1" parent="ULyl4YnrpsMmXoueRFgM-209">
          <mxGeometry width="170" height="20" as="geometry" />
        </mxCell>
        <mxCell id="ULyl4YnrpsMmXoueRFgM-208" value="5" style="text;html=1;strokeColor=none;fillColor=none;align=center;verticalAlign=middle;whiteSpace=wrap;rounded=0;pointerEvents=0;fontFamily=Verdana;fontSize=15;fontColor=#006EAF;" vertex="1" parent="ULyl4YnrpsMmXoueRFgM-209">
          <mxGeometry x="158" width="38" height="20" as="geometry" />
        </mxCell>
        <mxCell id="ULyl4YnrpsMmXoueRFgM-215" value="" style="group" vertex="1" connectable="0" parent="ULyl4YnrpsMmXoueRFgM-288">
          <mxGeometry x="464" width="203" height="20" as="geometry" />
        </mxCell>
        <mxCell id="ULyl4YnrpsMmXoueRFgM-213" value="&lt;span style=&quot;font-size: 10px;&quot;&gt;当前窗口区间采摘水果&lt;/span&gt;&lt;b style=&quot;font-size: 10px;&quot;&gt;数量：&lt;/b&gt;" style="text;html=1;strokeColor=none;fillColor=none;align=center;verticalAlign=middle;whiteSpace=wrap;rounded=0;pointerEvents=0;fontFamily=Verdana;fontSize=10;fontColor=#006EAF;" vertex="1" parent="ULyl4YnrpsMmXoueRFgM-215">
          <mxGeometry width="170" height="20" as="geometry" />
        </mxCell>
        <mxCell id="ULyl4YnrpsMmXoueRFgM-214" value="9" style="text;html=1;strokeColor=none;fillColor=none;align=center;verticalAlign=middle;whiteSpace=wrap;rounded=0;pointerEvents=0;fontFamily=Verdana;fontSize=15;fontColor=#006EAF;" vertex="1" parent="ULyl4YnrpsMmXoueRFgM-215">
          <mxGeometry x="165" width="38" height="20" as="geometry" />
        </mxCell>
        <mxCell id="ULyl4YnrpsMmXoueRFgM-312" value="" style="group" vertex="1" connectable="0" parent="1">
          <mxGeometry x="78" y="132" width="667" height="20" as="geometry" />
        </mxCell>
        <mxCell id="ULyl4YnrpsMmXoueRFgM-313" value="" style="group" vertex="1" connectable="0" parent="ULyl4YnrpsMmXoueRFgM-312">
          <mxGeometry width="196" height="20" as="geometry" />
        </mxCell>
        <mxCell id="ULyl4YnrpsMmXoueRFgM-314" value="&lt;span style=&quot;font-size: 10px;&quot;&gt;当前窗口区间所需&lt;b style=&quot;font-size: 10px;&quot;&gt;最小步数：&lt;/b&gt;&lt;/span&gt;" style="text;html=1;strokeColor=none;fillColor=none;align=center;verticalAlign=middle;whiteSpace=wrap;rounded=0;pointerEvents=0;fontFamily=Verdana;fontSize=10;fontColor=#006EAF;" vertex="1" parent="ULyl4YnrpsMmXoueRFgM-313">
          <mxGeometry width="170" height="20" as="geometry" />
        </mxCell>
        <mxCell id="ULyl4YnrpsMmXoueRFgM-315" value="5" style="text;html=1;strokeColor=none;fillColor=none;align=center;verticalAlign=middle;whiteSpace=wrap;rounded=0;pointerEvents=0;fontFamily=Verdana;fontSize=15;fontColor=#006EAF;" vertex="1" parent="ULyl4YnrpsMmXoueRFgM-313">
          <mxGeometry x="158" width="38" height="20" as="geometry" />
        </mxCell>
        <mxCell id="ULyl4YnrpsMmXoueRFgM-316" value="" style="group" vertex="1" connectable="0" parent="ULyl4YnrpsMmXoueRFgM-312">
          <mxGeometry x="464" width="203" height="20" as="geometry" />
        </mxCell>
        <mxCell id="ULyl4YnrpsMmXoueRFgM-317" value="&lt;span style=&quot;font-size: 10px;&quot;&gt;当前窗口区间采摘水果&lt;/span&gt;&lt;b style=&quot;font-size: 10px;&quot;&gt;数量：&lt;/b&gt;" style="text;html=1;strokeColor=none;fillColor=none;align=center;verticalAlign=middle;whiteSpace=wrap;rounded=0;pointerEvents=0;fontFamily=Verdana;fontSize=10;fontColor=#006EAF;" vertex="1" parent="ULyl4YnrpsMmXoueRFgM-316">
          <mxGeometry width="170" height="20" as="geometry" />
        </mxCell>
        <mxCell id="ULyl4YnrpsMmXoueRFgM-318" value="9" style="text;html=1;strokeColor=none;fillColor=none;align=center;verticalAlign=middle;whiteSpace=wrap;rounded=0;pointerEvents=0;fontFamily=Verdana;fontSize=15;fontColor=#006EAF;" vertex="1" parent="ULyl4YnrpsMmXoueRFgM-316">
          <mxGeometry x="165" width="38" height="20" as="geometry" />
        </mxCell>
        <mxCell id="ULyl4YnrpsMmXoueRFgM-327" value="" style="group;pointerEvents=0;fontFamily=Verdana;fontSize=15;fontColor=#000000;fillColor=none;gradientColor=none;" vertex="1" connectable="0" parent="1">
          <mxGeometry x="78.00000000000011" y="346" width="675" height="40" as="geometry" />
        </mxCell>
        <mxCell id="ULyl4YnrpsMmXoueRFgM-328" value="" style="shape=table;startSize=0;container=1;collapsible=0;childLayout=tableLayout;fontSize=16;fontFamily=Verdana;pointerEvents=0;fontColor=#000000;fillColor=none;gradientColor=none;" vertex="1" parent="ULyl4YnrpsMmXoueRFgM-327">
          <mxGeometry width="675" height="40" as="geometry" />
        </mxCell>
        <mxCell id="ULyl4YnrpsMmXoueRFgM-329" value="" style="shape=tableRow;horizontal=0;startSize=0;swimlaneHead=0;swimlaneBody=0;top=0;left=0;bottom=0;right=0;collapsible=0;dropTarget=0;fillColor=none;points=[[0,0.5],[1,0.5]];portConstraint=eastwest;fontSize=16;fontFamily=Verdana;pointerEvents=0;fontColor=#000000;" vertex="1" parent="ULyl4YnrpsMmXoueRFgM-328">
          <mxGeometry width="675" height="40" as="geometry" />
        </mxCell>
        <mxCell id="ULyl4YnrpsMmXoueRFgM-330" value="" style="shape=partialRectangle;html=1;whiteSpace=wrap;connectable=0;overflow=hidden;fillColor=none;top=0;left=0;bottom=0;right=0;pointerEvents=1;fontSize=16;fontFamily=Verdana;fontColor=#000000;" vertex="1" parent="ULyl4YnrpsMmXoueRFgM-329">
          <mxGeometry width="112" height="40" as="geometry">
            <mxRectangle width="112" height="40" as="alternateBounds" />
          </mxGeometry>
        </mxCell>
        <mxCell id="ULyl4YnrpsMmXoueRFgM-331" value="" style="shape=partialRectangle;html=1;whiteSpace=wrap;connectable=0;overflow=hidden;fillColor=none;top=0;left=0;bottom=0;right=0;pointerEvents=1;fontSize=16;fontFamily=Verdana;fontColor=#000000;" vertex="1" parent="ULyl4YnrpsMmXoueRFgM-329">
          <mxGeometry x="112" width="114" height="40" as="geometry">
            <mxRectangle width="114" height="40" as="alternateBounds" />
          </mxGeometry>
        </mxCell>
        <mxCell id="ULyl4YnrpsMmXoueRFgM-332" value="" style="shape=partialRectangle;html=1;whiteSpace=wrap;connectable=0;overflow=hidden;fillColor=none;top=0;left=0;bottom=0;right=0;pointerEvents=1;fontSize=16;fontFamily=Verdana;fontColor=#000000;" vertex="1" parent="ULyl4YnrpsMmXoueRFgM-329">
          <mxGeometry x="226" width="112" height="40" as="geometry">
            <mxRectangle width="112" height="40" as="alternateBounds" />
          </mxGeometry>
        </mxCell>
        <mxCell id="ULyl4YnrpsMmXoueRFgM-333" value="" style="shape=partialRectangle;html=1;whiteSpace=wrap;connectable=0;overflow=hidden;fillColor=none;top=0;left=0;bottom=0;right=0;pointerEvents=1;fontSize=16;fontFamily=Verdana;fontColor=#000000;" vertex="1" parent="ULyl4YnrpsMmXoueRFgM-329">
          <mxGeometry x="338" width="111" height="40" as="geometry">
            <mxRectangle width="111" height="40" as="alternateBounds" />
          </mxGeometry>
        </mxCell>
        <mxCell id="ULyl4YnrpsMmXoueRFgM-334" value="" style="shape=partialRectangle;html=1;whiteSpace=wrap;connectable=0;overflow=hidden;fillColor=none;top=0;left=0;bottom=0;right=0;pointerEvents=1;fontSize=16;fontFamily=Verdana;fontColor=#000000;" vertex="1" parent="ULyl4YnrpsMmXoueRFgM-329">
          <mxGeometry x="449" width="114" height="40" as="geometry">
            <mxRectangle width="114" height="40" as="alternateBounds" />
          </mxGeometry>
        </mxCell>
        <mxCell id="ULyl4YnrpsMmXoueRFgM-335" value="" style="shape=partialRectangle;html=1;whiteSpace=wrap;connectable=0;overflow=hidden;fillColor=none;top=0;left=0;bottom=0;right=0;pointerEvents=1;fontSize=16;fontFamily=Verdana;fontColor=#000000;" vertex="1" parent="ULyl4YnrpsMmXoueRFgM-329">
          <mxGeometry x="563" width="112" height="40" as="geometry">
            <mxRectangle width="112" height="40" as="alternateBounds" />
          </mxGeometry>
        </mxCell>
        <mxCell id="ULyl4YnrpsMmXoueRFgM-336" value="" style="group;pointerEvents=0;fontFamily=Verdana;fontSize=15;fontColor=#000000;fillColor=none;gradientColor=none;" vertex="1" connectable="0" parent="ULyl4YnrpsMmXoueRFgM-327">
          <mxGeometry x="8" y="5" width="659" height="30" as="geometry" />
        </mxCell>
        <mxCell id="ULyl4YnrpsMmXoueRFgM-337" value="0" style="rounded=0;whiteSpace=wrap;html=1;fontSize=16;fontFamily=Verdana;pointerEvents=0;fontColor=#000000;fillColor=none;gradientColor=none;" vertex="1" parent="ULyl4YnrpsMmXoueRFgM-336">
          <mxGeometry width="48" height="30" as="geometry" />
        </mxCell>
        <mxCell id="ULyl4YnrpsMmXoueRFgM-338" value="9" style="rounded=0;whiteSpace=wrap;html=1;fontSize=16;fontFamily=Verdana;pointerEvents=0;fontColor=#000000;fillColor=none;gradientColor=none;" vertex="1" parent="ULyl4YnrpsMmXoueRFgM-336">
          <mxGeometry x="48" width="48" height="30" as="geometry" />
        </mxCell>
        <mxCell id="ULyl4YnrpsMmXoueRFgM-339" value="7" style="rounded=0;whiteSpace=wrap;html=1;fontSize=16;fontFamily=Verdana;pointerEvents=0;fontColor=#000000;fillColor=none;gradientColor=none;" vertex="1" parent="ULyl4YnrpsMmXoueRFgM-336">
          <mxGeometry x="449" width="48" height="30" as="geometry" />
        </mxCell>
        <mxCell id="ULyl4YnrpsMmXoueRFgM-340" value="4" style="rounded=0;whiteSpace=wrap;html=1;fontSize=16;fontFamily=Verdana;pointerEvents=0;fontColor=#000000;fillColor=none;gradientColor=none;" vertex="1" parent="ULyl4YnrpsMmXoueRFgM-336">
          <mxGeometry x="497" width="48" height="30" as="geometry" />
        </mxCell>
        <mxCell id="ULyl4YnrpsMmXoueRFgM-341" value="6" style="rounded=0;whiteSpace=wrap;html=1;fontSize=16;fontFamily=Verdana;pointerEvents=0;fontColor=#000000;fillColor=none;gradientColor=none;" vertex="1" parent="ULyl4YnrpsMmXoueRFgM-336">
          <mxGeometry x="338" width="48" height="30" as="geometry" />
        </mxCell>
        <mxCell id="ULyl4YnrpsMmXoueRFgM-342" value="2" style="rounded=0;whiteSpace=wrap;html=1;fontSize=16;fontFamily=Verdana;pointerEvents=0;fontColor=#000000;fillColor=none;gradientColor=none;" vertex="1" parent="ULyl4YnrpsMmXoueRFgM-336">
          <mxGeometry x="386" width="48" height="30" as="geometry" />
        </mxCell>
        <mxCell id="ULyl4YnrpsMmXoueRFgM-343" value="5" style="rounded=0;whiteSpace=wrap;html=1;fontSize=16;fontFamily=Verdana;pointerEvents=0;fontColor=#000000;fillColor=none;gradientColor=none;" vertex="1" parent="ULyl4YnrpsMmXoueRFgM-336">
          <mxGeometry x="226" width="48" height="30" as="geometry" />
        </mxCell>
        <mxCell id="ULyl4YnrpsMmXoueRFgM-344" value="7" style="rounded=0;whiteSpace=wrap;html=1;fontSize=16;fontFamily=Verdana;pointerEvents=0;fontColor=#000000;fillColor=none;gradientColor=none;" vertex="1" parent="ULyl4YnrpsMmXoueRFgM-336">
          <mxGeometry x="274" width="48" height="30" as="geometry" />
        </mxCell>
        <mxCell id="ULyl4YnrpsMmXoueRFgM-345" value="4" style="rounded=0;whiteSpace=wrap;html=1;fontSize=16;fontFamily=Verdana;pointerEvents=0;fontColor=#000000;fillColor=none;gradientColor=none;" vertex="1" parent="ULyl4YnrpsMmXoueRFgM-336">
          <mxGeometry x="111" width="48" height="30" as="geometry" />
        </mxCell>
        <mxCell id="ULyl4YnrpsMmXoueRFgM-346" value="1" style="rounded=0;whiteSpace=wrap;html=1;fontSize=16;fontFamily=Verdana;pointerEvents=0;fontColor=#000000;fillColor=none;gradientColor=none;" vertex="1" parent="ULyl4YnrpsMmXoueRFgM-336">
          <mxGeometry x="159" width="48" height="30" as="geometry" />
        </mxCell>
        <mxCell id="ULyl4YnrpsMmXoueRFgM-347" value="" style="group;pointerEvents=0;fontFamily=Verdana;fontSize=15;fontColor=#000000;fillColor=none;gradientColor=none;" vertex="1" connectable="0" parent="ULyl4YnrpsMmXoueRFgM-336">
          <mxGeometry x="563" width="96" height="30" as="geometry" />
        </mxCell>
        <mxCell id="ULyl4YnrpsMmXoueRFgM-348" value="10" style="rounded=0;whiteSpace=wrap;html=1;fontSize=16;fontFamily=Verdana;pointerEvents=0;fontColor=#000000;fillColor=none;gradientColor=none;" vertex="1" parent="ULyl4YnrpsMmXoueRFgM-347">
          <mxGeometry width="48" height="30" as="geometry" />
        </mxCell>
        <mxCell id="ULyl4YnrpsMmXoueRFgM-349" value="9" style="rounded=0;whiteSpace=wrap;html=1;fontSize=16;fontFamily=Verdana;pointerEvents=0;fontColor=#000000;fillColor=none;gradientColor=none;" vertex="1" parent="ULyl4YnrpsMmXoueRFgM-347">
          <mxGeometry x="48" width="48" height="30" as="geometry" />
        </mxCell>
        <mxCell id="ULyl4YnrpsMmXoueRFgM-350" value="" style="group;pointerEvents=0;fontFamily=Verdana;fontSize=15;fontColor=#000000;fillColor=none;gradientColor=none;" vertex="1" connectable="0" parent="1">
          <mxGeometry x="78.00000000000011" y="310" width="667" height="20" as="geometry" />
        </mxCell>
        <mxCell id="ULyl4YnrpsMmXoueRFgM-351" value="" style="group;pointerEvents=0;fontFamily=Verdana;fontSize=15;fontColor=#000000;fillColor=none;gradientColor=none;" vertex="1" connectable="0" parent="ULyl4YnrpsMmXoueRFgM-350">
          <mxGeometry width="196" height="20" as="geometry" />
        </mxCell>
        <mxCell id="ULyl4YnrpsMmXoueRFgM-352" value="&lt;span style=&quot;font-size: 10px;&quot;&gt;当前窗口区间所需&lt;b style=&quot;font-size: 10px;&quot;&gt;最小步数：&lt;/b&gt;&lt;/span&gt;" style="text;html=1;strokeColor=none;fillColor=none;align=center;verticalAlign=middle;whiteSpace=wrap;rounded=0;pointerEvents=0;fontFamily=Verdana;fontSize=10;fontColor=#006EAF;" vertex="1" parent="ULyl4YnrpsMmXoueRFgM-351">
          <mxGeometry width="170" height="20" as="geometry" />
        </mxCell>
        <mxCell id="ULyl4YnrpsMmXoueRFgM-353" value="1" style="text;html=1;strokeColor=none;fillColor=none;align=center;verticalAlign=middle;whiteSpace=wrap;rounded=0;pointerEvents=0;fontFamily=Verdana;fontSize=15;fontColor=#006EAF;" vertex="1" parent="ULyl4YnrpsMmXoueRFgM-351">
          <mxGeometry x="158" width="38" height="20" as="geometry" />
        </mxCell>
        <mxCell id="ULyl4YnrpsMmXoueRFgM-354" value="" style="group;pointerEvents=0;fontFamily=Verdana;fontSize=15;fontColor=#000000;fillColor=none;gradientColor=none;" vertex="1" connectable="0" parent="ULyl4YnrpsMmXoueRFgM-350">
          <mxGeometry x="464" width="203" height="20" as="geometry" />
        </mxCell>
        <mxCell id="ULyl4YnrpsMmXoueRFgM-355" value="&lt;span style=&quot;font-size: 10px;&quot;&gt;当前窗口区间采摘水果&lt;/span&gt;&lt;b style=&quot;font-size: 10px;&quot;&gt;数量：&lt;/b&gt;" style="text;html=1;strokeColor=none;fillColor=none;align=center;verticalAlign=middle;whiteSpace=wrap;rounded=0;pointerEvents=0;fontFamily=Verdana;fontSize=10;fontColor=#006EAF;" vertex="1" parent="ULyl4YnrpsMmXoueRFgM-354">
          <mxGeometry width="170" height="20" as="geometry" />
        </mxCell>
        <mxCell id="ULyl4YnrpsMmXoueRFgM-356" value="1" style="text;html=1;strokeColor=none;fillColor=none;align=center;verticalAlign=middle;whiteSpace=wrap;rounded=0;pointerEvents=0;fontFamily=Verdana;fontSize=15;fontColor=#006EAF;" vertex="1" parent="ULyl4YnrpsMmXoueRFgM-354">
          <mxGeometry x="165" width="38" height="20" as="geometry" />
        </mxCell>
        <mxCell id="ULyl4YnrpsMmXoueRFgM-357" value="" style="rounded=0;whiteSpace=wrap;html=1;fontFamily=Lucida Console;fontSize=15;labelBackgroundColor=none;fillColor=#FF99FF;strokeColor=#b85450;opacity=35;pointerEvents=0;fontColor=#000000;" vertex="1" parent="1">
          <mxGeometry x="191.0000000000001" y="338" width="112" height="56" as="geometry" />
        </mxCell>
        <mxCell id="ULyl4YnrpsMmXoueRFgM-358" value="" style="group" vertex="1" connectable="0" parent="1">
          <mxGeometry x="241" y="397" width="60" height="64" as="geometry" />
        </mxCell>
        <mxCell id="ULyl4YnrpsMmXoueRFgM-359" value="" style="endArrow=classic;html=1;rounded=0;fontFamily=Verdana;fontSize=16;strokeWidth=3;strokeColor=#006EAF;" edge="1" parent="ULyl4YnrpsMmXoueRFgM-358">
          <mxGeometry width="50" height="50" relative="1" as="geometry">
            <mxPoint x="30.340000000000003" y="35" as="sourcePoint" />
            <mxPoint x="29.99999999999997" as="targetPoint" />
          </mxGeometry>
        </mxCell>
        <mxCell id="ULyl4YnrpsMmXoueRFgM-360" value="right" style="text;html=1;strokeColor=none;fillColor=none;align=center;verticalAlign=middle;whiteSpace=wrap;rounded=0;fontFamily=Lucida Console;fontSize=15;fontColor=#006EAF;fontStyle=1" vertex="1" parent="ULyl4YnrpsMmXoueRFgM-358">
          <mxGeometry y="34" width="59" height="30" as="geometry" />
        </mxCell>
        <mxCell id="ULyl4YnrpsMmXoueRFgM-361" value="" style="group" vertex="1" connectable="0" parent="1">
          <mxGeometry x="191" y="397" width="60" height="65" as="geometry" />
        </mxCell>
        <mxCell id="ULyl4YnrpsMmXoueRFgM-362" value="" style="endArrow=classic;html=1;rounded=0;fontFamily=Verdana;fontSize=16;strokeWidth=3;strokeColor=#2D7600;" edge="1" parent="ULyl4YnrpsMmXoueRFgM-361">
          <mxGeometry width="50" height="50" relative="1" as="geometry">
            <mxPoint x="30" y="35" as="sourcePoint" />
            <mxPoint x="29.659999999999997" as="targetPoint" />
          </mxGeometry>
        </mxCell>
        <mxCell id="ULyl4YnrpsMmXoueRFgM-363" value="left" style="text;html=1;strokeColor=none;fillColor=none;align=center;verticalAlign=middle;whiteSpace=wrap;rounded=0;fontFamily=Lucida Console;fontSize=15;fontColor=#2D7600;fontStyle=1" vertex="1" parent="ULyl4YnrpsMmXoueRFgM-361">
          <mxGeometry y="35" width="60" height="30" as="geometry" />
        </mxCell>
        <mxCell id="ULyl4YnrpsMmXoueRFgM-379" value="" style="group;pointerEvents=0;fontFamily=Verdana;fontSize=15;fontColor=#000000;fillColor=none;gradientColor=none;" vertex="1" connectable="0" parent="1">
          <mxGeometry x="78" y="508" width="675" height="40" as="geometry" />
        </mxCell>
        <mxCell id="ULyl4YnrpsMmXoueRFgM-380" value="" style="shape=table;startSize=0;container=1;collapsible=0;childLayout=tableLayout;fontSize=16;fontFamily=Verdana;pointerEvents=0;fontColor=#000000;fillColor=none;gradientColor=none;" vertex="1" parent="ULyl4YnrpsMmXoueRFgM-379">
          <mxGeometry width="675" height="40" as="geometry" />
        </mxCell>
        <mxCell id="ULyl4YnrpsMmXoueRFgM-381" value="" style="shape=tableRow;horizontal=0;startSize=0;swimlaneHead=0;swimlaneBody=0;top=0;left=0;bottom=0;right=0;collapsible=0;dropTarget=0;fillColor=none;points=[[0,0.5],[1,0.5]];portConstraint=eastwest;fontSize=16;fontFamily=Verdana;pointerEvents=0;fontColor=#000000;" vertex="1" parent="ULyl4YnrpsMmXoueRFgM-380">
          <mxGeometry width="675" height="40" as="geometry" />
        </mxCell>
        <mxCell id="ULyl4YnrpsMmXoueRFgM-382" value="" style="shape=partialRectangle;html=1;whiteSpace=wrap;connectable=0;overflow=hidden;fillColor=none;top=0;left=0;bottom=0;right=0;pointerEvents=1;fontSize=16;fontFamily=Verdana;fontColor=#000000;" vertex="1" parent="ULyl4YnrpsMmXoueRFgM-381">
          <mxGeometry width="112" height="40" as="geometry">
            <mxRectangle width="112" height="40" as="alternateBounds" />
          </mxGeometry>
        </mxCell>
        <mxCell id="ULyl4YnrpsMmXoueRFgM-383" value="" style="shape=partialRectangle;html=1;whiteSpace=wrap;connectable=0;overflow=hidden;fillColor=none;top=0;left=0;bottom=0;right=0;pointerEvents=1;fontSize=16;fontFamily=Verdana;fontColor=#000000;" vertex="1" parent="ULyl4YnrpsMmXoueRFgM-381">
          <mxGeometry x="112" width="114" height="40" as="geometry">
            <mxRectangle width="114" height="40" as="alternateBounds" />
          </mxGeometry>
        </mxCell>
        <mxCell id="ULyl4YnrpsMmXoueRFgM-384" value="" style="shape=partialRectangle;html=1;whiteSpace=wrap;connectable=0;overflow=hidden;fillColor=none;top=0;left=0;bottom=0;right=0;pointerEvents=1;fontSize=16;fontFamily=Verdana;fontColor=#000000;" vertex="1" parent="ULyl4YnrpsMmXoueRFgM-381">
          <mxGeometry x="226" width="112" height="40" as="geometry">
            <mxRectangle width="112" height="40" as="alternateBounds" />
          </mxGeometry>
        </mxCell>
        <mxCell id="ULyl4YnrpsMmXoueRFgM-385" value="" style="shape=partialRectangle;html=1;whiteSpace=wrap;connectable=0;overflow=hidden;fillColor=none;top=0;left=0;bottom=0;right=0;pointerEvents=1;fontSize=16;fontFamily=Verdana;fontColor=#000000;" vertex="1" parent="ULyl4YnrpsMmXoueRFgM-381">
          <mxGeometry x="338" width="111" height="40" as="geometry">
            <mxRectangle width="111" height="40" as="alternateBounds" />
          </mxGeometry>
        </mxCell>
        <mxCell id="ULyl4YnrpsMmXoueRFgM-386" value="" style="shape=partialRectangle;html=1;whiteSpace=wrap;connectable=0;overflow=hidden;fillColor=none;top=0;left=0;bottom=0;right=0;pointerEvents=1;fontSize=16;fontFamily=Verdana;fontColor=#000000;" vertex="1" parent="ULyl4YnrpsMmXoueRFgM-381">
          <mxGeometry x="449" width="114" height="40" as="geometry">
            <mxRectangle width="114" height="40" as="alternateBounds" />
          </mxGeometry>
        </mxCell>
        <mxCell id="ULyl4YnrpsMmXoueRFgM-387" value="" style="shape=partialRectangle;html=1;whiteSpace=wrap;connectable=0;overflow=hidden;fillColor=none;top=0;left=0;bottom=0;right=0;pointerEvents=1;fontSize=16;fontFamily=Verdana;fontColor=#000000;" vertex="1" parent="ULyl4YnrpsMmXoueRFgM-381">
          <mxGeometry x="563" width="112" height="40" as="geometry">
            <mxRectangle width="112" height="40" as="alternateBounds" />
          </mxGeometry>
        </mxCell>
        <mxCell id="ULyl4YnrpsMmXoueRFgM-388" value="" style="group;pointerEvents=0;fontFamily=Verdana;fontSize=15;fontColor=#000000;fillColor=none;gradientColor=none;" vertex="1" connectable="0" parent="ULyl4YnrpsMmXoueRFgM-379">
          <mxGeometry x="8" y="5" width="659" height="30" as="geometry" />
        </mxCell>
        <mxCell id="ULyl4YnrpsMmXoueRFgM-389" value="0" style="rounded=0;whiteSpace=wrap;html=1;fontSize=16;fontFamily=Verdana;pointerEvents=0;fontColor=#000000;fillColor=none;gradientColor=none;" vertex="1" parent="ULyl4YnrpsMmXoueRFgM-388">
          <mxGeometry width="48" height="30" as="geometry" />
        </mxCell>
        <mxCell id="ULyl4YnrpsMmXoueRFgM-390" value="9" style="rounded=0;whiteSpace=wrap;html=1;fontSize=16;fontFamily=Verdana;pointerEvents=0;fontColor=#000000;fillColor=none;gradientColor=none;" vertex="1" parent="ULyl4YnrpsMmXoueRFgM-388">
          <mxGeometry x="48" width="48" height="30" as="geometry" />
        </mxCell>
        <mxCell id="ULyl4YnrpsMmXoueRFgM-391" value="7" style="rounded=0;whiteSpace=wrap;html=1;fontSize=16;fontFamily=Verdana;pointerEvents=0;fontColor=#000000;fillColor=none;gradientColor=none;" vertex="1" parent="ULyl4YnrpsMmXoueRFgM-388">
          <mxGeometry x="449" width="48" height="30" as="geometry" />
        </mxCell>
        <mxCell id="ULyl4YnrpsMmXoueRFgM-392" value="4" style="rounded=0;whiteSpace=wrap;html=1;fontSize=16;fontFamily=Verdana;pointerEvents=0;fontColor=#000000;fillColor=none;gradientColor=none;" vertex="1" parent="ULyl4YnrpsMmXoueRFgM-388">
          <mxGeometry x="497" width="48" height="30" as="geometry" />
        </mxCell>
        <mxCell id="ULyl4YnrpsMmXoueRFgM-393" value="6" style="rounded=0;whiteSpace=wrap;html=1;fontSize=16;fontFamily=Verdana;pointerEvents=0;fontColor=#000000;fillColor=none;gradientColor=none;" vertex="1" parent="ULyl4YnrpsMmXoueRFgM-388">
          <mxGeometry x="338" width="48" height="30" as="geometry" />
        </mxCell>
        <mxCell id="ULyl4YnrpsMmXoueRFgM-394" value="2" style="rounded=0;whiteSpace=wrap;html=1;fontSize=16;fontFamily=Verdana;pointerEvents=0;fontColor=#000000;fillColor=none;gradientColor=none;" vertex="1" parent="ULyl4YnrpsMmXoueRFgM-388">
          <mxGeometry x="386" width="48" height="30" as="geometry" />
        </mxCell>
        <mxCell id="ULyl4YnrpsMmXoueRFgM-395" value="5" style="rounded=0;whiteSpace=wrap;html=1;fontSize=16;fontFamily=Verdana;pointerEvents=0;fontColor=#000000;fillColor=none;gradientColor=none;" vertex="1" parent="ULyl4YnrpsMmXoueRFgM-388">
          <mxGeometry x="226" width="48" height="30" as="geometry" />
        </mxCell>
        <mxCell id="ULyl4YnrpsMmXoueRFgM-396" value="7" style="rounded=0;whiteSpace=wrap;html=1;fontSize=16;fontFamily=Verdana;pointerEvents=0;fontColor=#000000;fillColor=none;gradientColor=none;" vertex="1" parent="ULyl4YnrpsMmXoueRFgM-388">
          <mxGeometry x="274" width="48" height="30" as="geometry" />
        </mxCell>
        <mxCell id="ULyl4YnrpsMmXoueRFgM-397" value="4" style="rounded=0;whiteSpace=wrap;html=1;fontSize=16;fontFamily=Verdana;pointerEvents=0;fontColor=#000000;fillColor=none;gradientColor=none;" vertex="1" parent="ULyl4YnrpsMmXoueRFgM-388">
          <mxGeometry x="111" width="48" height="30" as="geometry" />
        </mxCell>
        <mxCell id="ULyl4YnrpsMmXoueRFgM-398" value="1" style="rounded=0;whiteSpace=wrap;html=1;fontSize=16;fontFamily=Verdana;pointerEvents=0;fontColor=#000000;fillColor=none;gradientColor=none;" vertex="1" parent="ULyl4YnrpsMmXoueRFgM-388">
          <mxGeometry x="159" width="48" height="30" as="geometry" />
        </mxCell>
        <mxCell id="ULyl4YnrpsMmXoueRFgM-399" value="" style="group;pointerEvents=0;fontFamily=Verdana;fontSize=15;fontColor=#000000;fillColor=none;gradientColor=none;" vertex="1" connectable="0" parent="ULyl4YnrpsMmXoueRFgM-388">
          <mxGeometry x="563" width="96" height="30" as="geometry" />
        </mxCell>
        <mxCell id="ULyl4YnrpsMmXoueRFgM-400" value="10" style="rounded=0;whiteSpace=wrap;html=1;fontSize=16;fontFamily=Verdana;pointerEvents=0;fontColor=#000000;fillColor=none;gradientColor=none;" vertex="1" parent="ULyl4YnrpsMmXoueRFgM-399">
          <mxGeometry width="48" height="30" as="geometry" />
        </mxCell>
        <mxCell id="ULyl4YnrpsMmXoueRFgM-401" value="9" style="rounded=0;whiteSpace=wrap;html=1;fontSize=16;fontFamily=Verdana;pointerEvents=0;fontColor=#000000;fillColor=none;gradientColor=none;" vertex="1" parent="ULyl4YnrpsMmXoueRFgM-399">
          <mxGeometry x="48" width="48" height="30" as="geometry" />
        </mxCell>
        <mxCell id="ULyl4YnrpsMmXoueRFgM-402" value="" style="group;pointerEvents=0;fontFamily=Verdana;fontSize=15;fontColor=#000000;fillColor=none;gradientColor=none;" vertex="1" connectable="0" parent="1">
          <mxGeometry x="78" y="472" width="667" height="20" as="geometry" />
        </mxCell>
        <mxCell id="ULyl4YnrpsMmXoueRFgM-403" value="" style="group;pointerEvents=0;fontFamily=Verdana;fontSize=15;fontColor=#000000;fillColor=none;gradientColor=none;" vertex="1" connectable="0" parent="ULyl4YnrpsMmXoueRFgM-402">
          <mxGeometry width="196" height="20" as="geometry" />
        </mxCell>
        <mxCell id="ULyl4YnrpsMmXoueRFgM-404" value="&lt;span style=&quot;font-size: 10px;&quot;&gt;当前窗口区间所需&lt;b style=&quot;font-size: 10px;&quot;&gt;最小步数：&lt;/b&gt;&lt;/span&gt;" style="text;html=1;strokeColor=none;fillColor=none;align=center;verticalAlign=middle;whiteSpace=wrap;rounded=0;pointerEvents=0;fontFamily=Verdana;fontSize=10;fontColor=#006EAF;" vertex="1" parent="ULyl4YnrpsMmXoueRFgM-403">
          <mxGeometry width="170" height="20" as="geometry" />
        </mxCell>
        <mxCell id="ULyl4YnrpsMmXoueRFgM-405" value="1" style="text;html=1;strokeColor=none;fillColor=none;align=center;verticalAlign=middle;whiteSpace=wrap;rounded=0;pointerEvents=0;fontFamily=Verdana;fontSize=15;fontColor=#006EAF;" vertex="1" parent="ULyl4YnrpsMmXoueRFgM-403">
          <mxGeometry x="158" width="38" height="20" as="geometry" />
        </mxCell>
        <mxCell id="ULyl4YnrpsMmXoueRFgM-406" value="" style="group;pointerEvents=0;fontFamily=Verdana;fontSize=15;fontColor=#000000;fillColor=none;gradientColor=none;" vertex="1" connectable="0" parent="ULyl4YnrpsMmXoueRFgM-402">
          <mxGeometry x="464" width="203" height="20" as="geometry" />
        </mxCell>
        <mxCell id="ULyl4YnrpsMmXoueRFgM-407" value="&lt;span style=&quot;font-size: 10px;&quot;&gt;当前窗口区间采摘水果&lt;/span&gt;&lt;b style=&quot;font-size: 10px;&quot;&gt;数量：&lt;/b&gt;" style="text;html=1;strokeColor=none;fillColor=none;align=center;verticalAlign=middle;whiteSpace=wrap;rounded=0;pointerEvents=0;fontFamily=Verdana;fontSize=10;fontColor=#006EAF;" vertex="1" parent="ULyl4YnrpsMmXoueRFgM-406">
          <mxGeometry width="170" height="20" as="geometry" />
        </mxCell>
        <mxCell id="ULyl4YnrpsMmXoueRFgM-408" value="8" style="text;html=1;strokeColor=none;fillColor=none;align=center;verticalAlign=middle;whiteSpace=wrap;rounded=0;pointerEvents=0;fontFamily=Verdana;fontSize=15;fontColor=#006EAF;" vertex="1" parent="ULyl4YnrpsMmXoueRFgM-406">
          <mxGeometry x="165" width="38" height="20" as="geometry" />
        </mxCell>
        <mxCell id="ULyl4YnrpsMmXoueRFgM-409" value="" style="rounded=0;whiteSpace=wrap;html=1;fontFamily=Lucida Console;fontSize=15;labelBackgroundColor=none;fillColor=#FF99FF;strokeColor=#b85450;opacity=35;pointerEvents=0;fontColor=#000000;" vertex="1" parent="1">
          <mxGeometry x="191" y="500" width="226" height="56" as="geometry" />
        </mxCell>
        <mxCell id="ULyl4YnrpsMmXoueRFgM-410" value="" style="group;pointerEvents=0;fontFamily=Verdana;fontSize=15;fontColor=#000000;fillColor=none;gradientColor=none;" vertex="1" connectable="0" parent="1">
          <mxGeometry x="217.0000000000001" y="560" width="60" height="65" as="geometry" />
        </mxCell>
        <mxCell id="ULyl4YnrpsMmXoueRFgM-411" value="" style="endArrow=classic;html=1;rounded=0;fontFamily=Verdana;fontSize=16;strokeWidth=3;strokeColor=#2D7600;fontColor=#000000;" edge="1" parent="ULyl4YnrpsMmXoueRFgM-410">
          <mxGeometry width="50" height="50" relative="1" as="geometry">
            <mxPoint x="30" y="35" as="sourcePoint" />
            <mxPoint x="29.659999999999997" as="targetPoint" />
          </mxGeometry>
        </mxCell>
        <mxCell id="ULyl4YnrpsMmXoueRFgM-412" value="left" style="text;html=1;strokeColor=none;fillColor=none;align=center;verticalAlign=middle;whiteSpace=wrap;rounded=0;fontFamily=Lucida Console;fontSize=15;fontColor=#2D7600;fontStyle=1;pointerEvents=0;" vertex="1" parent="ULyl4YnrpsMmXoueRFgM-410">
          <mxGeometry y="35" width="60" height="30" as="geometry" />
        </mxCell>
        <mxCell id="ULyl4YnrpsMmXoueRFgM-413" value="" style="group;pointerEvents=0;fontFamily=Verdana;fontSize=15;fontColor=#000000;fillColor=none;gradientColor=none;" vertex="1" connectable="0" parent="1">
          <mxGeometry x="330.0000000000001" y="560" width="60" height="64" as="geometry" />
        </mxCell>
        <mxCell id="ULyl4YnrpsMmXoueRFgM-414" value="" style="endArrow=classic;html=1;rounded=0;fontFamily=Verdana;fontSize=16;strokeWidth=3;strokeColor=#006EAF;fontColor=#000000;" edge="1" parent="ULyl4YnrpsMmXoueRFgM-413">
          <mxGeometry width="50" height="50" relative="1" as="geometry">
            <mxPoint x="30.340000000000003" y="35" as="sourcePoint" />
            <mxPoint x="29.99999999999997" as="targetPoint" />
          </mxGeometry>
        </mxCell>
        <mxCell id="ULyl4YnrpsMmXoueRFgM-415" value="right" style="text;html=1;strokeColor=none;fillColor=none;align=center;verticalAlign=middle;whiteSpace=wrap;rounded=0;fontFamily=Lucida Console;fontSize=15;fontColor=#006EAF;fontStyle=1;pointerEvents=0;" vertex="1" parent="ULyl4YnrpsMmXoueRFgM-413">
          <mxGeometry y="34" width="59" height="30" as="geometry" />
        </mxCell>
        <mxCell id="ULyl4YnrpsMmXoueRFgM-416" value="" style="group;pointerEvents=0;fontFamily=Verdana;fontSize=15;fontColor=#000000;fillColor=none;gradientColor=none;" vertex="1" connectable="0" parent="1">
          <mxGeometry x="78" y="670" width="675" height="40" as="geometry" />
        </mxCell>
        <mxCell id="ULyl4YnrpsMmXoueRFgM-417" value="" style="shape=table;startSize=0;container=1;collapsible=0;childLayout=tableLayout;fontSize=16;fontFamily=Verdana;pointerEvents=0;fontColor=#000000;fillColor=none;gradientColor=none;" vertex="1" parent="ULyl4YnrpsMmXoueRFgM-416">
          <mxGeometry width="675" height="40" as="geometry" />
        </mxCell>
        <mxCell id="ULyl4YnrpsMmXoueRFgM-418" value="" style="shape=tableRow;horizontal=0;startSize=0;swimlaneHead=0;swimlaneBody=0;top=0;left=0;bottom=0;right=0;collapsible=0;dropTarget=0;fillColor=none;points=[[0,0.5],[1,0.5]];portConstraint=eastwest;fontSize=16;fontFamily=Verdana;pointerEvents=0;fontColor=#000000;" vertex="1" parent="ULyl4YnrpsMmXoueRFgM-417">
          <mxGeometry width="675" height="40" as="geometry" />
        </mxCell>
        <mxCell id="ULyl4YnrpsMmXoueRFgM-419" value="" style="shape=partialRectangle;html=1;whiteSpace=wrap;connectable=0;overflow=hidden;fillColor=none;top=0;left=0;bottom=0;right=0;pointerEvents=1;fontSize=16;fontFamily=Verdana;fontColor=#000000;" vertex="1" parent="ULyl4YnrpsMmXoueRFgM-418">
          <mxGeometry width="112" height="40" as="geometry">
            <mxRectangle width="112" height="40" as="alternateBounds" />
          </mxGeometry>
        </mxCell>
        <mxCell id="ULyl4YnrpsMmXoueRFgM-420" value="" style="shape=partialRectangle;html=1;whiteSpace=wrap;connectable=0;overflow=hidden;fillColor=none;top=0;left=0;bottom=0;right=0;pointerEvents=1;fontSize=16;fontFamily=Verdana;fontColor=#000000;" vertex="1" parent="ULyl4YnrpsMmXoueRFgM-418">
          <mxGeometry x="112" width="114" height="40" as="geometry">
            <mxRectangle width="114" height="40" as="alternateBounds" />
          </mxGeometry>
        </mxCell>
        <mxCell id="ULyl4YnrpsMmXoueRFgM-421" value="" style="shape=partialRectangle;html=1;whiteSpace=wrap;connectable=0;overflow=hidden;fillColor=none;top=0;left=0;bottom=0;right=0;pointerEvents=1;fontSize=16;fontFamily=Verdana;fontColor=#000000;" vertex="1" parent="ULyl4YnrpsMmXoueRFgM-418">
          <mxGeometry x="226" width="112" height="40" as="geometry">
            <mxRectangle width="112" height="40" as="alternateBounds" />
          </mxGeometry>
        </mxCell>
        <mxCell id="ULyl4YnrpsMmXoueRFgM-422" value="" style="shape=partialRectangle;html=1;whiteSpace=wrap;connectable=0;overflow=hidden;fillColor=none;top=0;left=0;bottom=0;right=0;pointerEvents=1;fontSize=16;fontFamily=Verdana;fontColor=#000000;" vertex="1" parent="ULyl4YnrpsMmXoueRFgM-418">
          <mxGeometry x="338" width="111" height="40" as="geometry">
            <mxRectangle width="111" height="40" as="alternateBounds" />
          </mxGeometry>
        </mxCell>
        <mxCell id="ULyl4YnrpsMmXoueRFgM-423" value="" style="shape=partialRectangle;html=1;whiteSpace=wrap;connectable=0;overflow=hidden;fillColor=none;top=0;left=0;bottom=0;right=0;pointerEvents=1;fontSize=16;fontFamily=Verdana;fontColor=#000000;" vertex="1" parent="ULyl4YnrpsMmXoueRFgM-418">
          <mxGeometry x="449" width="114" height="40" as="geometry">
            <mxRectangle width="114" height="40" as="alternateBounds" />
          </mxGeometry>
        </mxCell>
        <mxCell id="ULyl4YnrpsMmXoueRFgM-424" value="" style="shape=partialRectangle;html=1;whiteSpace=wrap;connectable=0;overflow=hidden;fillColor=none;top=0;left=0;bottom=0;right=0;pointerEvents=1;fontSize=16;fontFamily=Verdana;fontColor=#000000;" vertex="1" parent="ULyl4YnrpsMmXoueRFgM-418">
          <mxGeometry x="563" width="112" height="40" as="geometry">
            <mxRectangle width="112" height="40" as="alternateBounds" />
          </mxGeometry>
        </mxCell>
        <mxCell id="ULyl4YnrpsMmXoueRFgM-425" value="" style="group;pointerEvents=0;fontFamily=Verdana;fontSize=15;fontColor=#000000;fillColor=none;gradientColor=none;" vertex="1" connectable="0" parent="ULyl4YnrpsMmXoueRFgM-416">
          <mxGeometry x="8" y="5" width="659" height="30" as="geometry" />
        </mxCell>
        <mxCell id="ULyl4YnrpsMmXoueRFgM-426" value="0" style="rounded=0;whiteSpace=wrap;html=1;fontSize=16;fontFamily=Verdana;pointerEvents=0;fontColor=#000000;fillColor=none;gradientColor=none;" vertex="1" parent="ULyl4YnrpsMmXoueRFgM-425">
          <mxGeometry width="48" height="30" as="geometry" />
        </mxCell>
        <mxCell id="ULyl4YnrpsMmXoueRFgM-427" value="9" style="rounded=0;whiteSpace=wrap;html=1;fontSize=16;fontFamily=Verdana;pointerEvents=0;fontColor=#000000;fillColor=none;gradientColor=none;" vertex="1" parent="ULyl4YnrpsMmXoueRFgM-425">
          <mxGeometry x="48" width="48" height="30" as="geometry" />
        </mxCell>
        <mxCell id="ULyl4YnrpsMmXoueRFgM-428" value="7" style="rounded=0;whiteSpace=wrap;html=1;fontSize=16;fontFamily=Verdana;pointerEvents=0;fontColor=#000000;fillColor=none;gradientColor=none;" vertex="1" parent="ULyl4YnrpsMmXoueRFgM-425">
          <mxGeometry x="449" width="48" height="30" as="geometry" />
        </mxCell>
        <mxCell id="ULyl4YnrpsMmXoueRFgM-429" value="4" style="rounded=0;whiteSpace=wrap;html=1;fontSize=16;fontFamily=Verdana;pointerEvents=0;fontColor=#000000;fillColor=none;gradientColor=none;" vertex="1" parent="ULyl4YnrpsMmXoueRFgM-425">
          <mxGeometry x="497" width="48" height="30" as="geometry" />
        </mxCell>
        <mxCell id="ULyl4YnrpsMmXoueRFgM-430" value="6" style="rounded=0;whiteSpace=wrap;html=1;fontSize=16;fontFamily=Verdana;pointerEvents=0;fontColor=#000000;fillColor=none;gradientColor=none;" vertex="1" parent="ULyl4YnrpsMmXoueRFgM-425">
          <mxGeometry x="338" width="48" height="30" as="geometry" />
        </mxCell>
        <mxCell id="ULyl4YnrpsMmXoueRFgM-431" value="2" style="rounded=0;whiteSpace=wrap;html=1;fontSize=16;fontFamily=Verdana;pointerEvents=0;fontColor=#000000;fillColor=none;gradientColor=none;" vertex="1" parent="ULyl4YnrpsMmXoueRFgM-425">
          <mxGeometry x="386" width="48" height="30" as="geometry" />
        </mxCell>
        <mxCell id="ULyl4YnrpsMmXoueRFgM-432" value="5" style="rounded=0;whiteSpace=wrap;html=1;fontSize=16;fontFamily=Verdana;pointerEvents=0;fontColor=#000000;fillColor=none;gradientColor=none;" vertex="1" parent="ULyl4YnrpsMmXoueRFgM-425">
          <mxGeometry x="226" width="48" height="30" as="geometry" />
        </mxCell>
        <mxCell id="ULyl4YnrpsMmXoueRFgM-433" value="7" style="rounded=0;whiteSpace=wrap;html=1;fontSize=16;fontFamily=Verdana;pointerEvents=0;fontColor=#000000;fillColor=none;gradientColor=none;" vertex="1" parent="ULyl4YnrpsMmXoueRFgM-425">
          <mxGeometry x="274" width="48" height="30" as="geometry" />
        </mxCell>
        <mxCell id="ULyl4YnrpsMmXoueRFgM-434" value="4" style="rounded=0;whiteSpace=wrap;html=1;fontSize=16;fontFamily=Verdana;pointerEvents=0;fontColor=#000000;fillColor=none;gradientColor=none;" vertex="1" parent="ULyl4YnrpsMmXoueRFgM-425">
          <mxGeometry x="111" width="48" height="30" as="geometry" />
        </mxCell>
        <mxCell id="ULyl4YnrpsMmXoueRFgM-435" value="1" style="rounded=0;whiteSpace=wrap;html=1;fontSize=16;fontFamily=Verdana;pointerEvents=0;fontColor=#000000;fillColor=none;gradientColor=none;" vertex="1" parent="ULyl4YnrpsMmXoueRFgM-425">
          <mxGeometry x="159" width="48" height="30" as="geometry" />
        </mxCell>
        <mxCell id="ULyl4YnrpsMmXoueRFgM-436" value="" style="group;pointerEvents=0;fontFamily=Verdana;fontSize=15;fontColor=#000000;fillColor=none;gradientColor=none;" vertex="1" connectable="0" parent="ULyl4YnrpsMmXoueRFgM-425">
          <mxGeometry x="563" width="96" height="30" as="geometry" />
        </mxCell>
        <mxCell id="ULyl4YnrpsMmXoueRFgM-437" value="10" style="rounded=0;whiteSpace=wrap;html=1;fontSize=16;fontFamily=Verdana;pointerEvents=0;fontColor=#000000;fillColor=none;gradientColor=none;" vertex="1" parent="ULyl4YnrpsMmXoueRFgM-436">
          <mxGeometry width="48" height="30" as="geometry" />
        </mxCell>
        <mxCell id="ULyl4YnrpsMmXoueRFgM-438" value="9" style="rounded=0;whiteSpace=wrap;html=1;fontSize=16;fontFamily=Verdana;pointerEvents=0;fontColor=#000000;fillColor=none;gradientColor=none;" vertex="1" parent="ULyl4YnrpsMmXoueRFgM-436">
          <mxGeometry x="48" width="48" height="30" as="geometry" />
        </mxCell>
        <mxCell id="ULyl4YnrpsMmXoueRFgM-439" value="" style="group;pointerEvents=0;fontFamily=Verdana;fontSize=15;fontColor=#000000;fillColor=none;gradientColor=none;" vertex="1" connectable="0" parent="1">
          <mxGeometry x="78" y="634" width="667" height="20" as="geometry" />
        </mxCell>
        <mxCell id="ULyl4YnrpsMmXoueRFgM-440" value="" style="group;pointerEvents=0;fontFamily=Verdana;fontSize=15;fontColor=#000000;fillColor=none;gradientColor=none;" vertex="1" connectable="0" parent="ULyl4YnrpsMmXoueRFgM-439">
          <mxGeometry width="196" height="20" as="geometry" />
        </mxCell>
        <mxCell id="ULyl4YnrpsMmXoueRFgM-441" value="&lt;span style=&quot;font-size: 10px;&quot;&gt;当前窗口区间所需&lt;b style=&quot;font-size: 10px;&quot;&gt;最小步数：&lt;/b&gt;&lt;/span&gt;" style="text;html=1;strokeColor=none;fillColor=none;align=center;verticalAlign=middle;whiteSpace=wrap;rounded=0;pointerEvents=0;fontFamily=Verdana;fontSize=10;fontColor=#006EAF;" vertex="1" parent="ULyl4YnrpsMmXoueRFgM-440">
          <mxGeometry width="170" height="20" as="geometry" />
        </mxCell>
        <mxCell id="ULyl4YnrpsMmXoueRFgM-442" value="3" style="text;html=1;strokeColor=none;fillColor=none;align=center;verticalAlign=middle;whiteSpace=wrap;rounded=0;pointerEvents=0;fontFamily=Verdana;fontSize=15;fontColor=#006EAF;" vertex="1" parent="ULyl4YnrpsMmXoueRFgM-440">
          <mxGeometry x="158" width="38" height="20" as="geometry" />
        </mxCell>
        <mxCell id="ULyl4YnrpsMmXoueRFgM-443" value="" style="group;pointerEvents=0;fontFamily=Verdana;fontSize=15;fontColor=#000000;fillColor=none;gradientColor=none;" vertex="1" connectable="0" parent="ULyl4YnrpsMmXoueRFgM-439">
          <mxGeometry x="464" width="203" height="20" as="geometry" />
        </mxCell>
        <mxCell id="ULyl4YnrpsMmXoueRFgM-444" value="&lt;span style=&quot;font-size: 10px;&quot;&gt;当前窗口区间采摘水果&lt;/span&gt;&lt;b style=&quot;font-size: 10px;&quot;&gt;数量：&lt;/b&gt;" style="text;html=1;strokeColor=none;fillColor=none;align=center;verticalAlign=middle;whiteSpace=wrap;rounded=0;pointerEvents=0;fontFamily=Verdana;fontSize=10;fontColor=#006EAF;" vertex="1" parent="ULyl4YnrpsMmXoueRFgM-443">
          <mxGeometry width="170" height="20" as="geometry" />
        </mxCell>
        <mxCell id="ULyl4YnrpsMmXoueRFgM-445" value="10" style="text;html=1;strokeColor=none;fillColor=none;align=center;verticalAlign=middle;whiteSpace=wrap;rounded=0;pointerEvents=0;fontFamily=Verdana;fontSize=15;fontColor=#006EAF;" vertex="1" parent="ULyl4YnrpsMmXoueRFgM-443">
          <mxGeometry x="165" width="38" height="20" as="geometry" />
        </mxCell>
        <mxCell id="ULyl4YnrpsMmXoueRFgM-447" value="" style="rounded=0;whiteSpace=wrap;html=1;fontFamily=Lucida Console;fontSize=15;labelBackgroundColor=none;fillColor=#FF99FF;strokeColor=#b85450;opacity=35;pointerEvents=0;fontColor=#000000;" vertex="1" parent="1">
          <mxGeometry x="191" y="662" width="336" height="56" as="geometry" />
        </mxCell>
        <mxCell id="ULyl4YnrpsMmXoueRFgM-448" value="" style="group;pointerEvents=0;fontFamily=Verdana;fontSize=15;fontColor=#000000;fillColor=none;gradientColor=none;" vertex="1" connectable="0" parent="1">
          <mxGeometry x="217.0000000000001" y="723" width="60" height="65" as="geometry" />
        </mxCell>
        <mxCell id="ULyl4YnrpsMmXoueRFgM-449" value="" style="endArrow=classic;html=1;rounded=0;fontFamily=Verdana;fontSize=16;strokeWidth=3;strokeColor=#2D7600;fontColor=#000000;" edge="1" parent="ULyl4YnrpsMmXoueRFgM-448">
          <mxGeometry width="50" height="50" relative="1" as="geometry">
            <mxPoint x="30" y="35" as="sourcePoint" />
            <mxPoint x="29.659999999999997" as="targetPoint" />
          </mxGeometry>
        </mxCell>
        <mxCell id="ULyl4YnrpsMmXoueRFgM-450" value="left" style="text;html=1;strokeColor=none;fillColor=none;align=center;verticalAlign=middle;whiteSpace=wrap;rounded=0;fontFamily=Lucida Console;fontSize=15;fontColor=#2D7600;fontStyle=1;pointerEvents=0;" vertex="1" parent="ULyl4YnrpsMmXoueRFgM-448">
          <mxGeometry y="35" width="60" height="30" as="geometry" />
        </mxCell>
        <mxCell id="ULyl4YnrpsMmXoueRFgM-451" value="" style="group;pointerEvents=0;fontFamily=Verdana;fontSize=15;fontColor=#000000;fillColor=none;gradientColor=none;" vertex="1" connectable="0" parent="1">
          <mxGeometry x="442.0000000000001" y="723" width="60" height="64" as="geometry" />
        </mxCell>
        <mxCell id="ULyl4YnrpsMmXoueRFgM-452" value="" style="endArrow=classic;html=1;rounded=0;fontFamily=Verdana;fontSize=16;strokeWidth=3;strokeColor=#006EAF;fontColor=#000000;" edge="1" parent="ULyl4YnrpsMmXoueRFgM-451">
          <mxGeometry width="50" height="50" relative="1" as="geometry">
            <mxPoint x="30.340000000000003" y="35" as="sourcePoint" />
            <mxPoint x="29.99999999999997" as="targetPoint" />
          </mxGeometry>
        </mxCell>
        <mxCell id="ULyl4YnrpsMmXoueRFgM-453" value="right" style="text;html=1;strokeColor=none;fillColor=none;align=center;verticalAlign=middle;whiteSpace=wrap;rounded=0;fontFamily=Lucida Console;fontSize=15;fontColor=#006EAF;fontStyle=1;pointerEvents=0;" vertex="1" parent="ULyl4YnrpsMmXoueRFgM-451">
          <mxGeometry y="34" width="59" height="30" as="geometry" />
        </mxCell>
        <mxCell id="ULyl4YnrpsMmXoueRFgM-454" value="" style="group;pointerEvents=0;fontFamily=Verdana;fontSize=15;fontColor=#000000;fillColor=none;gradientColor=none;" vertex="1" connectable="0" parent="1">
          <mxGeometry x="78" y="836" width="675" height="40" as="geometry" />
        </mxCell>
        <mxCell id="ULyl4YnrpsMmXoueRFgM-455" value="" style="shape=table;startSize=0;container=1;collapsible=0;childLayout=tableLayout;fontSize=16;fontFamily=Verdana;pointerEvents=0;fontColor=#000000;fillColor=none;gradientColor=none;" vertex="1" parent="ULyl4YnrpsMmXoueRFgM-454">
          <mxGeometry width="675" height="40" as="geometry" />
        </mxCell>
        <mxCell id="ULyl4YnrpsMmXoueRFgM-456" value="" style="shape=tableRow;horizontal=0;startSize=0;swimlaneHead=0;swimlaneBody=0;top=0;left=0;bottom=0;right=0;collapsible=0;dropTarget=0;fillColor=none;points=[[0,0.5],[1,0.5]];portConstraint=eastwest;fontSize=16;fontFamily=Verdana;pointerEvents=0;fontColor=#000000;" vertex="1" parent="ULyl4YnrpsMmXoueRFgM-455">
          <mxGeometry width="675" height="40" as="geometry" />
        </mxCell>
        <mxCell id="ULyl4YnrpsMmXoueRFgM-457" value="" style="shape=partialRectangle;html=1;whiteSpace=wrap;connectable=0;overflow=hidden;fillColor=none;top=0;left=0;bottom=0;right=0;pointerEvents=1;fontSize=16;fontFamily=Verdana;fontColor=#000000;" vertex="1" parent="ULyl4YnrpsMmXoueRFgM-456">
          <mxGeometry width="112" height="40" as="geometry">
            <mxRectangle width="112" height="40" as="alternateBounds" />
          </mxGeometry>
        </mxCell>
        <mxCell id="ULyl4YnrpsMmXoueRFgM-458" value="" style="shape=partialRectangle;html=1;whiteSpace=wrap;connectable=0;overflow=hidden;fillColor=none;top=0;left=0;bottom=0;right=0;pointerEvents=1;fontSize=16;fontFamily=Verdana;fontColor=#000000;" vertex="1" parent="ULyl4YnrpsMmXoueRFgM-456">
          <mxGeometry x="112" width="114" height="40" as="geometry">
            <mxRectangle width="114" height="40" as="alternateBounds" />
          </mxGeometry>
        </mxCell>
        <mxCell id="ULyl4YnrpsMmXoueRFgM-459" value="" style="shape=partialRectangle;html=1;whiteSpace=wrap;connectable=0;overflow=hidden;fillColor=none;top=0;left=0;bottom=0;right=0;pointerEvents=1;fontSize=16;fontFamily=Verdana;fontColor=#000000;" vertex="1" parent="ULyl4YnrpsMmXoueRFgM-456">
          <mxGeometry x="226" width="112" height="40" as="geometry">
            <mxRectangle width="112" height="40" as="alternateBounds" />
          </mxGeometry>
        </mxCell>
        <mxCell id="ULyl4YnrpsMmXoueRFgM-460" value="" style="shape=partialRectangle;html=1;whiteSpace=wrap;connectable=0;overflow=hidden;fillColor=none;top=0;left=0;bottom=0;right=0;pointerEvents=1;fontSize=16;fontFamily=Verdana;fontColor=#000000;" vertex="1" parent="ULyl4YnrpsMmXoueRFgM-456">
          <mxGeometry x="338" width="111" height="40" as="geometry">
            <mxRectangle width="111" height="40" as="alternateBounds" />
          </mxGeometry>
        </mxCell>
        <mxCell id="ULyl4YnrpsMmXoueRFgM-461" value="" style="shape=partialRectangle;html=1;whiteSpace=wrap;connectable=0;overflow=hidden;fillColor=none;top=0;left=0;bottom=0;right=0;pointerEvents=1;fontSize=16;fontFamily=Verdana;fontColor=#000000;" vertex="1" parent="ULyl4YnrpsMmXoueRFgM-456">
          <mxGeometry x="449" width="114" height="40" as="geometry">
            <mxRectangle width="114" height="40" as="alternateBounds" />
          </mxGeometry>
        </mxCell>
        <mxCell id="ULyl4YnrpsMmXoueRFgM-462" value="" style="shape=partialRectangle;html=1;whiteSpace=wrap;connectable=0;overflow=hidden;fillColor=none;top=0;left=0;bottom=0;right=0;pointerEvents=1;fontSize=16;fontFamily=Verdana;fontColor=#000000;" vertex="1" parent="ULyl4YnrpsMmXoueRFgM-456">
          <mxGeometry x="563" width="112" height="40" as="geometry">
            <mxRectangle width="112" height="40" as="alternateBounds" />
          </mxGeometry>
        </mxCell>
        <mxCell id="ULyl4YnrpsMmXoueRFgM-463" value="" style="group;pointerEvents=0;fontFamily=Verdana;fontSize=15;fontColor=#000000;fillColor=none;gradientColor=none;" vertex="1" connectable="0" parent="ULyl4YnrpsMmXoueRFgM-454">
          <mxGeometry x="8" y="5" width="659" height="30" as="geometry" />
        </mxCell>
        <mxCell id="ULyl4YnrpsMmXoueRFgM-464" value="0" style="rounded=0;whiteSpace=wrap;html=1;fontSize=16;fontFamily=Verdana;pointerEvents=0;fontColor=#000000;fillColor=none;gradientColor=none;" vertex="1" parent="ULyl4YnrpsMmXoueRFgM-463">
          <mxGeometry width="48" height="30" as="geometry" />
        </mxCell>
        <mxCell id="ULyl4YnrpsMmXoueRFgM-465" value="9" style="rounded=0;whiteSpace=wrap;html=1;fontSize=16;fontFamily=Verdana;pointerEvents=0;fontColor=#000000;fillColor=none;gradientColor=none;" vertex="1" parent="ULyl4YnrpsMmXoueRFgM-463">
          <mxGeometry x="48" width="48" height="30" as="geometry" />
        </mxCell>
        <mxCell id="ULyl4YnrpsMmXoueRFgM-466" value="7" style="rounded=0;whiteSpace=wrap;html=1;fontSize=16;fontFamily=Verdana;pointerEvents=0;fontColor=#000000;fillColor=none;gradientColor=none;" vertex="1" parent="ULyl4YnrpsMmXoueRFgM-463">
          <mxGeometry x="449" width="48" height="30" as="geometry" />
        </mxCell>
        <mxCell id="ULyl4YnrpsMmXoueRFgM-467" value="4" style="rounded=0;whiteSpace=wrap;html=1;fontSize=16;fontFamily=Verdana;pointerEvents=0;fontColor=#000000;fillColor=none;gradientColor=none;" vertex="1" parent="ULyl4YnrpsMmXoueRFgM-463">
          <mxGeometry x="497" width="48" height="30" as="geometry" />
        </mxCell>
        <mxCell id="ULyl4YnrpsMmXoueRFgM-468" value="6" style="rounded=0;whiteSpace=wrap;html=1;fontSize=16;fontFamily=Verdana;pointerEvents=0;fontColor=#000000;fillColor=none;gradientColor=none;" vertex="1" parent="ULyl4YnrpsMmXoueRFgM-463">
          <mxGeometry x="338" width="48" height="30" as="geometry" />
        </mxCell>
        <mxCell id="ULyl4YnrpsMmXoueRFgM-469" value="2" style="rounded=0;whiteSpace=wrap;html=1;fontSize=16;fontFamily=Verdana;pointerEvents=0;fontColor=#000000;fillColor=none;gradientColor=none;" vertex="1" parent="ULyl4YnrpsMmXoueRFgM-463">
          <mxGeometry x="386" width="48" height="30" as="geometry" />
        </mxCell>
        <mxCell id="ULyl4YnrpsMmXoueRFgM-470" value="5" style="rounded=0;whiteSpace=wrap;html=1;fontSize=16;fontFamily=Verdana;pointerEvents=0;fontColor=#000000;fillColor=none;gradientColor=none;" vertex="1" parent="ULyl4YnrpsMmXoueRFgM-463">
          <mxGeometry x="226" width="48" height="30" as="geometry" />
        </mxCell>
        <mxCell id="ULyl4YnrpsMmXoueRFgM-471" value="7" style="rounded=0;whiteSpace=wrap;html=1;fontSize=16;fontFamily=Verdana;pointerEvents=0;fontColor=#000000;fillColor=none;gradientColor=none;" vertex="1" parent="ULyl4YnrpsMmXoueRFgM-463">
          <mxGeometry x="274" width="48" height="30" as="geometry" />
        </mxCell>
        <mxCell id="ULyl4YnrpsMmXoueRFgM-472" value="4" style="rounded=0;whiteSpace=wrap;html=1;fontSize=16;fontFamily=Verdana;pointerEvents=0;fontColor=#000000;fillColor=none;gradientColor=none;" vertex="1" parent="ULyl4YnrpsMmXoueRFgM-463">
          <mxGeometry x="111" width="48" height="30" as="geometry" />
        </mxCell>
        <mxCell id="ULyl4YnrpsMmXoueRFgM-473" value="1" style="rounded=0;whiteSpace=wrap;html=1;fontSize=16;fontFamily=Verdana;pointerEvents=0;fontColor=#000000;fillColor=none;gradientColor=none;" vertex="1" parent="ULyl4YnrpsMmXoueRFgM-463">
          <mxGeometry x="159" width="48" height="30" as="geometry" />
        </mxCell>
        <mxCell id="ULyl4YnrpsMmXoueRFgM-474" value="" style="group;pointerEvents=0;fontFamily=Verdana;fontSize=15;fontColor=#000000;fillColor=none;gradientColor=none;" vertex="1" connectable="0" parent="ULyl4YnrpsMmXoueRFgM-463">
          <mxGeometry x="563" width="96" height="30" as="geometry" />
        </mxCell>
        <mxCell id="ULyl4YnrpsMmXoueRFgM-475" value="10" style="rounded=0;whiteSpace=wrap;html=1;fontSize=16;fontFamily=Verdana;pointerEvents=0;fontColor=#000000;fillColor=none;gradientColor=none;" vertex="1" parent="ULyl4YnrpsMmXoueRFgM-474">
          <mxGeometry width="48" height="30" as="geometry" />
        </mxCell>
        <mxCell id="ULyl4YnrpsMmXoueRFgM-476" value="9" style="rounded=0;whiteSpace=wrap;html=1;fontSize=16;fontFamily=Verdana;pointerEvents=0;fontColor=#000000;fillColor=none;gradientColor=none;" vertex="1" parent="ULyl4YnrpsMmXoueRFgM-474">
          <mxGeometry x="48" width="48" height="30" as="geometry" />
        </mxCell>
        <mxCell id="ULyl4YnrpsMmXoueRFgM-477" value="" style="group;pointerEvents=0;fontFamily=Verdana;fontSize=15;fontColor=#000000;fillColor=none;gradientColor=none;" vertex="1" connectable="0" parent="1">
          <mxGeometry x="78" y="800" width="667" height="20" as="geometry" />
        </mxCell>
        <mxCell id="ULyl4YnrpsMmXoueRFgM-478" value="" style="group;pointerEvents=0;fontFamily=Verdana;fontSize=15;fontColor=#000000;fillColor=none;gradientColor=none;" vertex="1" connectable="0" parent="ULyl4YnrpsMmXoueRFgM-477">
          <mxGeometry width="196" height="20" as="geometry" />
        </mxCell>
        <mxCell id="ULyl4YnrpsMmXoueRFgM-479" value="&lt;span style=&quot;font-size: 10px;&quot;&gt;当前窗口区间所需&lt;b style=&quot;font-size: 10px;&quot;&gt;最小步数：&lt;/b&gt;&lt;/span&gt;" style="text;html=1;strokeColor=none;fillColor=none;align=center;verticalAlign=middle;whiteSpace=wrap;rounded=0;pointerEvents=0;fontFamily=Verdana;fontSize=10;fontColor=#006EAF;" vertex="1" parent="ULyl4YnrpsMmXoueRFgM-478">
          <mxGeometry width="170" height="20" as="geometry" />
        </mxCell>
        <mxCell id="ULyl4YnrpsMmXoueRFgM-480" value="4" style="text;html=1;strokeColor=none;fillColor=none;align=center;verticalAlign=middle;whiteSpace=wrap;rounded=0;pointerEvents=0;fontFamily=Verdana;fontSize=15;fontColor=#006EAF;" vertex="1" parent="ULyl4YnrpsMmXoueRFgM-478">
          <mxGeometry x="158" width="38" height="20" as="geometry" />
        </mxCell>
        <mxCell id="ULyl4YnrpsMmXoueRFgM-481" value="" style="group;pointerEvents=0;fontFamily=Verdana;fontSize=15;fontColor=#000000;fillColor=none;gradientColor=none;" vertex="1" connectable="0" parent="ULyl4YnrpsMmXoueRFgM-477">
          <mxGeometry x="464" width="203" height="20" as="geometry" />
        </mxCell>
        <mxCell id="ULyl4YnrpsMmXoueRFgM-482" value="&lt;span style=&quot;font-size: 10px;&quot;&gt;当前窗口区间采摘水果&lt;/span&gt;&lt;b style=&quot;font-size: 10px;&quot;&gt;数量：&lt;/b&gt;" style="text;html=1;strokeColor=none;fillColor=none;align=center;verticalAlign=middle;whiteSpace=wrap;rounded=0;pointerEvents=0;fontFamily=Verdana;fontSize=10;fontColor=#006EAF;" vertex="1" parent="ULyl4YnrpsMmXoueRFgM-481">
          <mxGeometry width="170" height="20" as="geometry" />
        </mxCell>
        <mxCell id="ULyl4YnrpsMmXoueRFgM-483" value="14" style="text;html=1;strokeColor=none;fillColor=none;align=center;verticalAlign=middle;whiteSpace=wrap;rounded=0;pointerEvents=0;fontFamily=Verdana;fontSize=15;fontColor=#006EAF;" vertex="1" parent="ULyl4YnrpsMmXoueRFgM-481">
          <mxGeometry x="165" width="38" height="20" as="geometry" />
        </mxCell>
        <mxCell id="ULyl4YnrpsMmXoueRFgM-484" value="" style="rounded=0;whiteSpace=wrap;html=1;fontFamily=Lucida Console;fontSize=15;labelBackgroundColor=none;fillColor=#FF99FF;strokeColor=#b85450;opacity=35;pointerEvents=0;fontColor=#000000;" vertex="1" parent="1">
          <mxGeometry x="191" y="828" width="450" height="56" as="geometry" />
        </mxCell>
        <mxCell id="ULyl4YnrpsMmXoueRFgM-485" value="" style="group;pointerEvents=0;fontFamily=Verdana;fontSize=15;fontColor=#000000;fillColor=none;gradientColor=none;" vertex="1" connectable="0" parent="1">
          <mxGeometry x="217.0000000000001" y="891" width="60" height="65" as="geometry" />
        </mxCell>
        <mxCell id="ULyl4YnrpsMmXoueRFgM-486" value="" style="endArrow=classic;html=1;rounded=0;fontFamily=Verdana;fontSize=16;strokeWidth=3;strokeColor=#2D7600;fontColor=#000000;" edge="1" parent="ULyl4YnrpsMmXoueRFgM-485">
          <mxGeometry width="50" height="50" relative="1" as="geometry">
            <mxPoint x="30" y="35" as="sourcePoint" />
            <mxPoint x="29.659999999999997" as="targetPoint" />
          </mxGeometry>
        </mxCell>
        <mxCell id="ULyl4YnrpsMmXoueRFgM-487" value="left" style="text;html=1;strokeColor=none;fillColor=none;align=center;verticalAlign=middle;whiteSpace=wrap;rounded=0;fontFamily=Lucida Console;fontSize=15;fontColor=#2D7600;fontStyle=1;pointerEvents=0;" vertex="1" parent="ULyl4YnrpsMmXoueRFgM-485">
          <mxGeometry y="35" width="60" height="30" as="geometry" />
        </mxCell>
        <mxCell id="ULyl4YnrpsMmXoueRFgM-488" value="" style="group;pointerEvents=0;fontFamily=Verdana;fontSize=15;fontColor=#000000;fillColor=none;gradientColor=none;" vertex="1" connectable="0" parent="1">
          <mxGeometry x="554.0000000000001" y="889" width="60" height="64" as="geometry" />
        </mxCell>
        <mxCell id="ULyl4YnrpsMmXoueRFgM-489" value="" style="endArrow=classic;html=1;rounded=0;fontFamily=Verdana;fontSize=16;strokeWidth=3;strokeColor=#006EAF;fontColor=#000000;" edge="1" parent="ULyl4YnrpsMmXoueRFgM-488">
          <mxGeometry width="50" height="50" relative="1" as="geometry">
            <mxPoint x="30.340000000000003" y="35" as="sourcePoint" />
            <mxPoint x="29.99999999999997" as="targetPoint" />
          </mxGeometry>
        </mxCell>
        <mxCell id="ULyl4YnrpsMmXoueRFgM-490" value="right" style="text;html=1;strokeColor=none;fillColor=none;align=center;verticalAlign=middle;whiteSpace=wrap;rounded=0;fontFamily=Lucida Console;fontSize=15;fontColor=#006EAF;fontStyle=1;pointerEvents=0;" vertex="1" parent="ULyl4YnrpsMmXoueRFgM-488">
          <mxGeometry y="34" width="59" height="30" as="geometry" />
        </mxCell>
        <mxCell id="ULyl4YnrpsMmXoueRFgM-491" value="" style="group;pointerEvents=0;fontFamily=Verdana;fontSize=15;fontColor=#000000;fillColor=none;gradientColor=none;" vertex="1" connectable="0" parent="1">
          <mxGeometry x="78" y="1006" width="675" height="40" as="geometry" />
        </mxCell>
        <mxCell id="ULyl4YnrpsMmXoueRFgM-492" value="" style="shape=table;startSize=0;container=1;collapsible=0;childLayout=tableLayout;fontSize=16;fontFamily=Verdana;pointerEvents=0;fontColor=#000000;fillColor=none;gradientColor=none;" vertex="1" parent="ULyl4YnrpsMmXoueRFgM-491">
          <mxGeometry width="675" height="40" as="geometry" />
        </mxCell>
        <mxCell id="ULyl4YnrpsMmXoueRFgM-493" value="" style="shape=tableRow;horizontal=0;startSize=0;swimlaneHead=0;swimlaneBody=0;top=0;left=0;bottom=0;right=0;collapsible=0;dropTarget=0;fillColor=none;points=[[0,0.5],[1,0.5]];portConstraint=eastwest;fontSize=16;fontFamily=Verdana;pointerEvents=0;fontColor=#000000;" vertex="1" parent="ULyl4YnrpsMmXoueRFgM-492">
          <mxGeometry width="675" height="40" as="geometry" />
        </mxCell>
        <mxCell id="ULyl4YnrpsMmXoueRFgM-494" value="" style="shape=partialRectangle;html=1;whiteSpace=wrap;connectable=0;overflow=hidden;fillColor=none;top=0;left=0;bottom=0;right=0;pointerEvents=1;fontSize=16;fontFamily=Verdana;fontColor=#000000;" vertex="1" parent="ULyl4YnrpsMmXoueRFgM-493">
          <mxGeometry width="112" height="40" as="geometry">
            <mxRectangle width="112" height="40" as="alternateBounds" />
          </mxGeometry>
        </mxCell>
        <mxCell id="ULyl4YnrpsMmXoueRFgM-495" value="" style="shape=partialRectangle;html=1;whiteSpace=wrap;connectable=0;overflow=hidden;fillColor=none;top=0;left=0;bottom=0;right=0;pointerEvents=1;fontSize=16;fontFamily=Verdana;fontColor=#000000;" vertex="1" parent="ULyl4YnrpsMmXoueRFgM-493">
          <mxGeometry x="112" width="114" height="40" as="geometry">
            <mxRectangle width="114" height="40" as="alternateBounds" />
          </mxGeometry>
        </mxCell>
        <mxCell id="ULyl4YnrpsMmXoueRFgM-496" value="" style="shape=partialRectangle;html=1;whiteSpace=wrap;connectable=0;overflow=hidden;fillColor=none;top=0;left=0;bottom=0;right=0;pointerEvents=1;fontSize=16;fontFamily=Verdana;fontColor=#000000;" vertex="1" parent="ULyl4YnrpsMmXoueRFgM-493">
          <mxGeometry x="226" width="112" height="40" as="geometry">
            <mxRectangle width="112" height="40" as="alternateBounds" />
          </mxGeometry>
        </mxCell>
        <mxCell id="ULyl4YnrpsMmXoueRFgM-497" value="" style="shape=partialRectangle;html=1;whiteSpace=wrap;connectable=0;overflow=hidden;fillColor=none;top=0;left=0;bottom=0;right=0;pointerEvents=1;fontSize=16;fontFamily=Verdana;fontColor=#000000;" vertex="1" parent="ULyl4YnrpsMmXoueRFgM-493">
          <mxGeometry x="338" width="111" height="40" as="geometry">
            <mxRectangle width="111" height="40" as="alternateBounds" />
          </mxGeometry>
        </mxCell>
        <mxCell id="ULyl4YnrpsMmXoueRFgM-498" value="" style="shape=partialRectangle;html=1;whiteSpace=wrap;connectable=0;overflow=hidden;fillColor=none;top=0;left=0;bottom=0;right=0;pointerEvents=1;fontSize=16;fontFamily=Verdana;fontColor=#000000;" vertex="1" parent="ULyl4YnrpsMmXoueRFgM-493">
          <mxGeometry x="449" width="114" height="40" as="geometry">
            <mxRectangle width="114" height="40" as="alternateBounds" />
          </mxGeometry>
        </mxCell>
        <mxCell id="ULyl4YnrpsMmXoueRFgM-499" value="" style="shape=partialRectangle;html=1;whiteSpace=wrap;connectable=0;overflow=hidden;fillColor=none;top=0;left=0;bottom=0;right=0;pointerEvents=1;fontSize=16;fontFamily=Verdana;fontColor=#000000;" vertex="1" parent="ULyl4YnrpsMmXoueRFgM-493">
          <mxGeometry x="563" width="112" height="40" as="geometry">
            <mxRectangle width="112" height="40" as="alternateBounds" />
          </mxGeometry>
        </mxCell>
        <mxCell id="ULyl4YnrpsMmXoueRFgM-500" value="" style="group;pointerEvents=0;fontFamily=Verdana;fontSize=15;fontColor=#000000;fillColor=none;gradientColor=none;" vertex="1" connectable="0" parent="ULyl4YnrpsMmXoueRFgM-491">
          <mxGeometry x="8" y="5" width="659" height="30" as="geometry" />
        </mxCell>
        <mxCell id="ULyl4YnrpsMmXoueRFgM-501" value="0" style="rounded=0;whiteSpace=wrap;html=1;fontSize=16;fontFamily=Verdana;pointerEvents=0;fontColor=#000000;fillColor=none;gradientColor=none;" vertex="1" parent="ULyl4YnrpsMmXoueRFgM-500">
          <mxGeometry width="48" height="30" as="geometry" />
        </mxCell>
        <mxCell id="ULyl4YnrpsMmXoueRFgM-502" value="9" style="rounded=0;whiteSpace=wrap;html=1;fontSize=16;fontFamily=Verdana;pointerEvents=0;fontColor=#000000;fillColor=none;gradientColor=none;" vertex="1" parent="ULyl4YnrpsMmXoueRFgM-500">
          <mxGeometry x="48" width="48" height="30" as="geometry" />
        </mxCell>
        <mxCell id="ULyl4YnrpsMmXoueRFgM-503" value="7" style="rounded=0;whiteSpace=wrap;html=1;fontSize=16;fontFamily=Verdana;pointerEvents=0;fontColor=#000000;fillColor=none;gradientColor=none;" vertex="1" parent="ULyl4YnrpsMmXoueRFgM-500">
          <mxGeometry x="449" width="48" height="30" as="geometry" />
        </mxCell>
        <mxCell id="ULyl4YnrpsMmXoueRFgM-504" value="4" style="rounded=0;whiteSpace=wrap;html=1;fontSize=16;fontFamily=Verdana;pointerEvents=0;fontColor=#000000;fillColor=none;gradientColor=none;" vertex="1" parent="ULyl4YnrpsMmXoueRFgM-500">
          <mxGeometry x="497" width="48" height="30" as="geometry" />
        </mxCell>
        <mxCell id="ULyl4YnrpsMmXoueRFgM-505" value="6" style="rounded=0;whiteSpace=wrap;html=1;fontSize=16;fontFamily=Verdana;pointerEvents=0;fontColor=#000000;fillColor=none;gradientColor=none;" vertex="1" parent="ULyl4YnrpsMmXoueRFgM-500">
          <mxGeometry x="338" width="48" height="30" as="geometry" />
        </mxCell>
        <mxCell id="ULyl4YnrpsMmXoueRFgM-506" value="2" style="rounded=0;whiteSpace=wrap;html=1;fontSize=16;fontFamily=Verdana;pointerEvents=0;fontColor=#000000;fillColor=none;gradientColor=none;" vertex="1" parent="ULyl4YnrpsMmXoueRFgM-500">
          <mxGeometry x="386" width="48" height="30" as="geometry" />
        </mxCell>
        <mxCell id="ULyl4YnrpsMmXoueRFgM-507" value="5" style="rounded=0;whiteSpace=wrap;html=1;fontSize=16;fontFamily=Verdana;pointerEvents=0;fontColor=#000000;fillColor=none;gradientColor=none;" vertex="1" parent="ULyl4YnrpsMmXoueRFgM-500">
          <mxGeometry x="226" width="48" height="30" as="geometry" />
        </mxCell>
        <mxCell id="ULyl4YnrpsMmXoueRFgM-508" value="7" style="rounded=0;whiteSpace=wrap;html=1;fontSize=16;fontFamily=Verdana;pointerEvents=0;fontColor=#000000;fillColor=none;gradientColor=none;" vertex="1" parent="ULyl4YnrpsMmXoueRFgM-500">
          <mxGeometry x="274" width="48" height="30" as="geometry" />
        </mxCell>
        <mxCell id="ULyl4YnrpsMmXoueRFgM-509" value="4" style="rounded=0;whiteSpace=wrap;html=1;fontSize=16;fontFamily=Verdana;pointerEvents=0;fontColor=#000000;fillColor=none;gradientColor=none;" vertex="1" parent="ULyl4YnrpsMmXoueRFgM-500">
          <mxGeometry x="111" width="48" height="30" as="geometry" />
        </mxCell>
        <mxCell id="ULyl4YnrpsMmXoueRFgM-510" value="1" style="rounded=0;whiteSpace=wrap;html=1;fontSize=16;fontFamily=Verdana;pointerEvents=0;fontColor=#000000;fillColor=none;gradientColor=none;" vertex="1" parent="ULyl4YnrpsMmXoueRFgM-500">
          <mxGeometry x="159" width="48" height="30" as="geometry" />
        </mxCell>
        <mxCell id="ULyl4YnrpsMmXoueRFgM-511" value="" style="group;pointerEvents=0;fontFamily=Verdana;fontSize=15;fontColor=#000000;fillColor=none;gradientColor=none;" vertex="1" connectable="0" parent="ULyl4YnrpsMmXoueRFgM-500">
          <mxGeometry x="563" width="96" height="30" as="geometry" />
        </mxCell>
        <mxCell id="ULyl4YnrpsMmXoueRFgM-512" value="10" style="rounded=0;whiteSpace=wrap;html=1;fontSize=16;fontFamily=Verdana;pointerEvents=0;fontColor=#000000;fillColor=none;gradientColor=none;" vertex="1" parent="ULyl4YnrpsMmXoueRFgM-511">
          <mxGeometry width="48" height="30" as="geometry" />
        </mxCell>
        <mxCell id="ULyl4YnrpsMmXoueRFgM-513" value="9" style="rounded=0;whiteSpace=wrap;html=1;fontSize=16;fontFamily=Verdana;pointerEvents=0;fontColor=#000000;fillColor=none;gradientColor=none;" vertex="1" parent="ULyl4YnrpsMmXoueRFgM-511">
          <mxGeometry x="48" width="48" height="30" as="geometry" />
        </mxCell>
        <mxCell id="ULyl4YnrpsMmXoueRFgM-514" value="" style="group;pointerEvents=0;fontFamily=Verdana;fontSize=15;fontColor=#000000;fillColor=none;gradientColor=none;" vertex="1" connectable="0" parent="1">
          <mxGeometry x="78" y="970" width="667" height="20" as="geometry" />
        </mxCell>
        <mxCell id="ULyl4YnrpsMmXoueRFgM-515" value="" style="group;pointerEvents=0;fontFamily=Verdana;fontSize=15;fontColor=#000000;fillColor=none;gradientColor=none;" vertex="1" connectable="0" parent="ULyl4YnrpsMmXoueRFgM-514">
          <mxGeometry width="196" height="20" as="geometry" />
        </mxCell>
        <mxCell id="ULyl4YnrpsMmXoueRFgM-516" value="&lt;span style=&quot;font-size: 10px;&quot;&gt;当前窗口区间所需&lt;b style=&quot;font-size: 10px;&quot;&gt;最小步数：&lt;/b&gt;&lt;/span&gt;" style="text;html=1;strokeColor=none;fillColor=none;align=center;verticalAlign=middle;whiteSpace=wrap;rounded=0;pointerEvents=0;fontFamily=Verdana;fontSize=10;fontColor=#006EAF;" vertex="1" parent="ULyl4YnrpsMmXoueRFgM-515">
          <mxGeometry width="170" height="20" as="geometry" />
        </mxCell>
        <mxCell id="ULyl4YnrpsMmXoueRFgM-517" value="7" style="text;html=1;strokeColor=none;fillColor=none;align=center;verticalAlign=middle;whiteSpace=wrap;rounded=0;pointerEvents=0;fontFamily=Verdana;fontSize=15;fontColor=#006EAF;" vertex="1" parent="ULyl4YnrpsMmXoueRFgM-515">
          <mxGeometry x="158" width="38" height="20" as="geometry" />
        </mxCell>
        <mxCell id="ULyl4YnrpsMmXoueRFgM-518" value="" style="group;pointerEvents=0;fontFamily=Verdana;fontSize=15;fontColor=#000000;fillColor=none;gradientColor=none;" vertex="1" connectable="0" parent="ULyl4YnrpsMmXoueRFgM-514">
          <mxGeometry x="464" width="203" height="20" as="geometry" />
        </mxCell>
        <mxCell id="ULyl4YnrpsMmXoueRFgM-519" value="&lt;span style=&quot;font-size: 10px;&quot;&gt;当前窗口区间采摘水果&lt;/span&gt;&lt;b style=&quot;font-size: 10px;&quot;&gt;数量：&lt;/b&gt;" style="text;html=1;strokeColor=none;fillColor=none;align=center;verticalAlign=middle;whiteSpace=wrap;rounded=0;pointerEvents=0;fontFamily=Verdana;fontSize=10;fontColor=#006EAF;" vertex="1" parent="ULyl4YnrpsMmXoueRFgM-518">
          <mxGeometry width="170" height="20" as="geometry" />
        </mxCell>
        <mxCell id="ULyl4YnrpsMmXoueRFgM-520" value="23" style="text;html=1;strokeColor=none;fillColor=none;align=center;verticalAlign=middle;whiteSpace=wrap;rounded=0;pointerEvents=0;fontFamily=Verdana;fontSize=15;fontColor=#006EAF;" vertex="1" parent="ULyl4YnrpsMmXoueRFgM-518">
          <mxGeometry x="165" width="38" height="20" as="geometry" />
        </mxCell>
        <mxCell id="ULyl4YnrpsMmXoueRFgM-521" value="" style="rounded=0;whiteSpace=wrap;html=1;fontFamily=Lucida Console;fontSize=15;labelBackgroundColor=none;fillColor=#FF99FF;strokeColor=#b85450;opacity=35;pointerEvents=0;fontColor=#000000;" vertex="1" parent="1">
          <mxGeometry x="189" y="998" width="564" height="56" as="geometry" />
        </mxCell>
        <mxCell id="ULyl4YnrpsMmXoueRFgM-522" value="" style="group;pointerEvents=0;fontFamily=Verdana;fontSize=15;fontColor=#000000;fillColor=none;gradientColor=none;" vertex="1" connectable="0" parent="1">
          <mxGeometry x="217.0000000000001" y="1061" width="60" height="65" as="geometry" />
        </mxCell>
        <mxCell id="ULyl4YnrpsMmXoueRFgM-523" value="" style="endArrow=classic;html=1;rounded=0;fontFamily=Verdana;fontSize=16;strokeWidth=3;strokeColor=#2D7600;fontColor=#000000;" edge="1" parent="ULyl4YnrpsMmXoueRFgM-522">
          <mxGeometry width="50" height="50" relative="1" as="geometry">
            <mxPoint x="30" y="35" as="sourcePoint" />
            <mxPoint x="29.659999999999997" as="targetPoint" />
          </mxGeometry>
        </mxCell>
        <mxCell id="ULyl4YnrpsMmXoueRFgM-524" value="left" style="text;html=1;strokeColor=none;fillColor=none;align=center;verticalAlign=middle;whiteSpace=wrap;rounded=0;fontFamily=Lucida Console;fontSize=15;fontColor=#2D7600;fontStyle=1;pointerEvents=0;" vertex="1" parent="ULyl4YnrpsMmXoueRFgM-522">
          <mxGeometry y="35" width="60" height="30" as="geometry" />
        </mxCell>
        <mxCell id="ULyl4YnrpsMmXoueRFgM-525" value="" style="group;pointerEvents=0;fontFamily=Verdana;fontSize=15;fontColor=#000000;fillColor=none;gradientColor=none;" vertex="1" connectable="0" parent="1">
          <mxGeometry x="667.0000000000001" y="1061" width="60" height="64" as="geometry" />
        </mxCell>
        <mxCell id="ULyl4YnrpsMmXoueRFgM-526" value="" style="endArrow=classic;html=1;rounded=0;fontFamily=Verdana;fontSize=16;strokeWidth=3;strokeColor=#006EAF;fontColor=#000000;" edge="1" parent="ULyl4YnrpsMmXoueRFgM-525">
          <mxGeometry width="50" height="50" relative="1" as="geometry">
            <mxPoint x="30.340000000000003" y="35" as="sourcePoint" />
            <mxPoint x="29.99999999999997" as="targetPoint" />
          </mxGeometry>
        </mxCell>
        <mxCell id="ULyl4YnrpsMmXoueRFgM-527" value="right" style="text;html=1;strokeColor=none;fillColor=none;align=center;verticalAlign=middle;whiteSpace=wrap;rounded=0;fontFamily=Lucida Console;fontSize=15;fontColor=#006EAF;fontStyle=1;pointerEvents=0;" vertex="1" parent="ULyl4YnrpsMmXoueRFgM-525">
          <mxGeometry y="34" width="59" height="30" as="geometry" />
        </mxCell>
        <mxCell id="ULyl4YnrpsMmXoueRFgM-528" value="" style="group;pointerEvents=0;fontFamily=Verdana;fontSize=15;fontColor=#000000;fillColor=none;gradientColor=none;" vertex="1" connectable="0" parent="1">
          <mxGeometry x="78" y="1174" width="675" height="40" as="geometry" />
        </mxCell>
        <mxCell id="ULyl4YnrpsMmXoueRFgM-529" value="" style="shape=table;startSize=0;container=1;collapsible=0;childLayout=tableLayout;fontSize=16;fontFamily=Verdana;pointerEvents=0;fontColor=#000000;fillColor=none;gradientColor=none;" vertex="1" parent="ULyl4YnrpsMmXoueRFgM-528">
          <mxGeometry width="675" height="40" as="geometry" />
        </mxCell>
        <mxCell id="ULyl4YnrpsMmXoueRFgM-530" value="" style="shape=tableRow;horizontal=0;startSize=0;swimlaneHead=0;swimlaneBody=0;top=0;left=0;bottom=0;right=0;collapsible=0;dropTarget=0;fillColor=none;points=[[0,0.5],[1,0.5]];portConstraint=eastwest;fontSize=16;fontFamily=Verdana;pointerEvents=0;fontColor=#000000;" vertex="1" parent="ULyl4YnrpsMmXoueRFgM-529">
          <mxGeometry width="675" height="40" as="geometry" />
        </mxCell>
        <mxCell id="ULyl4YnrpsMmXoueRFgM-531" value="" style="shape=partialRectangle;html=1;whiteSpace=wrap;connectable=0;overflow=hidden;fillColor=none;top=0;left=0;bottom=0;right=0;pointerEvents=1;fontSize=16;fontFamily=Verdana;fontColor=#000000;" vertex="1" parent="ULyl4YnrpsMmXoueRFgM-530">
          <mxGeometry width="112" height="40" as="geometry">
            <mxRectangle width="112" height="40" as="alternateBounds" />
          </mxGeometry>
        </mxCell>
        <mxCell id="ULyl4YnrpsMmXoueRFgM-532" value="" style="shape=partialRectangle;html=1;whiteSpace=wrap;connectable=0;overflow=hidden;fillColor=none;top=0;left=0;bottom=0;right=0;pointerEvents=1;fontSize=16;fontFamily=Verdana;fontColor=#000000;" vertex="1" parent="ULyl4YnrpsMmXoueRFgM-530">
          <mxGeometry x="112" width="114" height="40" as="geometry">
            <mxRectangle width="114" height="40" as="alternateBounds" />
          </mxGeometry>
        </mxCell>
        <mxCell id="ULyl4YnrpsMmXoueRFgM-533" value="" style="shape=partialRectangle;html=1;whiteSpace=wrap;connectable=0;overflow=hidden;fillColor=none;top=0;left=0;bottom=0;right=0;pointerEvents=1;fontSize=16;fontFamily=Verdana;fontColor=#000000;" vertex="1" parent="ULyl4YnrpsMmXoueRFgM-530">
          <mxGeometry x="226" width="112" height="40" as="geometry">
            <mxRectangle width="112" height="40" as="alternateBounds" />
          </mxGeometry>
        </mxCell>
        <mxCell id="ULyl4YnrpsMmXoueRFgM-534" value="" style="shape=partialRectangle;html=1;whiteSpace=wrap;connectable=0;overflow=hidden;fillColor=none;top=0;left=0;bottom=0;right=0;pointerEvents=1;fontSize=16;fontFamily=Verdana;fontColor=#000000;" vertex="1" parent="ULyl4YnrpsMmXoueRFgM-530">
          <mxGeometry x="338" width="111" height="40" as="geometry">
            <mxRectangle width="111" height="40" as="alternateBounds" />
          </mxGeometry>
        </mxCell>
        <mxCell id="ULyl4YnrpsMmXoueRFgM-535" value="" style="shape=partialRectangle;html=1;whiteSpace=wrap;connectable=0;overflow=hidden;fillColor=none;top=0;left=0;bottom=0;right=0;pointerEvents=1;fontSize=16;fontFamily=Verdana;fontColor=#000000;" vertex="1" parent="ULyl4YnrpsMmXoueRFgM-530">
          <mxGeometry x="449" width="114" height="40" as="geometry">
            <mxRectangle width="114" height="40" as="alternateBounds" />
          </mxGeometry>
        </mxCell>
        <mxCell id="ULyl4YnrpsMmXoueRFgM-536" value="" style="shape=partialRectangle;html=1;whiteSpace=wrap;connectable=0;overflow=hidden;fillColor=none;top=0;left=0;bottom=0;right=0;pointerEvents=1;fontSize=16;fontFamily=Verdana;fontColor=#000000;" vertex="1" parent="ULyl4YnrpsMmXoueRFgM-530">
          <mxGeometry x="563" width="112" height="40" as="geometry">
            <mxRectangle width="112" height="40" as="alternateBounds" />
          </mxGeometry>
        </mxCell>
        <mxCell id="ULyl4YnrpsMmXoueRFgM-537" value="" style="group;pointerEvents=0;fontFamily=Verdana;fontSize=15;fontColor=#000000;fillColor=none;gradientColor=none;" vertex="1" connectable="0" parent="ULyl4YnrpsMmXoueRFgM-528">
          <mxGeometry x="8" y="5" width="659" height="30" as="geometry" />
        </mxCell>
        <mxCell id="ULyl4YnrpsMmXoueRFgM-538" value="0" style="rounded=0;whiteSpace=wrap;html=1;fontSize=16;fontFamily=Verdana;pointerEvents=0;fontColor=#000000;fillColor=none;gradientColor=none;" vertex="1" parent="ULyl4YnrpsMmXoueRFgM-537">
          <mxGeometry width="48" height="30" as="geometry" />
        </mxCell>
        <mxCell id="ULyl4YnrpsMmXoueRFgM-539" value="9" style="rounded=0;whiteSpace=wrap;html=1;fontSize=16;fontFamily=Verdana;pointerEvents=0;fontColor=#000000;fillColor=none;gradientColor=none;" vertex="1" parent="ULyl4YnrpsMmXoueRFgM-537">
          <mxGeometry x="48" width="48" height="30" as="geometry" />
        </mxCell>
        <mxCell id="ULyl4YnrpsMmXoueRFgM-540" value="7" style="rounded=0;whiteSpace=wrap;html=1;fontSize=16;fontFamily=Verdana;pointerEvents=0;fontColor=#000000;fillColor=none;gradientColor=none;" vertex="1" parent="ULyl4YnrpsMmXoueRFgM-537">
          <mxGeometry x="449" width="48" height="30" as="geometry" />
        </mxCell>
        <mxCell id="ULyl4YnrpsMmXoueRFgM-541" value="4" style="rounded=0;whiteSpace=wrap;html=1;fontSize=16;fontFamily=Verdana;pointerEvents=0;fontColor=#000000;fillColor=none;gradientColor=none;" vertex="1" parent="ULyl4YnrpsMmXoueRFgM-537">
          <mxGeometry x="497" width="48" height="30" as="geometry" />
        </mxCell>
        <mxCell id="ULyl4YnrpsMmXoueRFgM-542" value="6" style="rounded=0;whiteSpace=wrap;html=1;fontSize=16;fontFamily=Verdana;pointerEvents=0;fontColor=#000000;fillColor=none;gradientColor=none;" vertex="1" parent="ULyl4YnrpsMmXoueRFgM-537">
          <mxGeometry x="338" width="48" height="30" as="geometry" />
        </mxCell>
        <mxCell id="ULyl4YnrpsMmXoueRFgM-543" value="2" style="rounded=0;whiteSpace=wrap;html=1;fontSize=16;fontFamily=Verdana;pointerEvents=0;fontColor=#000000;fillColor=none;gradientColor=none;" vertex="1" parent="ULyl4YnrpsMmXoueRFgM-537">
          <mxGeometry x="386" width="48" height="30" as="geometry" />
        </mxCell>
        <mxCell id="ULyl4YnrpsMmXoueRFgM-544" value="5" style="rounded=0;whiteSpace=wrap;html=1;fontSize=16;fontFamily=Verdana;pointerEvents=0;fontColor=#000000;fillColor=none;gradientColor=none;" vertex="1" parent="ULyl4YnrpsMmXoueRFgM-537">
          <mxGeometry x="226" width="48" height="30" as="geometry" />
        </mxCell>
        <mxCell id="ULyl4YnrpsMmXoueRFgM-545" value="7" style="rounded=0;whiteSpace=wrap;html=1;fontSize=16;fontFamily=Verdana;pointerEvents=0;fontColor=#000000;fillColor=none;gradientColor=none;" vertex="1" parent="ULyl4YnrpsMmXoueRFgM-537">
          <mxGeometry x="274" width="48" height="30" as="geometry" />
        </mxCell>
        <mxCell id="ULyl4YnrpsMmXoueRFgM-546" value="4" style="rounded=0;whiteSpace=wrap;html=1;fontSize=16;fontFamily=Verdana;pointerEvents=0;fontColor=#000000;fillColor=none;gradientColor=none;" vertex="1" parent="ULyl4YnrpsMmXoueRFgM-537">
          <mxGeometry x="111" width="48" height="30" as="geometry" />
        </mxCell>
        <mxCell id="ULyl4YnrpsMmXoueRFgM-547" value="1" style="rounded=0;whiteSpace=wrap;html=1;fontSize=16;fontFamily=Verdana;pointerEvents=0;fontColor=#000000;fillColor=none;gradientColor=none;" vertex="1" parent="ULyl4YnrpsMmXoueRFgM-537">
          <mxGeometry x="159" width="48" height="30" as="geometry" />
        </mxCell>
        <mxCell id="ULyl4YnrpsMmXoueRFgM-548" value="" style="group;pointerEvents=0;fontFamily=Verdana;fontSize=15;fontColor=#000000;fillColor=none;gradientColor=none;" vertex="1" connectable="0" parent="ULyl4YnrpsMmXoueRFgM-537">
          <mxGeometry x="563" width="96" height="30" as="geometry" />
        </mxCell>
        <mxCell id="ULyl4YnrpsMmXoueRFgM-549" value="10" style="rounded=0;whiteSpace=wrap;html=1;fontSize=16;fontFamily=Verdana;pointerEvents=0;fontColor=#000000;fillColor=none;gradientColor=none;" vertex="1" parent="ULyl4YnrpsMmXoueRFgM-548">
          <mxGeometry width="48" height="30" as="geometry" />
        </mxCell>
        <mxCell id="ULyl4YnrpsMmXoueRFgM-550" value="9" style="rounded=0;whiteSpace=wrap;html=1;fontSize=16;fontFamily=Verdana;pointerEvents=0;fontColor=#000000;fillColor=none;gradientColor=none;" vertex="1" parent="ULyl4YnrpsMmXoueRFgM-548">
          <mxGeometry x="48" width="48" height="30" as="geometry" />
        </mxCell>
        <mxCell id="ULyl4YnrpsMmXoueRFgM-551" value="" style="group;pointerEvents=0;fontFamily=Verdana;fontSize=15;fontColor=#000000;fillColor=none;gradientColor=none;" vertex="1" connectable="0" parent="1">
          <mxGeometry x="78" y="1138" width="667" height="20" as="geometry" />
        </mxCell>
        <mxCell id="ULyl4YnrpsMmXoueRFgM-552" value="" style="group;pointerEvents=0;fontFamily=Verdana;fontSize=15;fontColor=#000000;fillColor=none;gradientColor=none;" vertex="1" connectable="0" parent="ULyl4YnrpsMmXoueRFgM-551">
          <mxGeometry width="196" height="20" as="geometry" />
        </mxCell>
        <mxCell id="ULyl4YnrpsMmXoueRFgM-553" value="&lt;span style=&quot;font-size: 10px;&quot;&gt;当前窗口区间所需&lt;b style=&quot;font-size: 10px;&quot;&gt;最小步数：&lt;/b&gt;&lt;/span&gt;" style="text;html=1;strokeColor=none;fillColor=none;align=center;verticalAlign=middle;whiteSpace=wrap;rounded=0;pointerEvents=0;fontFamily=Verdana;fontSize=10;fontColor=#006EAF;" vertex="1" parent="ULyl4YnrpsMmXoueRFgM-552">
          <mxGeometry width="170" height="20" as="geometry" />
        </mxCell>
        <mxCell id="ULyl4YnrpsMmXoueRFgM-554" value="5" style="text;html=1;strokeColor=none;fillColor=none;align=center;verticalAlign=middle;whiteSpace=wrap;rounded=0;pointerEvents=0;fontFamily=Verdana;fontSize=15;fontColor=#006EAF;" vertex="1" parent="ULyl4YnrpsMmXoueRFgM-552">
          <mxGeometry x="158" width="38" height="20" as="geometry" />
        </mxCell>
        <mxCell id="ULyl4YnrpsMmXoueRFgM-555" value="" style="group;pointerEvents=0;fontFamily=Verdana;fontSize=15;fontColor=#000000;fillColor=none;gradientColor=none;" vertex="1" connectable="0" parent="ULyl4YnrpsMmXoueRFgM-551">
          <mxGeometry x="464" width="203" height="20" as="geometry" />
        </mxCell>
        <mxCell id="ULyl4YnrpsMmXoueRFgM-556" value="&lt;span style=&quot;font-size: 10px;&quot;&gt;当前窗口区间采摘水果&lt;/span&gt;&lt;b style=&quot;font-size: 10px;&quot;&gt;数量：&lt;/b&gt;" style="text;html=1;strokeColor=none;fillColor=none;align=center;verticalAlign=middle;whiteSpace=wrap;rounded=0;pointerEvents=0;fontFamily=Verdana;fontSize=10;fontColor=#006EAF;" vertex="1" parent="ULyl4YnrpsMmXoueRFgM-555">
          <mxGeometry width="170" height="20" as="geometry" />
        </mxCell>
        <mxCell id="ULyl4YnrpsMmXoueRFgM-557" value="22" style="text;html=1;strokeColor=none;fillColor=none;align=center;verticalAlign=middle;whiteSpace=wrap;rounded=0;pointerEvents=0;fontFamily=Verdana;fontSize=15;fontColor=#006EAF;" vertex="1" parent="ULyl4YnrpsMmXoueRFgM-555">
          <mxGeometry x="165" width="38" height="20" as="geometry" />
        </mxCell>
        <mxCell id="ULyl4YnrpsMmXoueRFgM-558" value="" style="rounded=0;whiteSpace=wrap;html=1;fontFamily=Lucida Console;fontSize=15;labelBackgroundColor=none;fillColor=#FF99FF;strokeColor=#b85450;opacity=35;pointerEvents=0;fontColor=#000000;" vertex="1" parent="1">
          <mxGeometry x="303" y="1166" width="451" height="56" as="geometry" />
        </mxCell>
        <mxCell id="ULyl4YnrpsMmXoueRFgM-559" value="" style="group;pointerEvents=0;fontFamily=Verdana;fontSize=15;fontColor=#000000;fillColor=none;gradientColor=none;" vertex="1" connectable="0" parent="1">
          <mxGeometry x="330.0000000000001" y="1228" width="60" height="65" as="geometry" />
        </mxCell>
        <mxCell id="ULyl4YnrpsMmXoueRFgM-560" value="" style="endArrow=classic;html=1;rounded=0;fontFamily=Verdana;fontSize=16;strokeWidth=3;strokeColor=#2D7600;fontColor=#000000;" edge="1" parent="ULyl4YnrpsMmXoueRFgM-559">
          <mxGeometry width="50" height="50" relative="1" as="geometry">
            <mxPoint x="30" y="35" as="sourcePoint" />
            <mxPoint x="29.659999999999997" as="targetPoint" />
          </mxGeometry>
        </mxCell>
        <mxCell id="ULyl4YnrpsMmXoueRFgM-561" value="left" style="text;html=1;strokeColor=none;fillColor=none;align=center;verticalAlign=middle;whiteSpace=wrap;rounded=0;fontFamily=Lucida Console;fontSize=15;fontColor=#2D7600;fontStyle=1;pointerEvents=0;" vertex="1" parent="ULyl4YnrpsMmXoueRFgM-559">
          <mxGeometry y="35" width="60" height="30" as="geometry" />
        </mxCell>
        <mxCell id="ULyl4YnrpsMmXoueRFgM-562" value="" style="group;pointerEvents=0;fontFamily=Verdana;fontSize=15;fontColor=#000000;fillColor=none;gradientColor=none;" vertex="1" connectable="0" parent="1">
          <mxGeometry x="667.0000000000001" y="1228" width="60" height="64" as="geometry" />
        </mxCell>
        <mxCell id="ULyl4YnrpsMmXoueRFgM-563" value="" style="endArrow=classic;html=1;rounded=0;fontFamily=Verdana;fontSize=16;strokeWidth=3;strokeColor=#006EAF;fontColor=#000000;" edge="1" parent="ULyl4YnrpsMmXoueRFgM-562">
          <mxGeometry width="50" height="50" relative="1" as="geometry">
            <mxPoint x="30.340000000000003" y="35" as="sourcePoint" />
            <mxPoint x="29.99999999999997" as="targetPoint" />
          </mxGeometry>
        </mxCell>
        <mxCell id="ULyl4YnrpsMmXoueRFgM-564" value="right" style="text;html=1;strokeColor=none;fillColor=none;align=center;verticalAlign=middle;whiteSpace=wrap;rounded=0;fontFamily=Lucida Console;fontSize=15;fontColor=#006EAF;fontStyle=1;pointerEvents=0;" vertex="1" parent="ULyl4YnrpsMmXoueRFgM-562">
          <mxGeometry y="34" width="59" height="30" as="geometry" />
        </mxCell>
        <mxCell id="ULyl4YnrpsMmXoueRFgM-595" value="" style="group;pointerEvents=0;fontFamily=Verdana;fontSize=15;fontColor=#000000;fillColor=none;gradientColor=none;" vertex="1" connectable="0" parent="1">
          <mxGeometry x="78" y="1336" width="675" height="40" as="geometry" />
        </mxCell>
        <mxCell id="ULyl4YnrpsMmXoueRFgM-596" value="" style="shape=table;startSize=0;container=1;collapsible=0;childLayout=tableLayout;fontSize=16;fontFamily=Verdana;pointerEvents=0;fontColor=#000000;fillColor=none;gradientColor=none;" vertex="1" parent="ULyl4YnrpsMmXoueRFgM-595">
          <mxGeometry width="675" height="40" as="geometry" />
        </mxCell>
        <mxCell id="ULyl4YnrpsMmXoueRFgM-597" value="" style="shape=tableRow;horizontal=0;startSize=0;swimlaneHead=0;swimlaneBody=0;top=0;left=0;bottom=0;right=0;collapsible=0;dropTarget=0;fillColor=none;points=[[0,0.5],[1,0.5]];portConstraint=eastwest;fontSize=16;fontFamily=Verdana;pointerEvents=0;fontColor=#000000;" vertex="1" parent="ULyl4YnrpsMmXoueRFgM-596">
          <mxGeometry width="675" height="40" as="geometry" />
        </mxCell>
        <mxCell id="ULyl4YnrpsMmXoueRFgM-598" value="" style="shape=partialRectangle;html=1;whiteSpace=wrap;connectable=0;overflow=hidden;fillColor=none;top=0;left=0;bottom=0;right=0;pointerEvents=1;fontSize=16;fontFamily=Verdana;fontColor=#000000;" vertex="1" parent="ULyl4YnrpsMmXoueRFgM-597">
          <mxGeometry width="112" height="40" as="geometry">
            <mxRectangle width="112" height="40" as="alternateBounds" />
          </mxGeometry>
        </mxCell>
        <mxCell id="ULyl4YnrpsMmXoueRFgM-599" value="" style="shape=partialRectangle;html=1;whiteSpace=wrap;connectable=0;overflow=hidden;fillColor=none;top=0;left=0;bottom=0;right=0;pointerEvents=1;fontSize=16;fontFamily=Verdana;fontColor=#000000;" vertex="1" parent="ULyl4YnrpsMmXoueRFgM-597">
          <mxGeometry x="112" width="114" height="40" as="geometry">
            <mxRectangle width="114" height="40" as="alternateBounds" />
          </mxGeometry>
        </mxCell>
        <mxCell id="ULyl4YnrpsMmXoueRFgM-600" value="" style="shape=partialRectangle;html=1;whiteSpace=wrap;connectable=0;overflow=hidden;fillColor=none;top=0;left=0;bottom=0;right=0;pointerEvents=1;fontSize=16;fontFamily=Verdana;fontColor=#000000;" vertex="1" parent="ULyl4YnrpsMmXoueRFgM-597">
          <mxGeometry x="226" width="112" height="40" as="geometry">
            <mxRectangle width="112" height="40" as="alternateBounds" />
          </mxGeometry>
        </mxCell>
        <mxCell id="ULyl4YnrpsMmXoueRFgM-601" value="" style="shape=partialRectangle;html=1;whiteSpace=wrap;connectable=0;overflow=hidden;fillColor=none;top=0;left=0;bottom=0;right=0;pointerEvents=1;fontSize=16;fontFamily=Verdana;fontColor=#000000;" vertex="1" parent="ULyl4YnrpsMmXoueRFgM-597">
          <mxGeometry x="338" width="111" height="40" as="geometry">
            <mxRectangle width="111" height="40" as="alternateBounds" />
          </mxGeometry>
        </mxCell>
        <mxCell id="ULyl4YnrpsMmXoueRFgM-602" value="" style="shape=partialRectangle;html=1;whiteSpace=wrap;connectable=0;overflow=hidden;fillColor=none;top=0;left=0;bottom=0;right=0;pointerEvents=1;fontSize=16;fontFamily=Verdana;fontColor=#000000;" vertex="1" parent="ULyl4YnrpsMmXoueRFgM-597">
          <mxGeometry x="449" width="114" height="40" as="geometry">
            <mxRectangle width="114" height="40" as="alternateBounds" />
          </mxGeometry>
        </mxCell>
        <mxCell id="ULyl4YnrpsMmXoueRFgM-603" value="" style="shape=partialRectangle;html=1;whiteSpace=wrap;connectable=0;overflow=hidden;fillColor=none;top=0;left=0;bottom=0;right=0;pointerEvents=1;fontSize=16;fontFamily=Verdana;fontColor=#000000;" vertex="1" parent="ULyl4YnrpsMmXoueRFgM-597">
          <mxGeometry x="563" width="112" height="40" as="geometry">
            <mxRectangle width="112" height="40" as="alternateBounds" />
          </mxGeometry>
        </mxCell>
        <mxCell id="ULyl4YnrpsMmXoueRFgM-604" value="" style="group;pointerEvents=0;fontFamily=Verdana;fontSize=15;fontColor=#000000;fillColor=none;gradientColor=none;" vertex="1" connectable="0" parent="ULyl4YnrpsMmXoueRFgM-595">
          <mxGeometry x="8" y="5" width="659" height="30" as="geometry" />
        </mxCell>
        <mxCell id="ULyl4YnrpsMmXoueRFgM-605" value="0" style="rounded=0;whiteSpace=wrap;html=1;fontSize=16;fontFamily=Verdana;pointerEvents=0;fontColor=#000000;fillColor=none;gradientColor=none;" vertex="1" parent="ULyl4YnrpsMmXoueRFgM-604">
          <mxGeometry width="48" height="30" as="geometry" />
        </mxCell>
        <mxCell id="ULyl4YnrpsMmXoueRFgM-606" value="9" style="rounded=0;whiteSpace=wrap;html=1;fontSize=16;fontFamily=Verdana;pointerEvents=0;fontColor=#000000;fillColor=none;gradientColor=none;" vertex="1" parent="ULyl4YnrpsMmXoueRFgM-604">
          <mxGeometry x="48" width="48" height="30" as="geometry" />
        </mxCell>
        <mxCell id="ULyl4YnrpsMmXoueRFgM-607" value="7" style="rounded=0;whiteSpace=wrap;html=1;fontSize=16;fontFamily=Verdana;pointerEvents=0;fontColor=#000000;fillColor=none;gradientColor=none;" vertex="1" parent="ULyl4YnrpsMmXoueRFgM-604">
          <mxGeometry x="449" width="48" height="30" as="geometry" />
        </mxCell>
        <mxCell id="ULyl4YnrpsMmXoueRFgM-608" value="4" style="rounded=0;whiteSpace=wrap;html=1;fontSize=16;fontFamily=Verdana;pointerEvents=0;fontColor=#000000;fillColor=none;gradientColor=none;" vertex="1" parent="ULyl4YnrpsMmXoueRFgM-604">
          <mxGeometry x="497" width="48" height="30" as="geometry" />
        </mxCell>
        <mxCell id="ULyl4YnrpsMmXoueRFgM-609" value="6" style="rounded=0;whiteSpace=wrap;html=1;fontSize=16;fontFamily=Verdana;pointerEvents=0;fontColor=#000000;fillColor=none;gradientColor=none;" vertex="1" parent="ULyl4YnrpsMmXoueRFgM-604">
          <mxGeometry x="338" width="48" height="30" as="geometry" />
        </mxCell>
        <mxCell id="ULyl4YnrpsMmXoueRFgM-610" value="2" style="rounded=0;whiteSpace=wrap;html=1;fontSize=16;fontFamily=Verdana;pointerEvents=0;fontColor=#000000;fillColor=none;gradientColor=none;" vertex="1" parent="ULyl4YnrpsMmXoueRFgM-604">
          <mxGeometry x="386" width="48" height="30" as="geometry" />
        </mxCell>
        <mxCell id="ULyl4YnrpsMmXoueRFgM-611" value="5" style="rounded=0;whiteSpace=wrap;html=1;fontSize=16;fontFamily=Verdana;pointerEvents=0;fontColor=#000000;fillColor=none;gradientColor=none;" vertex="1" parent="ULyl4YnrpsMmXoueRFgM-604">
          <mxGeometry x="226" width="48" height="30" as="geometry" />
        </mxCell>
        <mxCell id="ULyl4YnrpsMmXoueRFgM-612" value="7" style="rounded=0;whiteSpace=wrap;html=1;fontSize=16;fontFamily=Verdana;pointerEvents=0;fontColor=#000000;fillColor=none;gradientColor=none;" vertex="1" parent="ULyl4YnrpsMmXoueRFgM-604">
          <mxGeometry x="274" width="48" height="30" as="geometry" />
        </mxCell>
        <mxCell id="ULyl4YnrpsMmXoueRFgM-613" value="4" style="rounded=0;whiteSpace=wrap;html=1;fontSize=16;fontFamily=Verdana;pointerEvents=0;fontColor=#000000;fillColor=none;gradientColor=none;" vertex="1" parent="ULyl4YnrpsMmXoueRFgM-604">
          <mxGeometry x="111" width="48" height="30" as="geometry" />
        </mxCell>
        <mxCell id="ULyl4YnrpsMmXoueRFgM-614" value="1" style="rounded=0;whiteSpace=wrap;html=1;fontSize=16;fontFamily=Verdana;pointerEvents=0;fontColor=#000000;fillColor=none;gradientColor=none;" vertex="1" parent="ULyl4YnrpsMmXoueRFgM-604">
          <mxGeometry x="159" width="48" height="30" as="geometry" />
        </mxCell>
        <mxCell id="ULyl4YnrpsMmXoueRFgM-615" value="" style="group;pointerEvents=0;fontFamily=Verdana;fontSize=15;fontColor=#000000;fillColor=none;gradientColor=none;" vertex="1" connectable="0" parent="ULyl4YnrpsMmXoueRFgM-604">
          <mxGeometry x="563" width="96" height="30" as="geometry" />
        </mxCell>
        <mxCell id="ULyl4YnrpsMmXoueRFgM-616" value="10" style="rounded=0;whiteSpace=wrap;html=1;fontSize=16;fontFamily=Verdana;pointerEvents=0;fontColor=#000000;fillColor=none;gradientColor=none;" vertex="1" parent="ULyl4YnrpsMmXoueRFgM-615">
          <mxGeometry width="48" height="30" as="geometry" />
        </mxCell>
        <mxCell id="ULyl4YnrpsMmXoueRFgM-617" value="9" style="rounded=0;whiteSpace=wrap;html=1;fontSize=16;fontFamily=Verdana;pointerEvents=0;fontColor=#000000;fillColor=none;gradientColor=none;" vertex="1" parent="ULyl4YnrpsMmXoueRFgM-615">
          <mxGeometry x="48" width="48" height="30" as="geometry" />
        </mxCell>
        <mxCell id="ULyl4YnrpsMmXoueRFgM-618" value="" style="group;pointerEvents=0;fontFamily=Verdana;fontSize=15;fontColor=#000000;fillColor=none;gradientColor=none;" vertex="1" connectable="0" parent="1">
          <mxGeometry x="78" y="1300" width="667" height="20" as="geometry" />
        </mxCell>
        <mxCell id="ULyl4YnrpsMmXoueRFgM-619" value="" style="group;pointerEvents=0;fontFamily=Verdana;fontSize=15;fontColor=#000000;fillColor=none;gradientColor=none;" vertex="1" connectable="0" parent="ULyl4YnrpsMmXoueRFgM-618">
          <mxGeometry width="196" height="20" as="geometry" />
        </mxCell>
        <mxCell id="ULyl4YnrpsMmXoueRFgM-620" value="&lt;span style=&quot;font-size: 10px;&quot;&gt;当前窗口区间所需&lt;b style=&quot;font-size: 10px;&quot;&gt;最小步数：&lt;/b&gt;&lt;/span&gt;" style="text;html=1;strokeColor=none;fillColor=none;align=center;verticalAlign=middle;whiteSpace=wrap;rounded=0;pointerEvents=0;fontFamily=Verdana;fontSize=10;fontColor=#006EAF;" vertex="1" parent="ULyl4YnrpsMmXoueRFgM-619">
          <mxGeometry width="170" height="20" as="geometry" />
        </mxCell>
        <mxCell id="ULyl4YnrpsMmXoueRFgM-621" value="5" style="text;html=1;strokeColor=none;fillColor=none;align=center;verticalAlign=middle;whiteSpace=wrap;rounded=0;pointerEvents=0;fontFamily=Verdana;fontSize=15;fontColor=#006EAF;" vertex="1" parent="ULyl4YnrpsMmXoueRFgM-619">
          <mxGeometry x="158" width="38" height="20" as="geometry" />
        </mxCell>
        <mxCell id="ULyl4YnrpsMmXoueRFgM-622" value="" style="group;pointerEvents=0;fontFamily=Verdana;fontSize=15;fontColor=#000000;fillColor=none;gradientColor=none;" vertex="1" connectable="0" parent="ULyl4YnrpsMmXoueRFgM-618">
          <mxGeometry x="464" width="203" height="20" as="geometry" />
        </mxCell>
        <mxCell id="ULyl4YnrpsMmXoueRFgM-623" value="&lt;span style=&quot;font-size: 10px;&quot;&gt;当前窗口区间采摘水果&lt;/span&gt;&lt;b style=&quot;font-size: 10px;&quot;&gt;数量：&lt;/b&gt;" style="text;html=1;strokeColor=none;fillColor=none;align=center;verticalAlign=middle;whiteSpace=wrap;rounded=0;pointerEvents=0;fontFamily=Verdana;fontSize=10;fontColor=#006EAF;" vertex="1" parent="ULyl4YnrpsMmXoueRFgM-622">
          <mxGeometry width="170" height="20" as="geometry" />
        </mxCell>
        <mxCell id="ULyl4YnrpsMmXoueRFgM-624" value="15" style="text;html=1;strokeColor=none;fillColor=none;align=center;verticalAlign=middle;whiteSpace=wrap;rounded=0;pointerEvents=0;fontFamily=Verdana;fontSize=15;fontColor=#006EAF;" vertex="1" parent="ULyl4YnrpsMmXoueRFgM-622">
          <mxGeometry x="165" width="38" height="20" as="geometry" />
        </mxCell>
        <mxCell id="ULyl4YnrpsMmXoueRFgM-625" value="" style="rounded=0;whiteSpace=wrap;html=1;fontFamily=Lucida Console;fontSize=15;labelBackgroundColor=none;fillColor=#FF99FF;strokeColor=#b85450;opacity=35;pointerEvents=0;fontColor=#000000;" vertex="1" parent="1">
          <mxGeometry x="416" y="1328" width="337" height="56" as="geometry" />
        </mxCell>
        <mxCell id="ULyl4YnrpsMmXoueRFgM-626" value="" style="group;pointerEvents=0;fontFamily=Verdana;fontSize=15;fontColor=#000000;fillColor=none;gradientColor=none;" vertex="1" connectable="0" parent="1">
          <mxGeometry x="442.0000000000001" y="1390" width="60" height="65" as="geometry" />
        </mxCell>
        <mxCell id="ULyl4YnrpsMmXoueRFgM-627" value="" style="endArrow=classic;html=1;rounded=0;fontFamily=Verdana;fontSize=16;strokeWidth=3;strokeColor=#2D7600;fontColor=#000000;" edge="1" parent="ULyl4YnrpsMmXoueRFgM-626">
          <mxGeometry width="50" height="50" relative="1" as="geometry">
            <mxPoint x="30" y="35" as="sourcePoint" />
            <mxPoint x="29.659999999999997" as="targetPoint" />
          </mxGeometry>
        </mxCell>
        <mxCell id="ULyl4YnrpsMmXoueRFgM-628" value="left" style="text;html=1;strokeColor=none;fillColor=none;align=center;verticalAlign=middle;whiteSpace=wrap;rounded=0;fontFamily=Lucida Console;fontSize=15;fontColor=#2D7600;fontStyle=1;pointerEvents=0;" vertex="1" parent="ULyl4YnrpsMmXoueRFgM-626">
          <mxGeometry y="35" width="60" height="30" as="geometry" />
        </mxCell>
        <mxCell id="ULyl4YnrpsMmXoueRFgM-629" value="" style="group;pointerEvents=0;fontFamily=Verdana;fontSize=15;fontColor=#000000;fillColor=none;gradientColor=none;" vertex="1" connectable="0" parent="1">
          <mxGeometry x="667.0000000000001" y="1390" width="60" height="64" as="geometry" />
        </mxCell>
        <mxCell id="ULyl4YnrpsMmXoueRFgM-630" value="" style="endArrow=classic;html=1;rounded=0;fontFamily=Verdana;fontSize=16;strokeWidth=3;strokeColor=#006EAF;fontColor=#000000;" edge="1" parent="ULyl4YnrpsMmXoueRFgM-629">
          <mxGeometry width="50" height="50" relative="1" as="geometry">
            <mxPoint x="30.340000000000003" y="35" as="sourcePoint" />
            <mxPoint x="29.99999999999997" as="targetPoint" />
          </mxGeometry>
        </mxCell>
        <mxCell id="ULyl4YnrpsMmXoueRFgM-631" value="right" style="text;html=1;strokeColor=none;fillColor=none;align=center;verticalAlign=middle;whiteSpace=wrap;rounded=0;fontFamily=Lucida Console;fontSize=15;fontColor=#006EAF;fontStyle=1;pointerEvents=0;" vertex="1" parent="ULyl4YnrpsMmXoueRFgM-629">
          <mxGeometry y="34" width="59" height="30" as="geometry" />
        </mxCell>
        <mxCell id="ULyl4YnrpsMmXoueRFgM-632" value="" style="group;pointerEvents=0;fontFamily=Verdana;fontSize=15;fontColor=#000000;fillColor=none;gradientColor=none;" vertex="1" connectable="0" parent="1">
          <mxGeometry x="78" y="1508" width="675" height="40" as="geometry" />
        </mxCell>
        <mxCell id="ULyl4YnrpsMmXoueRFgM-633" value="" style="shape=table;startSize=0;container=1;collapsible=0;childLayout=tableLayout;fontSize=16;fontFamily=Verdana;pointerEvents=0;fontColor=#000000;fillColor=none;gradientColor=none;" vertex="1" parent="ULyl4YnrpsMmXoueRFgM-632">
          <mxGeometry width="675" height="40" as="geometry" />
        </mxCell>
        <mxCell id="ULyl4YnrpsMmXoueRFgM-634" value="" style="shape=tableRow;horizontal=0;startSize=0;swimlaneHead=0;swimlaneBody=0;top=0;left=0;bottom=0;right=0;collapsible=0;dropTarget=0;fillColor=none;points=[[0,0.5],[1,0.5]];portConstraint=eastwest;fontSize=16;fontFamily=Verdana;pointerEvents=0;fontColor=#000000;" vertex="1" parent="ULyl4YnrpsMmXoueRFgM-633">
          <mxGeometry width="675" height="40" as="geometry" />
        </mxCell>
        <mxCell id="ULyl4YnrpsMmXoueRFgM-635" value="" style="shape=partialRectangle;html=1;whiteSpace=wrap;connectable=0;overflow=hidden;fillColor=none;top=0;left=0;bottom=0;right=0;pointerEvents=1;fontSize=16;fontFamily=Verdana;fontColor=#000000;" vertex="1" parent="ULyl4YnrpsMmXoueRFgM-634">
          <mxGeometry width="112" height="40" as="geometry">
            <mxRectangle width="112" height="40" as="alternateBounds" />
          </mxGeometry>
        </mxCell>
        <mxCell id="ULyl4YnrpsMmXoueRFgM-636" value="" style="shape=partialRectangle;html=1;whiteSpace=wrap;connectable=0;overflow=hidden;fillColor=none;top=0;left=0;bottom=0;right=0;pointerEvents=1;fontSize=16;fontFamily=Verdana;fontColor=#000000;" vertex="1" parent="ULyl4YnrpsMmXoueRFgM-634">
          <mxGeometry x="112" width="114" height="40" as="geometry">
            <mxRectangle width="114" height="40" as="alternateBounds" />
          </mxGeometry>
        </mxCell>
        <mxCell id="ULyl4YnrpsMmXoueRFgM-637" value="" style="shape=partialRectangle;html=1;whiteSpace=wrap;connectable=0;overflow=hidden;fillColor=none;top=0;left=0;bottom=0;right=0;pointerEvents=1;fontSize=16;fontFamily=Verdana;fontColor=#000000;" vertex="1" parent="ULyl4YnrpsMmXoueRFgM-634">
          <mxGeometry x="226" width="112" height="40" as="geometry">
            <mxRectangle width="112" height="40" as="alternateBounds" />
          </mxGeometry>
        </mxCell>
        <mxCell id="ULyl4YnrpsMmXoueRFgM-638" value="" style="shape=partialRectangle;html=1;whiteSpace=wrap;connectable=0;overflow=hidden;fillColor=none;top=0;left=0;bottom=0;right=0;pointerEvents=1;fontSize=16;fontFamily=Verdana;fontColor=#000000;" vertex="1" parent="ULyl4YnrpsMmXoueRFgM-634">
          <mxGeometry x="338" width="111" height="40" as="geometry">
            <mxRectangle width="111" height="40" as="alternateBounds" />
          </mxGeometry>
        </mxCell>
        <mxCell id="ULyl4YnrpsMmXoueRFgM-639" value="" style="shape=partialRectangle;html=1;whiteSpace=wrap;connectable=0;overflow=hidden;fillColor=none;top=0;left=0;bottom=0;right=0;pointerEvents=1;fontSize=16;fontFamily=Verdana;fontColor=#000000;" vertex="1" parent="ULyl4YnrpsMmXoueRFgM-634">
          <mxGeometry x="449" width="114" height="40" as="geometry">
            <mxRectangle width="114" height="40" as="alternateBounds" />
          </mxGeometry>
        </mxCell>
        <mxCell id="ULyl4YnrpsMmXoueRFgM-640" value="" style="shape=partialRectangle;html=1;whiteSpace=wrap;connectable=0;overflow=hidden;fillColor=none;top=0;left=0;bottom=0;right=0;pointerEvents=1;fontSize=16;fontFamily=Verdana;fontColor=#000000;" vertex="1" parent="ULyl4YnrpsMmXoueRFgM-634">
          <mxGeometry x="563" width="112" height="40" as="geometry">
            <mxRectangle width="112" height="40" as="alternateBounds" />
          </mxGeometry>
        </mxCell>
        <mxCell id="ULyl4YnrpsMmXoueRFgM-641" value="" style="group;pointerEvents=0;fontFamily=Verdana;fontSize=15;fontColor=#000000;fillColor=none;gradientColor=none;" vertex="1" connectable="0" parent="ULyl4YnrpsMmXoueRFgM-632">
          <mxGeometry x="8" y="5" width="659" height="30" as="geometry" />
        </mxCell>
        <mxCell id="ULyl4YnrpsMmXoueRFgM-642" value="0" style="rounded=0;whiteSpace=wrap;html=1;fontSize=16;fontFamily=Verdana;pointerEvents=0;fontColor=#000000;fillColor=none;gradientColor=none;" vertex="1" parent="ULyl4YnrpsMmXoueRFgM-641">
          <mxGeometry width="48" height="30" as="geometry" />
        </mxCell>
        <mxCell id="ULyl4YnrpsMmXoueRFgM-643" value="9" style="rounded=0;whiteSpace=wrap;html=1;fontSize=16;fontFamily=Verdana;pointerEvents=0;fontColor=#000000;fillColor=none;gradientColor=none;" vertex="1" parent="ULyl4YnrpsMmXoueRFgM-641">
          <mxGeometry x="48" width="48" height="30" as="geometry" />
        </mxCell>
        <mxCell id="ULyl4YnrpsMmXoueRFgM-644" value="7" style="rounded=0;whiteSpace=wrap;html=1;fontSize=16;fontFamily=Verdana;pointerEvents=0;fontColor=#000000;fillColor=none;gradientColor=none;" vertex="1" parent="ULyl4YnrpsMmXoueRFgM-641">
          <mxGeometry x="449" width="48" height="30" as="geometry" />
        </mxCell>
        <mxCell id="ULyl4YnrpsMmXoueRFgM-645" value="4" style="rounded=0;whiteSpace=wrap;html=1;fontSize=16;fontFamily=Verdana;pointerEvents=0;fontColor=#000000;fillColor=none;gradientColor=none;" vertex="1" parent="ULyl4YnrpsMmXoueRFgM-641">
          <mxGeometry x="497" width="48" height="30" as="geometry" />
        </mxCell>
        <mxCell id="ULyl4YnrpsMmXoueRFgM-646" value="6" style="rounded=0;whiteSpace=wrap;html=1;fontSize=16;fontFamily=Verdana;pointerEvents=0;fontColor=#000000;fillColor=none;gradientColor=none;" vertex="1" parent="ULyl4YnrpsMmXoueRFgM-641">
          <mxGeometry x="338" width="48" height="30" as="geometry" />
        </mxCell>
        <mxCell id="ULyl4YnrpsMmXoueRFgM-647" value="2" style="rounded=0;whiteSpace=wrap;html=1;fontSize=16;fontFamily=Verdana;pointerEvents=0;fontColor=#000000;fillColor=none;gradientColor=none;" vertex="1" parent="ULyl4YnrpsMmXoueRFgM-641">
          <mxGeometry x="386" width="48" height="30" as="geometry" />
        </mxCell>
        <mxCell id="ULyl4YnrpsMmXoueRFgM-648" value="5" style="rounded=0;whiteSpace=wrap;html=1;fontSize=16;fontFamily=Verdana;pointerEvents=0;fontColor=#000000;fillColor=none;gradientColor=none;" vertex="1" parent="ULyl4YnrpsMmXoueRFgM-641">
          <mxGeometry x="226" width="48" height="30" as="geometry" />
        </mxCell>
        <mxCell id="ULyl4YnrpsMmXoueRFgM-649" value="7" style="rounded=0;whiteSpace=wrap;html=1;fontSize=16;fontFamily=Verdana;pointerEvents=0;fontColor=#000000;fillColor=none;gradientColor=none;" vertex="1" parent="ULyl4YnrpsMmXoueRFgM-641">
          <mxGeometry x="274" width="48" height="30" as="geometry" />
        </mxCell>
        <mxCell id="ULyl4YnrpsMmXoueRFgM-650" value="4" style="rounded=0;whiteSpace=wrap;html=1;fontSize=16;fontFamily=Verdana;pointerEvents=0;fontColor=#000000;fillColor=none;gradientColor=none;" vertex="1" parent="ULyl4YnrpsMmXoueRFgM-641">
          <mxGeometry x="111" width="48" height="30" as="geometry" />
        </mxCell>
        <mxCell id="ULyl4YnrpsMmXoueRFgM-651" value="1" style="rounded=0;whiteSpace=wrap;html=1;fontSize=16;fontFamily=Verdana;pointerEvents=0;fontColor=#000000;fillColor=none;gradientColor=none;" vertex="1" parent="ULyl4YnrpsMmXoueRFgM-641">
          <mxGeometry x="159" width="48" height="30" as="geometry" />
        </mxCell>
        <mxCell id="ULyl4YnrpsMmXoueRFgM-652" value="" style="group;pointerEvents=0;fontFamily=Verdana;fontSize=15;fontColor=#000000;fillColor=none;gradientColor=none;" vertex="1" connectable="0" parent="ULyl4YnrpsMmXoueRFgM-641">
          <mxGeometry x="563" width="96" height="30" as="geometry" />
        </mxCell>
        <mxCell id="ULyl4YnrpsMmXoueRFgM-653" value="10" style="rounded=0;whiteSpace=wrap;html=1;fontSize=16;fontFamily=Verdana;pointerEvents=0;fontColor=#000000;fillColor=none;gradientColor=none;" vertex="1" parent="ULyl4YnrpsMmXoueRFgM-652">
          <mxGeometry width="48" height="30" as="geometry" />
        </mxCell>
        <mxCell id="ULyl4YnrpsMmXoueRFgM-654" value="9" style="rounded=0;whiteSpace=wrap;html=1;fontSize=16;fontFamily=Verdana;pointerEvents=0;fontColor=#000000;fillColor=none;gradientColor=none;" vertex="1" parent="ULyl4YnrpsMmXoueRFgM-652">
          <mxGeometry x="48" width="48" height="30" as="geometry" />
        </mxCell>
        <mxCell id="ULyl4YnrpsMmXoueRFgM-655" value="" style="group;pointerEvents=0;fontFamily=Verdana;fontSize=15;fontColor=#000000;fillColor=none;gradientColor=none;" vertex="1" connectable="0" parent="1">
          <mxGeometry x="78" y="1472" width="680" height="20" as="geometry" />
        </mxCell>
        <mxCell id="ULyl4YnrpsMmXoueRFgM-656" value="" style="group;pointerEvents=0;fontFamily=Verdana;fontSize=15;fontColor=#000000;fillColor=none;gradientColor=none;" vertex="1" connectable="0" parent="ULyl4YnrpsMmXoueRFgM-655">
          <mxGeometry width="196" height="20" as="geometry" />
        </mxCell>
        <mxCell id="ULyl4YnrpsMmXoueRFgM-657" value="&lt;span style=&quot;font-size: 10px;&quot;&gt;当前窗口区间所需&lt;b style=&quot;font-size: 10px;&quot;&gt;最小步数：&lt;/b&gt;&lt;/span&gt;" style="text;html=1;strokeColor=none;fillColor=none;align=center;verticalAlign=middle;whiteSpace=wrap;rounded=0;pointerEvents=0;fontFamily=Verdana;fontSize=10;fontColor=#006EAF;" vertex="1" parent="ULyl4YnrpsMmXoueRFgM-656">
          <mxGeometry width="170" height="20" as="geometry" />
        </mxCell>
        <mxCell id="ULyl4YnrpsMmXoueRFgM-658" value="5" style="text;html=1;strokeColor=none;fillColor=none;align=center;verticalAlign=middle;whiteSpace=wrap;rounded=0;pointerEvents=0;fontFamily=Verdana;fontSize=15;fontColor=#006EAF;" vertex="1" parent="ULyl4YnrpsMmXoueRFgM-656">
          <mxGeometry x="158" width="38" height="20" as="geometry" />
        </mxCell>
        <mxCell id="ULyl4YnrpsMmXoueRFgM-659" value="" style="group;pointerEvents=0;fontFamily=Verdana;fontSize=15;fontColor=#000000;fillColor=none;gradientColor=none;" vertex="1" connectable="0" parent="ULyl4YnrpsMmXoueRFgM-655">
          <mxGeometry x="464" width="203" height="20" as="geometry" />
        </mxCell>
        <mxCell id="ULyl4YnrpsMmXoueRFgM-660" value="&lt;span style=&quot;font-size: 10px;&quot;&gt;当前窗口区间采摘水果&lt;/span&gt;&lt;b style=&quot;font-size: 10px;&quot;&gt;数量：&lt;/b&gt;" style="text;html=1;strokeColor=none;fillColor=none;align=center;verticalAlign=middle;whiteSpace=wrap;rounded=0;pointerEvents=0;fontFamily=Verdana;fontSize=10;fontColor=#006EAF;" vertex="1" parent="ULyl4YnrpsMmXoueRFgM-659">
          <mxGeometry width="170" height="20" as="geometry" />
        </mxCell>
        <mxCell id="ULyl4YnrpsMmXoueRFgM-661" value="13" style="text;html=1;strokeColor=none;fillColor=none;align=center;verticalAlign=middle;whiteSpace=wrap;rounded=0;pointerEvents=0;fontFamily=Verdana;fontSize=15;fontColor=#006EAF;" vertex="1" parent="ULyl4YnrpsMmXoueRFgM-659">
          <mxGeometry x="165" width="38" height="20" as="geometry" />
        </mxCell>
        <mxCell id="ULyl4YnrpsMmXoueRFgM-662" value="" style="rounded=0;whiteSpace=wrap;html=1;fontFamily=Lucida Console;fontSize=15;labelBackgroundColor=none;fillColor=#FF99FF;strokeColor=#b85450;opacity=35;pointerEvents=0;fontColor=#000000;" vertex="1" parent="1">
          <mxGeometry x="527" y="1500" width="226" height="56" as="geometry" />
        </mxCell>
        <mxCell id="ULyl4YnrpsMmXoueRFgM-666" value="" style="group;pointerEvents=0;fontFamily=Verdana;fontSize=15;fontColor=#000000;fillColor=none;gradientColor=none;" vertex="1" connectable="0" parent="1">
          <mxGeometry x="554.0000000000001" y="1562" width="60" height="65" as="geometry" />
        </mxCell>
        <mxCell id="ULyl4YnrpsMmXoueRFgM-667" value="" style="endArrow=classic;html=1;rounded=0;fontFamily=Verdana;fontSize=16;strokeWidth=3;strokeColor=#2D7600;fontColor=#000000;" edge="1" parent="ULyl4YnrpsMmXoueRFgM-666">
          <mxGeometry width="50" height="50" relative="1" as="geometry">
            <mxPoint x="30" y="35" as="sourcePoint" />
            <mxPoint x="29.659999999999997" as="targetPoint" />
          </mxGeometry>
        </mxCell>
        <mxCell id="ULyl4YnrpsMmXoueRFgM-668" value="left" style="text;html=1;strokeColor=none;fillColor=none;align=center;verticalAlign=middle;whiteSpace=wrap;rounded=0;fontFamily=Lucida Console;fontSize=15;fontColor=#2D7600;fontStyle=1;pointerEvents=0;" vertex="1" parent="ULyl4YnrpsMmXoueRFgM-666">
          <mxGeometry y="35" width="60" height="30" as="geometry" />
        </mxCell>
        <mxCell id="ULyl4YnrpsMmXoueRFgM-669" value="" style="group;pointerEvents=0;fontFamily=Verdana;fontSize=15;fontColor=#000000;fillColor=none;gradientColor=none;" vertex="1" connectable="0" parent="1">
          <mxGeometry x="667.0000000000001" y="1562" width="60" height="64" as="geometry" />
        </mxCell>
        <mxCell id="ULyl4YnrpsMmXoueRFgM-670" value="" style="endArrow=classic;html=1;rounded=0;fontFamily=Verdana;fontSize=16;strokeWidth=3;strokeColor=#006EAF;fontColor=#000000;" edge="1" parent="ULyl4YnrpsMmXoueRFgM-669">
          <mxGeometry width="50" height="50" relative="1" as="geometry">
            <mxPoint x="30.340000000000003" y="35" as="sourcePoint" />
            <mxPoint x="29.99999999999997" as="targetPoint" />
          </mxGeometry>
        </mxCell>
        <mxCell id="ULyl4YnrpsMmXoueRFgM-671" value="right" style="text;html=1;strokeColor=none;fillColor=none;align=center;verticalAlign=middle;whiteSpace=wrap;rounded=0;fontFamily=Lucida Console;fontSize=15;fontColor=#006EAF;fontStyle=1;pointerEvents=0;" vertex="1" parent="ULyl4YnrpsMmXoueRFgM-669">
          <mxGeometry y="34" width="59" height="30" as="geometry" />
        </mxCell>
        <mxCell id="ULyl4YnrpsMmXoueRFgM-672" value="" style="group;pointerEvents=0;fontFamily=Verdana;fontSize=15;fontColor=#000000;fillColor=none;gradientColor=none;" vertex="1" connectable="0" parent="1">
          <mxGeometry x="78" y="1682" width="675" height="40" as="geometry" />
        </mxCell>
        <mxCell id="ULyl4YnrpsMmXoueRFgM-673" value="" style="shape=table;startSize=0;container=1;collapsible=0;childLayout=tableLayout;fontSize=16;fontFamily=Verdana;pointerEvents=0;fontColor=#000000;fillColor=none;gradientColor=none;" vertex="1" parent="ULyl4YnrpsMmXoueRFgM-672">
          <mxGeometry width="675" height="40" as="geometry" />
        </mxCell>
        <mxCell id="ULyl4YnrpsMmXoueRFgM-674" value="" style="shape=tableRow;horizontal=0;startSize=0;swimlaneHead=0;swimlaneBody=0;top=0;left=0;bottom=0;right=0;collapsible=0;dropTarget=0;fillColor=none;points=[[0,0.5],[1,0.5]];portConstraint=eastwest;fontSize=16;fontFamily=Verdana;pointerEvents=0;fontColor=#000000;" vertex="1" parent="ULyl4YnrpsMmXoueRFgM-673">
          <mxGeometry width="675" height="40" as="geometry" />
        </mxCell>
        <mxCell id="ULyl4YnrpsMmXoueRFgM-675" value="" style="shape=partialRectangle;html=1;whiteSpace=wrap;connectable=0;overflow=hidden;fillColor=none;top=0;left=0;bottom=0;right=0;pointerEvents=1;fontSize=16;fontFamily=Verdana;fontColor=#000000;" vertex="1" parent="ULyl4YnrpsMmXoueRFgM-674">
          <mxGeometry width="112" height="40" as="geometry">
            <mxRectangle width="112" height="40" as="alternateBounds" />
          </mxGeometry>
        </mxCell>
        <mxCell id="ULyl4YnrpsMmXoueRFgM-676" value="" style="shape=partialRectangle;html=1;whiteSpace=wrap;connectable=0;overflow=hidden;fillColor=none;top=0;left=0;bottom=0;right=0;pointerEvents=1;fontSize=16;fontFamily=Verdana;fontColor=#000000;" vertex="1" parent="ULyl4YnrpsMmXoueRFgM-674">
          <mxGeometry x="112" width="114" height="40" as="geometry">
            <mxRectangle width="114" height="40" as="alternateBounds" />
          </mxGeometry>
        </mxCell>
        <mxCell id="ULyl4YnrpsMmXoueRFgM-677" value="" style="shape=partialRectangle;html=1;whiteSpace=wrap;connectable=0;overflow=hidden;fillColor=none;top=0;left=0;bottom=0;right=0;pointerEvents=1;fontSize=16;fontFamily=Verdana;fontColor=#000000;" vertex="1" parent="ULyl4YnrpsMmXoueRFgM-674">
          <mxGeometry x="226" width="112" height="40" as="geometry">
            <mxRectangle width="112" height="40" as="alternateBounds" />
          </mxGeometry>
        </mxCell>
        <mxCell id="ULyl4YnrpsMmXoueRFgM-678" value="" style="shape=partialRectangle;html=1;whiteSpace=wrap;connectable=0;overflow=hidden;fillColor=none;top=0;left=0;bottom=0;right=0;pointerEvents=1;fontSize=16;fontFamily=Verdana;fontColor=#000000;" vertex="1" parent="ULyl4YnrpsMmXoueRFgM-674">
          <mxGeometry x="338" width="111" height="40" as="geometry">
            <mxRectangle width="111" height="40" as="alternateBounds" />
          </mxGeometry>
        </mxCell>
        <mxCell id="ULyl4YnrpsMmXoueRFgM-679" value="" style="shape=partialRectangle;html=1;whiteSpace=wrap;connectable=0;overflow=hidden;fillColor=none;top=0;left=0;bottom=0;right=0;pointerEvents=1;fontSize=16;fontFamily=Verdana;fontColor=#000000;" vertex="1" parent="ULyl4YnrpsMmXoueRFgM-674">
          <mxGeometry x="449" width="114" height="40" as="geometry">
            <mxRectangle width="114" height="40" as="alternateBounds" />
          </mxGeometry>
        </mxCell>
        <mxCell id="ULyl4YnrpsMmXoueRFgM-680" value="" style="shape=partialRectangle;html=1;whiteSpace=wrap;connectable=0;overflow=hidden;fillColor=none;top=0;left=0;bottom=0;right=0;pointerEvents=1;fontSize=16;fontFamily=Verdana;fontColor=#000000;" vertex="1" parent="ULyl4YnrpsMmXoueRFgM-674">
          <mxGeometry x="563" width="112" height="40" as="geometry">
            <mxRectangle width="112" height="40" as="alternateBounds" />
          </mxGeometry>
        </mxCell>
        <mxCell id="ULyl4YnrpsMmXoueRFgM-681" value="" style="group;pointerEvents=0;fontFamily=Verdana;fontSize=15;fontColor=#000000;fillColor=none;gradientColor=none;" vertex="1" connectable="0" parent="ULyl4YnrpsMmXoueRFgM-672">
          <mxGeometry x="8" y="5" width="659" height="30" as="geometry" />
        </mxCell>
        <mxCell id="ULyl4YnrpsMmXoueRFgM-682" value="0" style="rounded=0;whiteSpace=wrap;html=1;fontSize=16;fontFamily=Verdana;pointerEvents=0;fontColor=#000000;fillColor=none;gradientColor=none;" vertex="1" parent="ULyl4YnrpsMmXoueRFgM-681">
          <mxGeometry width="48" height="30" as="geometry" />
        </mxCell>
        <mxCell id="ULyl4YnrpsMmXoueRFgM-683" value="9" style="rounded=0;whiteSpace=wrap;html=1;fontSize=16;fontFamily=Verdana;pointerEvents=0;fontColor=#000000;fillColor=none;gradientColor=none;" vertex="1" parent="ULyl4YnrpsMmXoueRFgM-681">
          <mxGeometry x="48" width="48" height="30" as="geometry" />
        </mxCell>
        <mxCell id="ULyl4YnrpsMmXoueRFgM-684" value="7" style="rounded=0;whiteSpace=wrap;html=1;fontSize=16;fontFamily=Verdana;pointerEvents=0;fontColor=#000000;fillColor=none;gradientColor=none;" vertex="1" parent="ULyl4YnrpsMmXoueRFgM-681">
          <mxGeometry x="449" width="48" height="30" as="geometry" />
        </mxCell>
        <mxCell id="ULyl4YnrpsMmXoueRFgM-685" value="4" style="rounded=0;whiteSpace=wrap;html=1;fontSize=16;fontFamily=Verdana;pointerEvents=0;fontColor=#000000;fillColor=none;gradientColor=none;" vertex="1" parent="ULyl4YnrpsMmXoueRFgM-681">
          <mxGeometry x="497" width="48" height="30" as="geometry" />
        </mxCell>
        <mxCell id="ULyl4YnrpsMmXoueRFgM-686" value="6" style="rounded=0;whiteSpace=wrap;html=1;fontSize=16;fontFamily=Verdana;pointerEvents=0;fontColor=#000000;fillColor=none;gradientColor=none;" vertex="1" parent="ULyl4YnrpsMmXoueRFgM-681">
          <mxGeometry x="338" width="48" height="30" as="geometry" />
        </mxCell>
        <mxCell id="ULyl4YnrpsMmXoueRFgM-687" value="2" style="rounded=0;whiteSpace=wrap;html=1;fontSize=16;fontFamily=Verdana;pointerEvents=0;fontColor=#000000;fillColor=none;gradientColor=none;" vertex="1" parent="ULyl4YnrpsMmXoueRFgM-681">
          <mxGeometry x="386" width="48" height="30" as="geometry" />
        </mxCell>
        <mxCell id="ULyl4YnrpsMmXoueRFgM-688" value="5" style="rounded=0;whiteSpace=wrap;html=1;fontSize=16;fontFamily=Verdana;pointerEvents=0;fontColor=#000000;fillColor=none;gradientColor=none;" vertex="1" parent="ULyl4YnrpsMmXoueRFgM-681">
          <mxGeometry x="226" width="48" height="30" as="geometry" />
        </mxCell>
        <mxCell id="ULyl4YnrpsMmXoueRFgM-689" value="7" style="rounded=0;whiteSpace=wrap;html=1;fontSize=16;fontFamily=Verdana;pointerEvents=0;fontColor=#000000;fillColor=none;gradientColor=none;" vertex="1" parent="ULyl4YnrpsMmXoueRFgM-681">
          <mxGeometry x="274" width="48" height="30" as="geometry" />
        </mxCell>
        <mxCell id="ULyl4YnrpsMmXoueRFgM-690" value="4" style="rounded=0;whiteSpace=wrap;html=1;fontSize=16;fontFamily=Verdana;pointerEvents=0;fontColor=#000000;fillColor=none;gradientColor=none;" vertex="1" parent="ULyl4YnrpsMmXoueRFgM-681">
          <mxGeometry x="111" width="48" height="30" as="geometry" />
        </mxCell>
        <mxCell id="ULyl4YnrpsMmXoueRFgM-691" value="1" style="rounded=0;whiteSpace=wrap;html=1;fontSize=16;fontFamily=Verdana;pointerEvents=0;fontColor=#000000;fillColor=none;gradientColor=none;" vertex="1" parent="ULyl4YnrpsMmXoueRFgM-681">
          <mxGeometry x="159" width="48" height="30" as="geometry" />
        </mxCell>
        <mxCell id="ULyl4YnrpsMmXoueRFgM-692" value="" style="group;pointerEvents=0;fontFamily=Verdana;fontSize=15;fontColor=#000000;fillColor=none;gradientColor=none;" vertex="1" connectable="0" parent="ULyl4YnrpsMmXoueRFgM-681">
          <mxGeometry x="563" width="96" height="30" as="geometry" />
        </mxCell>
        <mxCell id="ULyl4YnrpsMmXoueRFgM-693" value="10" style="rounded=0;whiteSpace=wrap;html=1;fontSize=16;fontFamily=Verdana;pointerEvents=0;fontColor=#000000;fillColor=none;gradientColor=none;" vertex="1" parent="ULyl4YnrpsMmXoueRFgM-692">
          <mxGeometry width="48" height="30" as="geometry" />
        </mxCell>
        <mxCell id="ULyl4YnrpsMmXoueRFgM-694" value="9" style="rounded=0;whiteSpace=wrap;html=1;fontSize=16;fontFamily=Verdana;pointerEvents=0;fontColor=#000000;fillColor=none;gradientColor=none;" vertex="1" parent="ULyl4YnrpsMmXoueRFgM-692">
          <mxGeometry x="48" width="48" height="30" as="geometry" />
        </mxCell>
        <mxCell id="ULyl4YnrpsMmXoueRFgM-695" value="" style="group;pointerEvents=0;fontFamily=Verdana;fontSize=15;fontColor=#000000;fillColor=none;gradientColor=none;" vertex="1" connectable="0" parent="1">
          <mxGeometry x="78" y="1646" width="667" height="20" as="geometry" />
        </mxCell>
        <mxCell id="ULyl4YnrpsMmXoueRFgM-696" value="" style="group;pointerEvents=0;fontFamily=Verdana;fontSize=15;fontColor=#000000;fillColor=none;gradientColor=none;" vertex="1" connectable="0" parent="ULyl4YnrpsMmXoueRFgM-695">
          <mxGeometry width="196" height="20" as="geometry" />
        </mxCell>
        <mxCell id="ULyl4YnrpsMmXoueRFgM-697" value="&lt;span style=&quot;font-size: 10px;&quot;&gt;当前窗口区间所需&lt;b style=&quot;font-size: 10px;&quot;&gt;最小步数：&lt;/b&gt;&lt;/span&gt;" style="text;html=1;strokeColor=none;fillColor=none;align=center;verticalAlign=middle;whiteSpace=wrap;rounded=0;pointerEvents=0;fontFamily=Verdana;fontSize=10;fontColor=#006EAF;" vertex="1" parent="ULyl4YnrpsMmXoueRFgM-696">
          <mxGeometry width="170" height="20" as="geometry" />
        </mxCell>
        <mxCell id="ULyl4YnrpsMmXoueRFgM-698" value="5" style="text;html=1;strokeColor=none;fillColor=none;align=center;verticalAlign=middle;whiteSpace=wrap;rounded=0;pointerEvents=0;fontFamily=Verdana;fontSize=15;fontColor=#006EAF;" vertex="1" parent="ULyl4YnrpsMmXoueRFgM-696">
          <mxGeometry x="158" width="38" height="20" as="geometry" />
        </mxCell>
        <mxCell id="ULyl4YnrpsMmXoueRFgM-699" value="" style="group;pointerEvents=0;fontFamily=Verdana;fontSize=15;fontColor=#000000;fillColor=none;gradientColor=none;" vertex="1" connectable="0" parent="ULyl4YnrpsMmXoueRFgM-695">
          <mxGeometry x="464" width="203" height="20" as="geometry" />
        </mxCell>
        <mxCell id="ULyl4YnrpsMmXoueRFgM-700" value="&lt;span style=&quot;font-size: 10px;&quot;&gt;当前窗口区间采摘水果&lt;/span&gt;&lt;b style=&quot;font-size: 10px;&quot;&gt;数量：&lt;/b&gt;" style="text;html=1;strokeColor=none;fillColor=none;align=center;verticalAlign=middle;whiteSpace=wrap;rounded=0;pointerEvents=0;fontFamily=Verdana;fontSize=10;fontColor=#006EAF;" vertex="1" parent="ULyl4YnrpsMmXoueRFgM-699">
          <mxGeometry width="170" height="20" as="geometry" />
        </mxCell>
        <mxCell id="ULyl4YnrpsMmXoueRFgM-701" value="9" style="text;html=1;strokeColor=none;fillColor=none;align=center;verticalAlign=middle;whiteSpace=wrap;rounded=0;pointerEvents=0;fontFamily=Verdana;fontSize=15;fontColor=#006EAF;" vertex="1" parent="ULyl4YnrpsMmXoueRFgM-699">
          <mxGeometry x="165" width="38" height="20" as="geometry" />
        </mxCell>
        <mxCell id="ULyl4YnrpsMmXoueRFgM-702" value="" style="rounded=0;whiteSpace=wrap;html=1;fontFamily=Lucida Console;fontSize=15;labelBackgroundColor=none;fillColor=#FF99FF;strokeColor=#b85450;opacity=35;pointerEvents=0;fontColor=#000000;" vertex="1" parent="1">
          <mxGeometry x="641.0000000000001" y="1674" width="112" height="56" as="geometry" />
        </mxCell>
        <mxCell id="ULyl4YnrpsMmXoueRFgM-709" value="" style="group" vertex="1" connectable="0" parent="1">
          <mxGeometry x="691.0000000000001" y="1737" width="60" height="64" as="geometry" />
        </mxCell>
        <mxCell id="ULyl4YnrpsMmXoueRFgM-710" value="" style="endArrow=classic;html=1;rounded=0;fontFamily=Verdana;fontSize=16;strokeWidth=3;strokeColor=#006EAF;" edge="1" parent="ULyl4YnrpsMmXoueRFgM-709">
          <mxGeometry width="50" height="50" relative="1" as="geometry">
            <mxPoint x="30.340000000000003" y="35" as="sourcePoint" />
            <mxPoint x="29.99999999999997" as="targetPoint" />
          </mxGeometry>
        </mxCell>
        <mxCell id="ULyl4YnrpsMmXoueRFgM-711" value="right" style="text;html=1;strokeColor=none;fillColor=none;align=center;verticalAlign=middle;whiteSpace=wrap;rounded=0;fontFamily=Lucida Console;fontSize=15;fontColor=#006EAF;fontStyle=1" vertex="1" parent="ULyl4YnrpsMmXoueRFgM-709">
          <mxGeometry y="34" width="59" height="30" as="geometry" />
        </mxCell>
        <mxCell id="ULyl4YnrpsMmXoueRFgM-712" value="" style="group" vertex="1" connectable="0" parent="1">
          <mxGeometry x="641.0000000000001" y="1737" width="60" height="65" as="geometry" />
        </mxCell>
        <mxCell id="ULyl4YnrpsMmXoueRFgM-713" value="" style="endArrow=classic;html=1;rounded=0;fontFamily=Verdana;fontSize=16;strokeWidth=3;strokeColor=#2D7600;" edge="1" parent="ULyl4YnrpsMmXoueRFgM-712">
          <mxGeometry width="50" height="50" relative="1" as="geometry">
            <mxPoint x="30" y="35" as="sourcePoint" />
            <mxPoint x="29.659999999999997" as="targetPoint" />
          </mxGeometry>
        </mxCell>
        <mxCell id="ULyl4YnrpsMmXoueRFgM-714" value="left" style="text;html=1;strokeColor=none;fillColor=none;align=center;verticalAlign=middle;whiteSpace=wrap;rounded=0;fontFamily=Lucida Console;fontSize=15;fontColor=#2D7600;fontStyle=1" vertex="1" parent="ULyl4YnrpsMmXoueRFgM-712">
          <mxGeometry y="35" width="60" height="30" as="geometry" />
        </mxCell>
        <mxCell id="ULyl4YnrpsMmXoueRFgM-715" value="" style="group;pointerEvents=0;fontFamily=Verdana;fontSize=15;fontColor=#000000;fillColor=none;gradientColor=none;" vertex="1" connectable="0" parent="1">
          <mxGeometry x="78" y="1845" width="675" height="40" as="geometry" />
        </mxCell>
        <mxCell id="ULyl4YnrpsMmXoueRFgM-716" value="" style="shape=table;startSize=0;container=1;collapsible=0;childLayout=tableLayout;fontSize=16;fontFamily=Verdana;pointerEvents=0;fontColor=#000000;fillColor=none;gradientColor=none;" vertex="1" parent="ULyl4YnrpsMmXoueRFgM-715">
          <mxGeometry width="675" height="40" as="geometry" />
        </mxCell>
        <mxCell id="ULyl4YnrpsMmXoueRFgM-717" value="" style="shape=tableRow;horizontal=0;startSize=0;swimlaneHead=0;swimlaneBody=0;top=0;left=0;bottom=0;right=0;collapsible=0;dropTarget=0;fillColor=none;points=[[0,0.5],[1,0.5]];portConstraint=eastwest;fontSize=16;fontFamily=Verdana;pointerEvents=0;fontColor=#000000;" vertex="1" parent="ULyl4YnrpsMmXoueRFgM-716">
          <mxGeometry width="675" height="40" as="geometry" />
        </mxCell>
        <mxCell id="ULyl4YnrpsMmXoueRFgM-718" value="" style="shape=partialRectangle;html=1;whiteSpace=wrap;connectable=0;overflow=hidden;fillColor=none;top=0;left=0;bottom=0;right=0;pointerEvents=1;fontSize=16;fontFamily=Verdana;fontColor=#000000;" vertex="1" parent="ULyl4YnrpsMmXoueRFgM-717">
          <mxGeometry width="112" height="40" as="geometry">
            <mxRectangle width="112" height="40" as="alternateBounds" />
          </mxGeometry>
        </mxCell>
        <mxCell id="ULyl4YnrpsMmXoueRFgM-719" value="" style="shape=partialRectangle;html=1;whiteSpace=wrap;connectable=0;overflow=hidden;fillColor=none;top=0;left=0;bottom=0;right=0;pointerEvents=1;fontSize=16;fontFamily=Verdana;fontColor=#000000;" vertex="1" parent="ULyl4YnrpsMmXoueRFgM-717">
          <mxGeometry x="112" width="114" height="40" as="geometry">
            <mxRectangle width="114" height="40" as="alternateBounds" />
          </mxGeometry>
        </mxCell>
        <mxCell id="ULyl4YnrpsMmXoueRFgM-720" value="" style="shape=partialRectangle;html=1;whiteSpace=wrap;connectable=0;overflow=hidden;fillColor=none;top=0;left=0;bottom=0;right=0;pointerEvents=1;fontSize=16;fontFamily=Verdana;fontColor=#000000;" vertex="1" parent="ULyl4YnrpsMmXoueRFgM-717">
          <mxGeometry x="226" width="112" height="40" as="geometry">
            <mxRectangle width="112" height="40" as="alternateBounds" />
          </mxGeometry>
        </mxCell>
        <mxCell id="ULyl4YnrpsMmXoueRFgM-721" value="" style="shape=partialRectangle;html=1;whiteSpace=wrap;connectable=0;overflow=hidden;fillColor=none;top=0;left=0;bottom=0;right=0;pointerEvents=1;fontSize=16;fontFamily=Verdana;fontColor=#000000;" vertex="1" parent="ULyl4YnrpsMmXoueRFgM-717">
          <mxGeometry x="338" width="111" height="40" as="geometry">
            <mxRectangle width="111" height="40" as="alternateBounds" />
          </mxGeometry>
        </mxCell>
        <mxCell id="ULyl4YnrpsMmXoueRFgM-722" value="" style="shape=partialRectangle;html=1;whiteSpace=wrap;connectable=0;overflow=hidden;fillColor=none;top=0;left=0;bottom=0;right=0;pointerEvents=1;fontSize=16;fontFamily=Verdana;fontColor=#000000;" vertex="1" parent="ULyl4YnrpsMmXoueRFgM-717">
          <mxGeometry x="449" width="114" height="40" as="geometry">
            <mxRectangle width="114" height="40" as="alternateBounds" />
          </mxGeometry>
        </mxCell>
        <mxCell id="ULyl4YnrpsMmXoueRFgM-723" value="" style="shape=partialRectangle;html=1;whiteSpace=wrap;connectable=0;overflow=hidden;fillColor=none;top=0;left=0;bottom=0;right=0;pointerEvents=1;fontSize=16;fontFamily=Verdana;fontColor=#000000;" vertex="1" parent="ULyl4YnrpsMmXoueRFgM-717">
          <mxGeometry x="563" width="112" height="40" as="geometry">
            <mxRectangle width="112" height="40" as="alternateBounds" />
          </mxGeometry>
        </mxCell>
        <mxCell id="ULyl4YnrpsMmXoueRFgM-724" value="" style="group;pointerEvents=0;fontFamily=Verdana;fontSize=15;fontColor=#000000;fillColor=none;gradientColor=none;" vertex="1" connectable="0" parent="ULyl4YnrpsMmXoueRFgM-715">
          <mxGeometry x="8" y="5" width="659" height="30" as="geometry" />
        </mxCell>
        <mxCell id="ULyl4YnrpsMmXoueRFgM-725" value="0" style="rounded=0;whiteSpace=wrap;html=1;fontSize=16;fontFamily=Verdana;pointerEvents=0;fontColor=#000000;fillColor=none;gradientColor=none;" vertex="1" parent="ULyl4YnrpsMmXoueRFgM-724">
          <mxGeometry width="48" height="30" as="geometry" />
        </mxCell>
        <mxCell id="ULyl4YnrpsMmXoueRFgM-726" value="9" style="rounded=0;whiteSpace=wrap;html=1;fontSize=16;fontFamily=Verdana;pointerEvents=0;fontColor=#000000;fillColor=none;gradientColor=none;" vertex="1" parent="ULyl4YnrpsMmXoueRFgM-724">
          <mxGeometry x="48" width="48" height="30" as="geometry" />
        </mxCell>
        <mxCell id="ULyl4YnrpsMmXoueRFgM-727" value="7" style="rounded=0;whiteSpace=wrap;html=1;fontSize=16;fontFamily=Verdana;pointerEvents=0;fontColor=#000000;fillColor=none;gradientColor=none;" vertex="1" parent="ULyl4YnrpsMmXoueRFgM-724">
          <mxGeometry x="449" width="48" height="30" as="geometry" />
        </mxCell>
        <mxCell id="ULyl4YnrpsMmXoueRFgM-728" value="4" style="rounded=0;whiteSpace=wrap;html=1;fontSize=16;fontFamily=Verdana;pointerEvents=0;fontColor=#000000;fillColor=none;gradientColor=none;" vertex="1" parent="ULyl4YnrpsMmXoueRFgM-724">
          <mxGeometry x="497" width="48" height="30" as="geometry" />
        </mxCell>
        <mxCell id="ULyl4YnrpsMmXoueRFgM-729" value="6" style="rounded=0;whiteSpace=wrap;html=1;fontSize=16;fontFamily=Verdana;pointerEvents=0;fontColor=#000000;fillColor=none;gradientColor=none;" vertex="1" parent="ULyl4YnrpsMmXoueRFgM-724">
          <mxGeometry x="338" width="48" height="30" as="geometry" />
        </mxCell>
        <mxCell id="ULyl4YnrpsMmXoueRFgM-730" value="2" style="rounded=0;whiteSpace=wrap;html=1;fontSize=16;fontFamily=Verdana;pointerEvents=0;fontColor=#000000;fillColor=none;gradientColor=none;" vertex="1" parent="ULyl4YnrpsMmXoueRFgM-724">
          <mxGeometry x="386" width="48" height="30" as="geometry" />
        </mxCell>
        <mxCell id="ULyl4YnrpsMmXoueRFgM-731" value="5" style="rounded=0;whiteSpace=wrap;html=1;fontSize=16;fontFamily=Verdana;pointerEvents=0;fontColor=#000000;fillColor=none;gradientColor=none;" vertex="1" parent="ULyl4YnrpsMmXoueRFgM-724">
          <mxGeometry x="226" width="48" height="30" as="geometry" />
        </mxCell>
        <mxCell id="ULyl4YnrpsMmXoueRFgM-732" value="7" style="rounded=0;whiteSpace=wrap;html=1;fontSize=16;fontFamily=Verdana;pointerEvents=0;fontColor=#000000;fillColor=none;gradientColor=none;" vertex="1" parent="ULyl4YnrpsMmXoueRFgM-724">
          <mxGeometry x="274" width="48" height="30" as="geometry" />
        </mxCell>
        <mxCell id="ULyl4YnrpsMmXoueRFgM-733" value="4" style="rounded=0;whiteSpace=wrap;html=1;fontSize=16;fontFamily=Verdana;pointerEvents=0;fontColor=#000000;fillColor=none;gradientColor=none;" vertex="1" parent="ULyl4YnrpsMmXoueRFgM-724">
          <mxGeometry x="111" width="48" height="30" as="geometry" />
        </mxCell>
        <mxCell id="ULyl4YnrpsMmXoueRFgM-734" value="1" style="rounded=0;whiteSpace=wrap;html=1;fontSize=16;fontFamily=Verdana;pointerEvents=0;fontColor=#000000;fillColor=none;gradientColor=none;" vertex="1" parent="ULyl4YnrpsMmXoueRFgM-724">
          <mxGeometry x="159" width="48" height="30" as="geometry" />
        </mxCell>
        <mxCell id="ULyl4YnrpsMmXoueRFgM-735" value="" style="group;pointerEvents=0;fontFamily=Verdana;fontSize=15;fontColor=#000000;fillColor=none;gradientColor=none;" vertex="1" connectable="0" parent="ULyl4YnrpsMmXoueRFgM-724">
          <mxGeometry x="563" width="96" height="30" as="geometry" />
        </mxCell>
        <mxCell id="ULyl4YnrpsMmXoueRFgM-736" value="10" style="rounded=0;whiteSpace=wrap;html=1;fontSize=16;fontFamily=Verdana;pointerEvents=0;fontColor=#000000;fillColor=none;gradientColor=none;" vertex="1" parent="ULyl4YnrpsMmXoueRFgM-735">
          <mxGeometry width="48" height="30" as="geometry" />
        </mxCell>
        <mxCell id="ULyl4YnrpsMmXoueRFgM-737" value="9" style="rounded=0;whiteSpace=wrap;html=1;fontSize=16;fontFamily=Verdana;pointerEvents=0;fontColor=#000000;fillColor=none;gradientColor=none;" vertex="1" parent="ULyl4YnrpsMmXoueRFgM-735">
          <mxGeometry x="48" width="48" height="30" as="geometry" />
        </mxCell>
        <mxCell id="ULyl4YnrpsMmXoueRFgM-745" value="" style="rounded=0;whiteSpace=wrap;html=1;fontFamily=Lucida Console;fontSize=15;labelBackgroundColor=none;fillColor=#FF99FF;strokeColor=#b85450;opacity=35;pointerEvents=0;fontColor=#000000;" vertex="1" parent="1">
          <mxGeometry x="761.0000000000001" y="1837" width="112" height="56" as="geometry" />
        </mxCell>
        <mxCell id="ULyl4YnrpsMmXoueRFgM-746" value="" style="group" vertex="1" connectable="0" parent="1">
          <mxGeometry x="812.0000000000001" y="1900" width="60" height="64" as="geometry" />
        </mxCell>
        <mxCell id="ULyl4YnrpsMmXoueRFgM-747" value="" style="endArrow=classic;html=1;rounded=0;fontFamily=Verdana;fontSize=16;strokeWidth=3;strokeColor=#006EAF;" edge="1" parent="ULyl4YnrpsMmXoueRFgM-746">
          <mxGeometry width="50" height="50" relative="1" as="geometry">
            <mxPoint x="30.340000000000003" y="35" as="sourcePoint" />
            <mxPoint x="29.99999999999997" as="targetPoint" />
          </mxGeometry>
        </mxCell>
        <mxCell id="ULyl4YnrpsMmXoueRFgM-748" value="right" style="text;html=1;strokeColor=none;fillColor=none;align=center;verticalAlign=middle;whiteSpace=wrap;rounded=0;fontFamily=Lucida Console;fontSize=15;fontColor=#006EAF;fontStyle=1" vertex="1" parent="ULyl4YnrpsMmXoueRFgM-746">
          <mxGeometry y="34" width="59" height="30" as="geometry" />
        </mxCell>
        <mxCell id="ULyl4YnrpsMmXoueRFgM-749" value="" style="group" vertex="1" connectable="0" parent="1">
          <mxGeometry x="762.0000000000001" y="1900" width="60" height="65" as="geometry" />
        </mxCell>
        <mxCell id="ULyl4YnrpsMmXoueRFgM-750" value="" style="endArrow=classic;html=1;rounded=0;fontFamily=Verdana;fontSize=16;strokeWidth=3;strokeColor=#2D7600;" edge="1" parent="ULyl4YnrpsMmXoueRFgM-749">
          <mxGeometry width="50" height="50" relative="1" as="geometry">
            <mxPoint x="30" y="35" as="sourcePoint" />
            <mxPoint x="29.659999999999997" as="targetPoint" />
          </mxGeometry>
        </mxCell>
        <mxCell id="ULyl4YnrpsMmXoueRFgM-751" value="left" style="text;html=1;strokeColor=none;fillColor=none;align=center;verticalAlign=middle;whiteSpace=wrap;rounded=0;fontFamily=Lucida Console;fontSize=15;fontColor=#2D7600;fontStyle=1" vertex="1" parent="ULyl4YnrpsMmXoueRFgM-749">
          <mxGeometry y="35" width="60" height="30" as="geometry" />
        </mxCell>
        <mxCell id="ULyl4YnrpsMmXoueRFgM-788" value="最佳窗口区间" style="text;html=1;strokeColor=none;fillColor=none;align=center;verticalAlign=middle;whiteSpace=wrap;rounded=0;pointerEvents=0;fontFamily=Verdana;fontSize=15;fontColor=#2D7600;fontStyle=1" vertex="1" parent="1">
          <mxGeometry x="79" y="2010" width="101" height="24" as="geometry" />
        </mxCell>
        <mxCell id="ULyl4YnrpsMmXoueRFgM-789" value="&lt;span style=&quot;color: rgb(0, 110, 175); font-family: Verdana; font-size: 10px; font-style: normal; font-variant-ligatures: normal; font-variant-caps: normal; font-weight: 400; letter-spacing: normal; orphans: 2; text-align: center; text-indent: 0px; text-transform: none; widows: 2; word-spacing: 0px; -webkit-text-stroke-width: 0px; text-decoration-thickness: initial; text-decoration-style: initial; text-decoration-color: initial;&quot;&gt;可以采摘到水果的&lt;/span&gt;&lt;span style=&quot;color: rgb(0, 110, 175); font-family: Verdana; font-size: 10px; font-style: normal; font-variant-ligatures: normal; font-variant-caps: normal; letter-spacing: normal; orphans: 2; text-align: center; text-indent: 0px; text-transform: none; widows: 2; word-spacing: 0px; -webkit-text-stroke-width: 0px; text-decoration-thickness: initial; text-decoration-style: initial; text-decoration-color: initial;&quot;&gt;&lt;b&gt;最大&lt;/b&gt;&lt;/span&gt;&lt;b style=&quot;color: rgb(0, 110, 175); font-family: Verdana; font-size: 10px; font-style: normal; font-variant-ligatures: normal; font-variant-caps: normal; letter-spacing: normal; orphans: 2; text-align: center; text-indent: 0px; text-transform: none; widows: 2; word-spacing: 0px; -webkit-text-stroke-width: 0px; text-decoration-thickness: initial; text-decoration-style: initial; text-decoration-color: initial;&quot;&gt;数量：&lt;/b&gt;" style="text;whiteSpace=wrap;html=1;fontSize=15;fontFamily=Verdana;fontColor=#2D7600;labelBackgroundColor=none;" vertex="1" parent="1">
          <mxGeometry x="211" y="2005" width="167" height="34" as="geometry" />
        </mxCell>
        <mxCell id="ULyl4YnrpsMmXoueRFgM-833" value="&lt;span style=&quot;color: rgb(0, 110, 175); font-family: Verdana; font-style: normal; font-variant-ligatures: normal; font-variant-caps: normal; letter-spacing: normal; orphans: 2; text-indent: 0px; text-transform: none; widows: 2; word-spacing: 0px; -webkit-text-stroke-width: 0px; text-decoration-thickness: initial; text-decoration-style: initial; text-decoration-color: initial; float: none; display: inline !important;&quot;&gt;&lt;font style=&quot;font-size: 16px;&quot;&gt;14&lt;/font&gt;&lt;/span&gt;" style="text;whiteSpace=wrap;html=1;fontSize=15;fontFamily=Verdana;fontColor=#2D7600;align=center;fontStyle=1;labelBackgroundColor=none;" vertex="1" parent="1">
          <mxGeometry x="369" y="2006.0025875538795" width="39" height="32" as="geometry" />
        </mxCell>
        <mxCell id="ULyl4YnrpsMmXoueRFgM-752" value="" style="group;pointerEvents=0;fontFamily=Verdana;fontSize=15;fontColor=#000000;fillColor=none;gradientColor=none;" vertex="1" connectable="0" parent="1">
          <mxGeometry x="79" y="2093" width="675" height="40" as="geometry" />
        </mxCell>
        <mxCell id="ULyl4YnrpsMmXoueRFgM-753" value="" style="shape=table;startSize=0;container=1;collapsible=0;childLayout=tableLayout;fontSize=16;fontFamily=Verdana;pointerEvents=0;fontColor=#000000;fillColor=none;gradientColor=none;" vertex="1" parent="ULyl4YnrpsMmXoueRFgM-752">
          <mxGeometry width="675" height="40" as="geometry" />
        </mxCell>
        <mxCell id="ULyl4YnrpsMmXoueRFgM-754" value="" style="shape=tableRow;horizontal=0;startSize=0;swimlaneHead=0;swimlaneBody=0;top=0;left=0;bottom=0;right=0;collapsible=0;dropTarget=0;fillColor=none;points=[[0,0.5],[1,0.5]];portConstraint=eastwest;fontSize=16;fontFamily=Verdana;pointerEvents=0;fontColor=#000000;" vertex="1" parent="ULyl4YnrpsMmXoueRFgM-753">
          <mxGeometry width="675" height="40" as="geometry" />
        </mxCell>
        <mxCell id="ULyl4YnrpsMmXoueRFgM-755" value="" style="shape=partialRectangle;html=1;whiteSpace=wrap;connectable=0;overflow=hidden;fillColor=none;top=0;left=0;bottom=0;right=0;pointerEvents=1;fontSize=16;fontFamily=Verdana;fontColor=#000000;" vertex="1" parent="ULyl4YnrpsMmXoueRFgM-754">
          <mxGeometry width="112" height="40" as="geometry">
            <mxRectangle width="112" height="40" as="alternateBounds" />
          </mxGeometry>
        </mxCell>
        <mxCell id="ULyl4YnrpsMmXoueRFgM-756" value="" style="shape=partialRectangle;html=1;whiteSpace=wrap;connectable=0;overflow=hidden;fillColor=none;top=0;left=0;bottom=0;right=0;pointerEvents=1;fontSize=16;fontFamily=Verdana;fontColor=#000000;" vertex="1" parent="ULyl4YnrpsMmXoueRFgM-754">
          <mxGeometry x="112" width="114" height="40" as="geometry">
            <mxRectangle width="114" height="40" as="alternateBounds" />
          </mxGeometry>
        </mxCell>
        <mxCell id="ULyl4YnrpsMmXoueRFgM-757" value="" style="shape=partialRectangle;html=1;whiteSpace=wrap;connectable=0;overflow=hidden;fillColor=none;top=0;left=0;bottom=0;right=0;pointerEvents=1;fontSize=16;fontFamily=Verdana;fontColor=#000000;" vertex="1" parent="ULyl4YnrpsMmXoueRFgM-754">
          <mxGeometry x="226" width="112" height="40" as="geometry">
            <mxRectangle width="112" height="40" as="alternateBounds" />
          </mxGeometry>
        </mxCell>
        <mxCell id="ULyl4YnrpsMmXoueRFgM-758" value="" style="shape=partialRectangle;html=1;whiteSpace=wrap;connectable=0;overflow=hidden;fillColor=none;top=0;left=0;bottom=0;right=0;pointerEvents=1;fontSize=16;fontFamily=Verdana;fontColor=#000000;" vertex="1" parent="ULyl4YnrpsMmXoueRFgM-754">
          <mxGeometry x="338" width="111" height="40" as="geometry">
            <mxRectangle width="111" height="40" as="alternateBounds" />
          </mxGeometry>
        </mxCell>
        <mxCell id="ULyl4YnrpsMmXoueRFgM-759" value="" style="shape=partialRectangle;html=1;whiteSpace=wrap;connectable=0;overflow=hidden;fillColor=none;top=0;left=0;bottom=0;right=0;pointerEvents=1;fontSize=16;fontFamily=Verdana;fontColor=#000000;" vertex="1" parent="ULyl4YnrpsMmXoueRFgM-754">
          <mxGeometry x="449" width="114" height="40" as="geometry">
            <mxRectangle width="114" height="40" as="alternateBounds" />
          </mxGeometry>
        </mxCell>
        <mxCell id="ULyl4YnrpsMmXoueRFgM-760" value="" style="shape=partialRectangle;html=1;whiteSpace=wrap;connectable=0;overflow=hidden;fillColor=none;top=0;left=0;bottom=0;right=0;pointerEvents=1;fontSize=16;fontFamily=Verdana;fontColor=#000000;" vertex="1" parent="ULyl4YnrpsMmXoueRFgM-754">
          <mxGeometry x="563" width="112" height="40" as="geometry">
            <mxRectangle width="112" height="40" as="alternateBounds" />
          </mxGeometry>
        </mxCell>
        <mxCell id="ULyl4YnrpsMmXoueRFgM-761" value="" style="group;pointerEvents=0;fontFamily=Verdana;fontSize=15;fontColor=#000000;fillColor=none;gradientColor=none;" vertex="1" connectable="0" parent="ULyl4YnrpsMmXoueRFgM-752">
          <mxGeometry x="8" y="5" width="659" height="30" as="geometry" />
        </mxCell>
        <mxCell id="ULyl4YnrpsMmXoueRFgM-762" value="0" style="rounded=0;whiteSpace=wrap;html=1;fontSize=16;fontFamily=Verdana;pointerEvents=0;fontColor=#000000;fillColor=none;gradientColor=none;" vertex="1" parent="ULyl4YnrpsMmXoueRFgM-761">
          <mxGeometry width="48" height="30" as="geometry" />
        </mxCell>
        <mxCell id="ULyl4YnrpsMmXoueRFgM-763" value="9" style="rounded=0;whiteSpace=wrap;html=1;fontSize=16;fontFamily=Verdana;pointerEvents=0;fontColor=#000000;fillColor=none;gradientColor=none;" vertex="1" parent="ULyl4YnrpsMmXoueRFgM-761">
          <mxGeometry x="48" width="48" height="30" as="geometry" />
        </mxCell>
        <mxCell id="ULyl4YnrpsMmXoueRFgM-764" value="7" style="rounded=0;whiteSpace=wrap;html=1;fontSize=16;fontFamily=Verdana;pointerEvents=0;fontColor=#000000;fillColor=none;gradientColor=none;" vertex="1" parent="ULyl4YnrpsMmXoueRFgM-761">
          <mxGeometry x="449" width="48" height="30" as="geometry" />
        </mxCell>
        <mxCell id="ULyl4YnrpsMmXoueRFgM-765" value="4" style="rounded=0;whiteSpace=wrap;html=1;fontSize=16;fontFamily=Verdana;pointerEvents=0;fontColor=#000000;fillColor=none;gradientColor=none;" vertex="1" parent="ULyl4YnrpsMmXoueRFgM-761">
          <mxGeometry x="497" width="48" height="30" as="geometry" />
        </mxCell>
        <mxCell id="ULyl4YnrpsMmXoueRFgM-766" value="6" style="rounded=0;whiteSpace=wrap;html=1;fontSize=16;fontFamily=Verdana;pointerEvents=0;fontColor=#000000;fillColor=none;gradientColor=none;" vertex="1" parent="ULyl4YnrpsMmXoueRFgM-761">
          <mxGeometry x="338" width="48" height="30" as="geometry" />
        </mxCell>
        <mxCell id="ULyl4YnrpsMmXoueRFgM-767" value="2" style="rounded=0;whiteSpace=wrap;html=1;fontSize=16;fontFamily=Verdana;pointerEvents=0;fontColor=#000000;fillColor=none;gradientColor=none;" vertex="1" parent="ULyl4YnrpsMmXoueRFgM-761">
          <mxGeometry x="386" width="48" height="30" as="geometry" />
        </mxCell>
        <mxCell id="ULyl4YnrpsMmXoueRFgM-768" value="5" style="rounded=0;whiteSpace=wrap;html=1;fontSize=16;fontFamily=Verdana;pointerEvents=0;fontColor=#000000;fillColor=none;gradientColor=none;" vertex="1" parent="ULyl4YnrpsMmXoueRFgM-761">
          <mxGeometry x="226" width="48" height="30" as="geometry" />
        </mxCell>
        <mxCell id="ULyl4YnrpsMmXoueRFgM-769" value="7" style="rounded=0;whiteSpace=wrap;html=1;fontSize=16;fontFamily=Verdana;pointerEvents=0;fontColor=#000000;fillColor=none;gradientColor=none;" vertex="1" parent="ULyl4YnrpsMmXoueRFgM-761">
          <mxGeometry x="274" width="48" height="30" as="geometry" />
        </mxCell>
        <mxCell id="ULyl4YnrpsMmXoueRFgM-770" value="4" style="rounded=0;whiteSpace=wrap;html=1;fontSize=16;fontFamily=Verdana;pointerEvents=0;fontColor=#000000;fillColor=none;gradientColor=none;" vertex="1" parent="ULyl4YnrpsMmXoueRFgM-761">
          <mxGeometry x="111" width="48" height="30" as="geometry" />
        </mxCell>
        <mxCell id="ULyl4YnrpsMmXoueRFgM-771" value="1" style="rounded=0;whiteSpace=wrap;html=1;fontSize=16;fontFamily=Verdana;pointerEvents=0;fontColor=#000000;fillColor=none;gradientColor=none;" vertex="1" parent="ULyl4YnrpsMmXoueRFgM-761">
          <mxGeometry x="159" width="48" height="30" as="geometry" />
        </mxCell>
        <mxCell id="ULyl4YnrpsMmXoueRFgM-772" value="" style="group;pointerEvents=0;fontFamily=Verdana;fontSize=15;fontColor=#000000;fillColor=none;gradientColor=none;" vertex="1" connectable="0" parent="ULyl4YnrpsMmXoueRFgM-761">
          <mxGeometry x="563" width="96" height="30" as="geometry" />
        </mxCell>
        <mxCell id="ULyl4YnrpsMmXoueRFgM-773" value="10" style="rounded=0;whiteSpace=wrap;html=1;fontSize=16;fontFamily=Verdana;pointerEvents=0;fontColor=#000000;fillColor=none;gradientColor=none;" vertex="1" parent="ULyl4YnrpsMmXoueRFgM-772">
          <mxGeometry width="48" height="30" as="geometry" />
        </mxCell>
        <mxCell id="ULyl4YnrpsMmXoueRFgM-774" value="9" style="rounded=0;whiteSpace=wrap;html=1;fontSize=16;fontFamily=Verdana;pointerEvents=0;fontColor=#000000;fillColor=none;gradientColor=none;" vertex="1" parent="ULyl4YnrpsMmXoueRFgM-772">
          <mxGeometry x="48" width="48" height="30" as="geometry" />
        </mxCell>
        <mxCell id="ULyl4YnrpsMmXoueRFgM-775" value="" style="group;pointerEvents=0;fontFamily=Verdana;fontSize=15;fontColor=#000000;fillColor=none;gradientColor=none;" vertex="1" connectable="0" parent="1">
          <mxGeometry x="79" y="2057" width="667" height="20" as="geometry" />
        </mxCell>
        <mxCell id="ULyl4YnrpsMmXoueRFgM-776" value="" style="group;pointerEvents=0;fontFamily=Verdana;fontSize=15;fontColor=#000000;fillColor=none;gradientColor=none;" vertex="1" connectable="0" parent="ULyl4YnrpsMmXoueRFgM-775">
          <mxGeometry width="196" height="20" as="geometry" />
        </mxCell>
        <mxCell id="ULyl4YnrpsMmXoueRFgM-777" value="&lt;span style=&quot;font-size: 10px;&quot;&gt;滑动窗口区间所需&lt;b style=&quot;font-size: 10px;&quot;&gt;最小步数：&lt;/b&gt;&lt;/span&gt;" style="text;html=1;strokeColor=none;fillColor=none;align=center;verticalAlign=middle;whiteSpace=wrap;rounded=0;pointerEvents=0;fontFamily=Verdana;fontSize=10;fontColor=#006EAF;" vertex="1" parent="ULyl4YnrpsMmXoueRFgM-776">
          <mxGeometry width="170" height="20" as="geometry" />
        </mxCell>
        <mxCell id="ULyl4YnrpsMmXoueRFgM-778" value="4" style="text;html=1;strokeColor=none;fillColor=none;align=center;verticalAlign=middle;whiteSpace=wrap;rounded=0;pointerEvents=0;fontFamily=Verdana;fontSize=15;fontColor=#006EAF;" vertex="1" parent="ULyl4YnrpsMmXoueRFgM-776">
          <mxGeometry x="158" width="38" height="20" as="geometry" />
        </mxCell>
        <mxCell id="ULyl4YnrpsMmXoueRFgM-779" value="" style="group;pointerEvents=0;fontFamily=Verdana;fontSize=15;fontColor=#000000;fillColor=none;gradientColor=none;" vertex="1" connectable="0" parent="ULyl4YnrpsMmXoueRFgM-775">
          <mxGeometry x="464" width="203" height="20" as="geometry" />
        </mxCell>
        <mxCell id="ULyl4YnrpsMmXoueRFgM-780" value="&lt;span style=&quot;font-size: 10px;&quot;&gt;滑动窗口区间采摘水果&lt;/span&gt;&lt;b style=&quot;font-size: 10px;&quot;&gt;数量：&lt;/b&gt;" style="text;html=1;strokeColor=none;fillColor=none;align=center;verticalAlign=middle;whiteSpace=wrap;rounded=0;pointerEvents=0;fontFamily=Verdana;fontSize=10;fontColor=#006EAF;" vertex="1" parent="ULyl4YnrpsMmXoueRFgM-779">
          <mxGeometry width="170" height="20" as="geometry" />
        </mxCell>
        <mxCell id="ULyl4YnrpsMmXoueRFgM-781" value="14" style="text;html=1;strokeColor=none;fillColor=none;align=center;verticalAlign=middle;whiteSpace=wrap;rounded=0;pointerEvents=0;fontFamily=Verdana;fontSize=15;fontColor=#006EAF;" vertex="1" parent="ULyl4YnrpsMmXoueRFgM-779">
          <mxGeometry x="165" width="38" height="20" as="geometry" />
        </mxCell>
        <mxCell id="ULyl4YnrpsMmXoueRFgM-782" value="" style="rounded=0;whiteSpace=wrap;html=1;fontFamily=Lucida Console;fontSize=15;labelBackgroundColor=none;fillColor=#FF99FF;strokeColor=#b85450;opacity=35;pointerEvents=0;fontColor=#000000;" vertex="1" parent="1">
          <mxGeometry x="192" y="2085" width="450" height="56" as="geometry" />
        </mxCell>
        <mxCell id="ULyl4YnrpsMmXoueRFgM-784" value="" style="group;pointerEvents=0;fontFamily=Verdana;fontSize=15;fontColor=#000000;fillColor=none;gradientColor=none;" vertex="1" connectable="0" parent="1">
          <mxGeometry x="555.0000000000001" y="2146" width="60" height="64" as="geometry" />
        </mxCell>
        <mxCell id="ULyl4YnrpsMmXoueRFgM-785" value="" style="endArrow=classic;html=1;rounded=0;fontFamily=Verdana;fontSize=16;strokeWidth=3;strokeColor=#006EAF;fontColor=#000000;" edge="1" parent="ULyl4YnrpsMmXoueRFgM-784">
          <mxGeometry width="50" height="50" relative="1" as="geometry">
            <mxPoint x="30.340000000000003" y="35" as="sourcePoint" />
            <mxPoint x="29.99999999999997" as="targetPoint" />
          </mxGeometry>
        </mxCell>
        <mxCell id="ULyl4YnrpsMmXoueRFgM-786" value="right" style="text;html=1;strokeColor=none;fillColor=none;align=center;verticalAlign=middle;whiteSpace=wrap;rounded=0;fontFamily=Lucida Console;fontSize=15;fontColor=#006EAF;fontStyle=1;pointerEvents=0;" vertex="1" parent="ULyl4YnrpsMmXoueRFgM-784">
          <mxGeometry y="34" width="59" height="30" as="geometry" />
        </mxCell>
        <mxCell id="ULyl4YnrpsMmXoueRFgM-834" value="" style="group;pointerEvents=0;fontFamily=Verdana;fontSize=16;fontColor=#2D7600;fillColor=none;gradientColor=none;" vertex="1" connectable="0" parent="1">
          <mxGeometry x="217.0000000000001" y="2146" width="60" height="65" as="geometry" />
        </mxCell>
        <mxCell id="ULyl4YnrpsMmXoueRFgM-835" value="" style="endArrow=classic;html=1;rounded=0;fontFamily=Verdana;fontSize=16;strokeWidth=3;strokeColor=#2D7600;fontColor=#2D7600;" edge="1" parent="ULyl4YnrpsMmXoueRFgM-834">
          <mxGeometry width="50" height="50" relative="1" as="geometry">
            <mxPoint x="30" y="35" as="sourcePoint" />
            <mxPoint x="29.659999999999997" as="targetPoint" />
          </mxGeometry>
        </mxCell>
        <mxCell id="ULyl4YnrpsMmXoueRFgM-836" value="left" style="text;html=1;strokeColor=none;fillColor=none;align=center;verticalAlign=middle;whiteSpace=wrap;rounded=0;fontFamily=Lucida Console;fontSize=15;fontColor=#2D7600;fontStyle=1;pointerEvents=0;" vertex="1" parent="ULyl4YnrpsMmXoueRFgM-834">
          <mxGeometry y="35" width="60" height="30" as="geometry" />
        </mxCell>
      </root>
    </mxGraphModel>
  </diagram>
</mxfile>
